<svg xmlns="http://www.w3.org/2000/svg" width="1920" height="1080" viewBox="0 0 1920 1080"><defs><style>.cls-1{fill:#4a8ed1;}.cls-2{fill:#6ea6cc;}.cls-3{fill:#91b8ce;}</style></defs><title>baggrund</title><g id="baggrund"><rect class="cls-1" x="-20" y="-7" width="1966" height="1118"/><rect class="cls-2" x="-60" y="535" width="2038" height="34"/><rect class="cls-2" x="992" y="541.49" width="277.45" height="15.51" rx="7.75" ry="7.75"/><rect class="cls-2" x="1571.02" y="541.49" width="277.45" height="15.51" rx="7.75" ry="7.75" transform="translate(3419.49 1098.49) rotate(180)"/><circle class="cls-2" cx="1436.04" cy="250.47" r="3.23"/><path class="cls-3" d="M1803.71,216.46c8.59,16.58.34,30.14-18.33,30.13h-3.92l-67.91,0h-3.92c-18.68,0-26.91-13.58-18.3-30.15l4.64-8.91,31.32-60.25,4.64-8.92c8.61-16.57,22.69-16.56,31.29,0l4.62,8.92,31.25,60.3Z"/><rect class="cls-3" x="1726.75" y="101.43" width="41.94" height="61.92" rx="12" ry="12"/><path class="cls-3" d="M1789.14,213.7l-3.46-6.67-13.45-25.95h-50.18L1708.58,207l-3.46,6.67c-6.44,12.38-.29,22.53,13.67,22.54h2.94l50.77,0h2.93C1789.39,236.23,1795.56,226.1,1789.14,213.7Z"/><circle class="cls-3" cx="1758" cy="176.77" r="10.34"/><circle class="cls-3" cx="1738.18" cy="166.43" r="5.17"/><circle class="cls-3" cx="1751.97" cy="144.89" r="5.17"/><circle class="cls-2" cx="1507.27" cy="484.63" r="31.02"/><path class="cls-2" d="M1488.63,477.27a21.73,21.73,0,1,0,37.63,0Z"/><circle class="cls-2" cx="1499.64" cy="475.43" r="7.62"/><circle class="cls-2" cx="1514.36" cy="467.54" r="3.94"/><circle class="cls-2" cx="1505.69" cy="483.57" r="3.15"/><circle class="cls-2" cx="1509.11" cy="462.81" r="3.94"/><rect class="cls-2" x="1203.4" y="122" width="18.96" height="428.11" rx="9.48" ry="9.48"/><path class="cls-2" d="M1253.1,542.35c-7.52-17.27-24.21-29.29-43.62-29.29s-36.09,12-43.61,29.29Z"/><rect class="cls-2" x="1164.62" y="241.64" width="308.47" height="7.75" rx="3.88" ry="3.88"/><circle class="cls-2" cx="1212.87" cy="245.09" r="22.4"/><circle class="cls-2" cx="1212.87" cy="245.09" r="11.2"/><rect class="cls-2" x="1863.12" y="17" width="18.96" height="525.11" rx="9.48" ry="9.48" transform="translate(3745.19 559.11) rotate(180)"/><path class="cls-2" d="M1830.38,534.35c7.51-17.27,24.2-29.29,43.61-29.29s36.09,12,43.61,29.29Z"/><rect class="cls-3" x="1623.88" y="257.3" width="89" height="114.15" rx="26.3" ry="26.3"/><rect class="cls-3" x="1615.5" y="254.08" width="105.12" height="13.54" rx="6.77" ry="6.77"/><path class="cls-3" d="M1631,291.54v57.8a14.42,14.42,0,0,0,14.37,14.37h46.7a14.42,14.42,0,0,0,14.38-14.37v-57.8Z"/><rect class="cls-2" x="1165.48" y="351.07" width="217.13" height="7.75" rx="3.88" ry="3.88"/><circle class="cls-2" cx="1213.74" cy="354.51" r="22.4"/><circle class="cls-2" cx="1213.74" cy="354.51" r="11.2"/><rect class="cls-2" x="1613" y="268.5" width="334.62" height="10.02" rx="3.88" ry="3.88" transform="translate(3560.62 547.03) rotate(-180)"/><ellipse class="cls-2" cx="1873.26" cy="272.96" rx="34.52" ry="28.96"/><ellipse class="cls-2" cx="1873.26" cy="272.96" rx="17.26" ry="14.48"/><rect class="cls-2" x="1703.71" y="145.75" width="217.13" height="7.75" rx="3.88" ry="3.88" transform="translate(3624.56 299.26) rotate(-180)"/><circle class="cls-2" cx="1872.6" cy="149.2" r="22.4"/><circle class="cls-2" cx="1872.6" cy="149.2" r="11.2"/><rect class="cls-2" x="1729.93" y="377.06" width="34.87" height="65.68" rx="12" ry="12"/><ellipse class="cls-2" cx="1747.66" cy="469.77" rx="49.11" ry="45.63"/><path class="cls-2" d="M1707.27,467.74c0,.09,0,.19,0,.29a40.4,40.4,0,0,0,80.79,0v-.29Z"/><circle class="cls-2" cx="1747.37" cy="483.43" r="6.97"/><circle class="cls-2" cx="1771.78" cy="456.11" r="6.97"/><circle class="cls-2" cx="1764.8" cy="450.88" r="6.97"/><circle class="cls-2" cx="1750.85" cy="456.11" r="3.49"/><circle class="cls-2" cx="1740.39" cy="478.2" r="3.49"/><circle class="cls-2" cx="1739.52" cy="439.55" r="4.36"/><circle class="cls-2" cx="1754.05" cy="419.78" r="4.36"/><rect class="cls-2" x="1703.71" y="409.41" width="217.13" height="7.75" rx="3.88" ry="3.88" transform="translate(3624.56 826.58) rotate(180)"/><circle class="cls-2" cx="1872.6" cy="412.86" r="22.4"/><circle class="cls-2" cx="1872.6" cy="412.86" r="11.2"/><path class="cls-2" d="M1385.13,197.82V321.25a20.75,20.75,0,0,1-20.68,20.68h0a20.74,20.74,0,0,1-20.68-20.68V197.82Z"/><path class="cls-2" d="M1380,276.66v44.39a15.51,15.51,0,1,1-31,0V276.66Z"/><circle class="cls-2" cx="1370.26" cy="273.43" r="6.46"/><circle class="cls-2" cx="1358.31" cy="255.66" r="4.2"/><circle class="cls-2" cx="1359.92" cy="287" r="3.88"/><circle class="cls-2" cx="1363.8" cy="266.97" r="5.17"/><circle class="cls-2" cx="1372.2" cy="240.47" r="3.23"/><path class="cls-3" d="M1004.53,206.46c-8.59,16.58-.34,30.14,18.33,30.13h3.93l67.91,0h3.92c18.67,0,26.9-13.58,18.29-30.15l-4.64-8.91L1081,137.23l-4.64-8.92c-8.61-16.57-22.69-16.56-31.28,0l-4.63,8.92-31.24,60.3Z"/><rect class="cls-3" x="1039.54" y="91.43" width="41.94" height="61.92" rx="12" ry="12" transform="translate(2121.03 244.78) rotate(-180)"/><path class="cls-3" d="M1019.11,203.7l3.45-6.67L1036,171.08h50.18l13.47,25.9,3.46,6.67c6.44,12.38.29,22.53-13.67,22.54h-2.93l-50.78,0h-2.93C1018.85,226.23,1012.68,216.1,1019.11,203.7Z"/><circle class="cls-3" cx="1050.24" cy="166.77" r="10.34"/><circle class="cls-3" cx="1070.06" cy="156.43" r="5.17"/><circle class="cls-3" cx="1056.28" cy="134.89" r="5.17"/><circle class="cls-2" cx="1265.97" cy="108.63" r="31.02"/><path class="cls-2" d="M1284.62,101.27a21.73,21.73,0,1,1-37.64,0Z"/><circle class="cls-2" cx="1273.6" cy="99.43" r="7.62"/><circle class="cls-2" cx="1258.88" cy="91.54" r="3.94"/><circle class="cls-2" cx="1267.55" cy="107.57" r="3.15"/><circle class="cls-2" cx="1264.13" cy="86.81" r="3.94"/><rect class="cls-3" x="1304" y="389" width="35" height="66" rx="12" ry="12" transform="translate(2643 844) rotate(-180)"/><ellipse class="cls-3" cx="1321" cy="481.5" rx="49" ry="45.5"/><rect class="cls-3" x="1329.79" y="424.12" width="38.36" height="24.99" rx="12" ry="12" transform="translate(2611.58 -208.51) rotate(135)"/><rect class="cls-3" x="1275.74" y="424.12" width="38.36" height="24.99" rx="12" ry="12" transform="translate(688.01 -787.76) rotate(45)"/><rect class="cls-2" x="1585.89" y="56" width="18.96" height="484.11" rx="9.48" ry="9.48" transform="translate(3190.73 596.11) rotate(180)"/><path class="cls-2" d="M1555.15,536.35c7.51-17.27,24.2-29.29,43.61-29.29s36.1,12,43.61,29.29Z"/><circle class="cls-2" cx="1595.37" cy="235.09" r="22.4"/><circle class="cls-2" cx="1595.37" cy="235.09" r="11.2"/><rect class="cls-2" x="926.17" y="72.85" width="18.96" height="459.25" rx="9.48" ry="9.48"/><path class="cls-2" d="M977.87,535c-7.52-17.27-24.21-29.3-43.61-29.3s-36.1,12-43.62,29.3Z"/><path class="cls-2" d="M1415.27,191c-8.66,16.7-.35,30.35,18.46,30.34h4l68.4,0h4c18.81,0,27.1-13.67,18.42-30.36l-4.67-9-31.55-60.69-4.67-9c-8.67-16.69-22.86-16.68-31.51,0l-4.66,9L1419.92,182Z"/><rect class="cls-2" x="1450.53" y="75.12" width="42.25" height="62.36" rx="12" ry="12" transform="translate(2943.3 212.6) rotate(-180)"/><path class="cls-2" d="M1430,179.71c2.56-4.93,5.72-11,9-17.42h65.24c3.32,6.38,6.47,12.45,9,17.36l3.74,7.2c7,13.39.31,24.35-14.77,24.36h-3.17l-54.85,0h-3.17c-15.09,0-21.75-10.94-14.81-24.34Z"/><circle class="cls-2" cx="1491.1" cy="150.56" r="5.03"/><circle class="cls-2" cx="1481.04" cy="147.2" r="3.02"/><circle class="cls-2" cx="1483.72" cy="177.38" r="5.03"/><circle class="cls-2" cx="1473.33" cy="162.29" r="4.02"/><circle class="cls-2" cx="1456.23" cy="163.97" r="5.03"/><circle class="cls-2" cx="1459.58" cy="149.22" r="3.69"/><circle class="cls-2" cx="1462.93" cy="141.84" r="2.35"/><circle class="cls-2" cx="1470.31" cy="129.77" r="5.03"/><circle class="cls-2" cx="1463.6" cy="112.33" r="2.35"/><rect class="cls-2" x="1426.49" y="116.18" width="217.13" height="7.75" rx="3.88" ry="3.88" transform="translate(3070.1 240.11) rotate(-180)"/><circle class="cls-2" cx="1595.37" cy="119.63" r="22.4"/><circle class="cls-2" cx="1595.37" cy="119.63" r="11.2"/><rect class="cls-2" x="1433.36" y="319.3" width="89" height="114.15" rx="26.3" ry="26.3" transform="translate(2955.72 752.76) rotate(-180)"/><rect class="cls-2" x="1425.62" y="316.08" width="105.12" height="13.54" rx="6.77" ry="6.77" transform="translate(2956.37 645.7) rotate(-180)"/><path class="cls-2" d="M1515.27,353.54v57.8a14.42,14.42,0,0,1-14.38,14.37h-46.7a14.42,14.42,0,0,1-14.38-14.37v-57.8Z"/><rect class="cls-2" x="1065.36" y="253.3" width="89" height="114.15" rx="26.3" ry="26.3" transform="translate(2219.72 620.76) rotate(-180)"/><rect class="cls-2" x="1057.62" y="250.08" width="105.12" height="13.54" rx="6.77" ry="6.77" transform="translate(2220.37 513.7) rotate(180)"/><path class="cls-2" d="M1147.27,287.54v57.8a14.42,14.42,0,0,1-14.38,14.37h-46.7a14.42,14.42,0,0,1-14.38-14.37v-57.8Z"/><circle class="cls-2" cx="1500.11" cy="353.81" r="6.77"/><circle class="cls-2" cx="1486.89" cy="338.01" r="4.51"/><rect class="cls-2" x="1425.62" y="341.07" width="217.13" height="7.75" rx="3.88" ry="3.88" transform="translate(3068.38 689.89) rotate(-180)"/><circle class="cls-2" cx="1594.5" cy="344.51" r="22.4"/><circle class="cls-2" cx="1594.5" cy="344.51" r="11.2"/><rect class="cls-2" x="878" y="258.07" width="260.24" height="7.75" rx="3.88" ry="3.88"/><ellipse class="cls-2" cx="935.83" cy="261.52" rx="26.85" ry="22.4"/><ellipse class="cls-2" cx="935.83" cy="261.52" rx="13.43" ry="11.2"/><rect class="cls-2" x="887.39" y="135.75" width="217.13" height="7.75" rx="3.88" ry="3.88"/><circle class="cls-2" cx="935.65" cy="139.2" r="22.4"/><circle class="cls-2" cx="935.65" cy="139.2" r="11.2"/><rect class="cls-2" x="1043.44" y="367.06" width="34.87" height="65.68" rx="12" ry="12" transform="translate(2121.75 799.81) rotate(-180)"/><ellipse class="cls-2" cx="1060.58" cy="459.77" rx="49.11" ry="45.63"/><path class="cls-2" d="M1101,457.74c0,.09,0,.19,0,.29a40.4,40.4,0,0,1-80.79,0c0-.1,0-.2,0-.29Z"/><circle class="cls-2" cx="1060.87" cy="473.43" r="6.97"/><circle class="cls-2" cx="1036.46" cy="446.11" r="6.97"/><circle class="cls-2" cx="1043.44" cy="440.88" r="6.97"/><circle class="cls-2" cx="1057.39" cy="446.11" r="3.49"/><circle class="cls-2" cx="1067.85" cy="468.2" r="3.49"/><circle class="cls-2" cx="1068.72" cy="429.55" r="4.36"/><circle class="cls-2" cx="1054.19" cy="409.78" r="4.36"/><rect class="cls-2" x="887.39" y="399.41" width="217.13" height="7.75" rx="3.88" ry="3.88"/><circle class="cls-2" cx="935.65" cy="402.86" r="22.4"/><circle class="cls-2" cx="935.65" cy="402.86" r="11.2"/><path class="cls-2" d="M1134.5,266h-7V81.83a22.36,22.36,0,0,0-22.33-22.33h-20.34a22.36,22.36,0,0,0-22.33,22.33V108h-7V81.83a29.37,29.37,0,0,1,29.33-29.33h20.34a29.37,29.37,0,0,1,29.33,29.33Z"/><path class="cls-2" d="M1055,385.56l-.4-25.43A40.48,40.48,0,0,1,1095.08,319h142.67a24.14,24.14,0,0,0,24.12-24.24l-.74-159.37A31.24,31.24,0,0,1,1292.37,104h45.85a30.1,30.1,0,0,1,30,29.75l.77,87.72-7,.06-.77-87.72a23.08,23.08,0,0,0-23-22.81h-45.85a24.24,24.24,0,0,0-24.24,24.36l.74,159.37A31.12,31.12,0,0,1,1237.75,326H1095.08a33.48,33.48,0,0,0-33.48,34l.4,25.42Z"/><path class="cls-2" d="M1320,409.5h-7V313.93A30,30,0,0,1,1342.93,284h107.84a31.52,31.52,0,0,1,31.43,31.2l.19,27.3-7,.05-.19-27.3A24.5,24.5,0,0,0,1450.77,291H1342.93A23,23,0,0,0,1320,313.93Z"/><path class="cls-2" d="M1747,132.54l-.64-58.84a30.13,30.13,0,0,0-30-29.7H1496a20.84,20.84,0,0,0-20.84,21l.21,30.49-7,.05L1468.16,65A27.84,27.84,0,0,1,1496,37h220.33a37.16,37.16,0,0,1,37,36.63l.64,58.83Z"/><path class="cls-2" d="M1527.9,487H1426a32,32,0,0,1-32-32V419a8.3,8.3,0,0,0-13.25-6.67l-51.93,38.58L1307,453.17l-32.52-37.81A35.46,35.46,0,0,0,1247.59,403h-42a34.64,34.64,0,0,1-34.6-34.6V68.22A24.24,24.24,0,0,0,1146.78,44h-17.6a19.77,19.77,0,0,0-19.78,20.12l1.6,212.35-7,.06L1102.4,64.2A26.79,26.79,0,0,1,1129.18,37h17.6A31.25,31.25,0,0,1,1178,68.22V368.4a27.63,27.63,0,0,0,27.6,27.6h42a42.45,42.45,0,0,1,32.24,14.8l30.13,35,16.22-1.71,50.39-37.44A15.31,15.31,0,0,1,1401,419V455a25,25,0,0,0,25,25H1527.9a24.13,24.13,0,0,0,24.1-24.1V255.41A32.45,32.45,0,0,1,1584.41,223h33.23A35.42,35.42,0,0,1,1653,258.36l0,33.2h11.85l.06-37.15A31.51,31.51,0,0,1,1696.41,223h21.44a27,27,0,0,1,27.06,26L1748,399.43l-7,.14-3.08-150.36A20,20,0,0,0,1717.85,230h-21.44A24.5,24.5,0,0,0,1672,254.42l-.07,44.14H1646l0-40.2A28.41,28.41,0,0,0,1617.64,230h-33.23A25.44,25.44,0,0,0,1559,255.41V455.9A31.13,31.13,0,0,1,1527.9,487Z"/><circle class="cls-2" cx="938" cy="390" r="42"/><rect class="cls-2" x="46" y="200.48" width="573" height="26.58" rx="9" ry="9"/><rect class="cls-2" x="46" y="342.26" width="573" height="26.58" rx="9" ry="9"/><circle class="cls-2" cx="245.37" cy="169.47" r="31.01"/><circle class="cls-2" cx="152.33" cy="135.5" r="62.03"/><rect class="cls-2" x="369.47" y="192.1" width="198.34" height="9.86" rx="3.34" ry="3.34"/><path class="cls-2" d="M505.29,72v99c0,9.12,5.3,16.59,11.78,16.59h0c6.48,0,11.78-7.47,11.78-16.59V72Z"/><path class="cls-2" d="M408.49,72v99c0,9.12,5.3,16.59,11.78,16.59h0c6.48,0,11.78-7.47,11.78-16.59V72Z"/><path class="cls-2" d="M456.89,72v99c0,9.12,5.3,16.59,11.78,16.59h0c6.48,0,11.78-7.47,11.78-16.59V72Z"/><rect class="cls-2" x="384.82" y="72" width="10.24" height="124.58" rx="3.47" ry="3.47"/><rect class="cls-2" x="541.57" y="72" width="10.24" height="124.58" rx="3.47" ry="3.47"/><rect class="cls-2" x="364.99" y="99.78" width="203.45" height="6.27" rx="2.12" ry="2.12"/><path class="cls-2" d="M186,233H96.52C76,233,59.29,244.25,59.29,258v1.57c0,13.78,16.75,25.06,37.23,25.06H186Z"/><path class="cls-3" d="M186,244.37H105.33c-18.46,0-33.56,6.3-33.56,14v.87c0,7.71,15.1,14,33.56,14H186Z"/><path class="cls-2" d="M184.08,284.66H98c-19.69,0-35.8,12.57-35.8,27.92v1.75c0,15.36,16.11,27.93,35.8,27.93h86Z"/><path class="cls-3" d="M184.08,297.36H106.52c-17.75,0-32.28,7-32.28,15.61v1c0,8.58,14.53,15.6,32.28,15.6h77.56Z"/><path class="cls-2" d="M322.26,294.15l-79.69-40.7c-18.23-9.31-38.28-6.89-44.55,5.39l-.72,1.39c-6.27,12.28,3.52,29.94,21.76,39.26l79.69,40.69Z"/><path class="cls-3" d="M317.07,304.3l-71.84-36.69c-16.44-8.39-32.75-9.65-36.26-2.79l-.4.78c-3.5,6.86,7.08,19.35,23.52,27.74L303.93,330Z"/><path class="cls-2" d="M356.82,233h17.24a8.66,8.66,0,0,1,8.66,8.66V342.26a0,0,0,0,1,0,0H348.23a1,1,0,0,1-1-1V242.52a9.55,9.55,0,0,1,9.55-9.55Z"/><path class="cls-3" d="M393.74,233H411a8.66,8.66,0,0,1,8.66,8.66V342.26a0,0,0,0,1,0,0H385.15a1,1,0,0,1-1-1V242.52a9.55,9.55,0,0,1,9.55-9.55Z"/><path class="cls-2" d="M430.66,234.45h17.24a8.66,8.66,0,0,1,8.66,8.66V343.73a0,0,0,0,1,0,0H422.07a1,1,0,0,1-1-1V244a9.55,9.55,0,0,1,9.55-9.55Z"/><path class="cls-2" d="M480.87,231.49h17.24a8.66,8.66,0,0,1,8.66,8.66V340.78a0,0,0,0,1,0,0H472.28a1,1,0,0,1-1-1V241A9.55,9.55,0,0,1,480.87,231.49Z" transform="translate(-70.86 199.3) rotate(-21.52)"/><path class="cls-2" d="M520.74,240.36h11.33a8.66,8.66,0,0,1,8.66,8.66v91.77a0,0,0,0,1,0,0H512.16a1,1,0,0,1-1-1V249.91A9.55,9.55,0,0,1,520.74,240.36Z" transform="translate(-69.92 213.15) rotate(-21.52)"/></g></svg>
