<svg xmlns="http://www.w3.org/2000/svg" width="140" height="170" viewBox="0 0 140 170"><defs><style>.cls-1{fill:#d6d6d9;}.cls-2{fill:#2aeeff;}.cls-3{fill:#3fbcff;}.cls-4{fill:#2ac0ff;}.cls-5{fill:#6ab2ff;}</style></defs><title>bla_kolbe</title><g id="game_over"><path class="cls-1" d="M135.69,134.63c10.05,19.38.4,35.23-21.43,35.21h-4.58l-79.39-.05H25.71c-21.83,0-31.45-15.87-21.38-35.24l5.42-10.42L46.37,53.69l5.41-10.42c10.07-19.36,26.53-19.35,36.58,0l5.4,10.42,36.53,70.48Z"/><rect class="cls-1" x="45.73" y="0.16" width="49.03" height="72.38" rx="12" ry="12"/><path class="cls-2" d="M118.56,121.55l-10.48-20.22H32.37L21.89,121.48l-4.34,8.36c-8.08,15.53-.36,28.25,17.14,28.26h3.68l63.66,0h3.68c17.51,0,25.24-12.7,17.18-28.24Z"/><circle class="cls-2" cx="47.68" cy="87.71" r="5.84"/><circle class="cls-2" cx="59.35" cy="83.82" r="3.5"/><circle class="cls-3" cx="56.24" cy="118.84" r="5.84"/><circle class="cls-4" cx="68.3" cy="101.33" r="4.67"/><circle class="cls-2" cx="88.15" cy="103.28" r="5.84"/><circle class="cls-2" cx="84.26" cy="86.16" r="4.28"/><circle class="cls-5" cx="80.37" cy="77.6" r="2.72"/><circle class="cls-2" cx="71.81" cy="63.59" r="5.84"/><circle class="cls-2" cx="79.59" cy="43.35" r="2.72"/></g></svg>
