<svg xmlns="http://www.w3.org/2000/svg" width="240" height="220" viewBox="0 0 240 220"><defs><style>.cls-1{opacity:0.51;}.cls-2{fill:#020202;}.cls-3{fill:#333;}</style></defs><title>bombe</title><g id="spil_skærm"><g class="cls-1"><circle class="cls-2" cx="132.45" cy="145.09" r="73.35"/><polygon class="cls-2" points="26.85 106.96 85.32 41.82 107.92 91.52 130.53 141.21 78.69 124.08 26.85 106.96"/><path class="cls-2" d="M63.47,76.51l-5.38.41c-.3-3.81-2.24-14.31-7.63-17.06-2.6-1.33-6-.72-10.14,1.81-4.78,2.92-8.71,3.47-11.69,1.63-6.15-3.8-5.09-15.93-4.24-25.67a44.21,44.21,0,0,0,.33-6.74,2,2,0,0,0,.34.61l4.18-3.41c1.2,1.48,1.08,3.58.52,10-.52,6-1.61,18.57,1.71,20.63,1.06.65,3.26.05,6-1.65,5.85-3.58,11-4.26,15.42-2C62.11,59.76,63.41,75.83,63.47,76.51Z"/><polygon class="cls-2" points="50.84 43.3 37.66 38.16 39.05 52.24 30.74 40.79 24.31 53.39 23.51 39.27 11.28 46.38 18.25 34.07 4.11 33.45 16.63 26.85 5.07 18.69 19.17 19.91 13.86 6.79 25.06 15.44 27.69 1.54 32.43 14.87 42.16 4.59 38.95 18.37 52.68 14.98 42.53 24.84 55.92 29.41 42.05 32.22 50.84 43.3"/></g><circle class="cls-3" cx="165.07" cy="145.79" r="70.8"/><polygon class="cls-3" points="62.24 111.59 117.07 47.3 140.09 94.69 163.12 142.09 112.68 126.84 62.24 111.59"/><path class="cls-3" d="M96.83,81.31l-5.18.52c-.38-3.67-2.51-13.75-7.78-16.27-2.54-1.22-5.82-.55-9.74,2-4.54,2.94-8.32,3.56-11.24,1.86-6-3.52-5.3-15.25-4.72-24.67a44.29,44.29,0,0,0,.16-6.51,1.65,1.65,0,0,0,.33.58l4-3.39c1.19,1.39,1.13,3.42.74,9.64-.35,5.82-1.1,18,2.16,19.85,1,.61,3.14,0,5.78-1.73,5.55-3.6,10.54-4.38,14.83-2.32C95.11,65.18,96.76,80.65,96.83,81.31Z"/><polygon class="cls-3" points="83.83 49.58 70.98 44.94 72.67 58.49 64.38 47.65 58.48 59.96 57.36 46.35 45.73 53.52 52.15 41.47 38.5 41.21 50.41 34.54 39.06 26.95 52.7 27.78 47.25 15.26 58.27 23.32 60.47 9.84 65.37 22.59 74.5 12.44 71.74 25.81 84.91 22.2 75.36 31.96 88.39 36.05 75.08 39.09 83.83 49.58"/></g></svg>
