<svg xmlns="http://www.w3.org/2000/svg" width="970" height="590" viewBox="0 0 970 590"><defs><style>.cls-1{fill:gray;}.cls-2{fill:#fff;}.cls-3{fill:#333;}.cls-4{opacity:0.61;}</style></defs><title>game_over</title><g id="game_over"><path class="cls-1" d="M618.57,11.08C417.74-12.27,240.08,96.64,221.75,254.33a229.26,229.26,0,0,0,.25,55l-3.91,3.1L8.94,478l265.62,24.44,80.14,7.37c54.43,37.48,122.25,63.55,197.49,72.29C753,605.47,930.68,496.56,949,338.87S819.39,34.42,618.57,11.08Z"/><path class="cls-2" d="M617.94,35.86c-183.2-21.3-345.28,78.05-362,221.9a208.74,208.74,0,0,0,.24,50.22l-3.57,2.83-190.8,151,242.31,22.3,73.11,6.72c49.65,34.19,111.52,58,180.15,65.95,183.21,21.3,345.28-78,362-221.91S801.14,57.15,617.94,35.86Z"/><path d="M453.34,76.16a9.8,9.8,0,0,1-.48,3,10.18,10.18,0,0,1-1.28,2.63l1,0,12.84,47.15-17.33,2-2-7.92-7.95-.13-1.87,7.86-17.76-2L433.16,82.4l1.25-.05a9.8,9.8,0,0,1-1.66-3,10.17,10.17,0,0,1-.54-3.53,9.77,9.77,0,0,1,.9-4,10.47,10.47,0,0,1,5.65-5.32,10.52,10.52,0,0,1,4.08-.73,10.63,10.63,0,0,1,4.15.87,10.91,10.91,0,0,1,3.35,2.23,10.22,10.22,0,0,1,2.23,3.26A9.38,9.38,0,0,1,453.34,76.16ZM445,112.23l-2.45-12.17-2.78,12.09Zm1.14-36a4.92,4.92,0,0,0-.2-1.49,4.79,4.79,0,0,0-.59-1.27,3,3,0,0,0-.91-.86,2.31,2.31,0,0,0-1.17-.34,2.39,2.39,0,0,0-1.19.3,3.15,3.15,0,0,0-1,.84,4.35,4.35,0,0,0-.68,1.24,4.67,4.67,0,0,0-.27,1.48,4.74,4.74,0,0,0,.22,1.57A4.1,4.1,0,0,0,441,79a3.5,3.5,0,0,0,1,.85,2.3,2.3,0,0,0,1.19.33,2.48,2.48,0,0,0,2.11-1.11A4.7,4.7,0,0,0,446.16,76.26Z"/><path d="M507.33,131.16l-17.45.56L490,117l-8-.13-.74,15.27-15.62-.25,2.11-49,16.59,1-1.45,25,7.74.13.49-26.23,15.9.68Z"/><path d="M591.19,83.88l-3.27,47.25-18.3,1.38L560.27,107l-1.95,25.77-15.69-.25,2-49.42,17.44-.56,11.67,25.3.94-23.7Z"/><path d="M627,84.18q-.25,3.27-.48,6.48T626,97.14l-14.8.53-.42,4.39,10.39.16-.94,10.8-10.46.18-.43,5.09,8.64.13,6.14.1q-.27,3.84-.56,7.61c-.19,2.53-.36,5.05-.52,7.58l-30.07.22,1.92-50.27Z"/><path d="M660.73,106.27q0,2.07-.06,4.08a40.33,40.33,0,0,1-.28,4.08,30.18,30.18,0,0,1-2,8.22,22.69,22.69,0,0,1-4.17,6.75,18.71,18.71,0,0,1-6.3,4.54,19.67,19.67,0,0,1-8.43,1.57,23.77,23.77,0,0,1-3.85-.38,26.1,26.1,0,0,1-4-1,24.5,24.5,0,0,1-3.74-1.61,16,16,0,0,1-3.16-2.2l2.39-14.4a17.91,17.91,0,0,0,4.52,3.3,12.21,12.21,0,0,0,5.45,1.32,8.38,8.38,0,0,0,3.26-.5,6.05,6.05,0,0,0,2.22-1.5,7.45,7.45,0,0,0,1.41-2.26,13.54,13.54,0,0,0,.78-2.78,25,25,0,0,0,.33-3c0-1,.08-2.08.1-3.1a110,110,0,0,0-.38-11c-.31-3.66-.58-7.34-.8-11l16-.79Q660.91,95.39,660.73,106.27Z"/><path d="M692.18,131.12a6.92,6.92,0,0,1-.64,2.85,7.71,7.71,0,0,1-1.62,2.3,7.57,7.57,0,0,1-2.35,1.53,6.92,6.92,0,0,1-2.83.53,7.14,7.14,0,0,1-2.85-.62,7.63,7.63,0,0,1-2.3-1.61,7.41,7.41,0,0,1-1.53-2.34,7.22,7.22,0,0,1-.53-2.87,7.41,7.41,0,0,1,2.23-5.18,7.81,7.81,0,0,1,2.35-1.55,7,7,0,0,1,2.86-.55,6.93,6.93,0,0,1,2.82.64,7.52,7.52,0,0,1,2.29,1.63,7.38,7.38,0,0,1,1.55,2.37A7.22,7.22,0,0,1,692.18,131.12Zm3.06-47.38-3.45,36.63-12.9-.2-.74-36.71Z"/><path d="M712.12,131.44a6.76,6.76,0,0,1-.63,2.85,7.69,7.69,0,0,1-1.63,2.3,7.41,7.41,0,0,1-2.34,1.53,7,7,0,0,1-2.83.53,7.33,7.33,0,0,1-2.86-.62,7.58,7.58,0,0,1-2.29-1.61,7.41,7.41,0,0,1-1.53-2.34,7,7,0,0,1-.53-2.87,7.3,7.3,0,0,1,.62-2.85,7.41,7.41,0,0,1,1.61-2.33,7.64,7.64,0,0,1,2.34-1.55,7.06,7.06,0,0,1,2.87-.55,6.93,6.93,0,0,1,2.82.64A7.64,7.64,0,0,1,710,126.2a7.55,7.55,0,0,1,1.55,2.37A7,7,0,0,1,712.12,131.44Zm3.07-47.38-3.45,36.63-12.9-.2-.74-36.71Z"/><path d="M732.07,131.76a6.92,6.92,0,0,1-.64,2.85,7.84,7.84,0,0,1-1.62,2.3,7.46,7.46,0,0,1-2.35,1.53,6.92,6.92,0,0,1-2.83.53,7.14,7.14,0,0,1-2.85-.62,7.46,7.46,0,0,1-2.29-1.61A7.27,7.27,0,0,1,718,134.4a7.4,7.4,0,0,1-.53-2.87,7.31,7.31,0,0,1,.63-2.85,7.22,7.22,0,0,1,1.6-2.33A7.81,7.81,0,0,1,722,124.8a7,7,0,0,1,2.87-.55,6.88,6.88,0,0,1,2.81.64,7.52,7.52,0,0,1,2.29,1.63,7.38,7.38,0,0,1,1.55,2.37A7.05,7.05,0,0,1,732.07,131.76Zm3.06-47.38L731.68,121l-12.9-.2-.73-36.71Z"/><path d="M752,132.08a6.92,6.92,0,0,1-.64,2.85,7.69,7.69,0,0,1-1.63,2.3,7.41,7.41,0,0,1-2.34,1.53,7.09,7.09,0,0,1-2.83.53,7.24,7.24,0,0,1-2.85-.62,7.51,7.51,0,0,1-2.3-1.61,7.41,7.41,0,0,1-1.53-2.34,7,7,0,0,1-.53-2.87A7.3,7.3,0,0,1,738,129a7.41,7.41,0,0,1,1.61-2.33,7.64,7.64,0,0,1,2.34-1.55,7.06,7.06,0,0,1,2.87-.55,6.93,6.93,0,0,1,2.82.64,7.79,7.79,0,0,1,2.29,1.62,7.71,7.71,0,0,1,1.55,2.38A7.22,7.22,0,0,1,752,132.08Zm3.06-47.38-3.45,36.63-12.9-.2L738,84.42Z"/><path d="M323.94,191.24l-8.72,11.65,7,12.63L314,216.84l-5.25-7.72-.41,8-7.37.16,1-27.09,8.24.59-.77,8,5.62-8.37Z"/><path d="M343.54,204.4a13.17,13.17,0,0,1-.42,3.1,12.62,12.62,0,0,1-1.12,2.79,11.84,11.84,0,0,1-1.73,2.36,10.89,10.89,0,0,1-2.28,1.84,11.23,11.23,0,0,1-8.88,1.09,11.73,11.73,0,0,1-2.68-1.18,10.9,10.9,0,0,1-2.24-1.81,10.56,10.56,0,0,1-1.7-2.33,12,12,0,0,1-1.07-2.73,11.23,11.23,0,0,1-.35-3,11.69,11.69,0,0,1,.42-3,12,12,0,0,1,2.84-5.15,10.77,10.77,0,0,1,2.25-1.85,10.61,10.61,0,0,1,2.68-1.2,10.11,10.11,0,0,1,3-.39,12.88,12.88,0,0,1,4.66.87,9.91,9.91,0,0,1,5.83,5.94A12.59,12.59,0,0,1,343.54,204.4Zm-7.86.33a4.94,4.94,0,0,0-.2-1.48,4.23,4.23,0,0,0-.62-1.28,3.4,3.4,0,0,0-1-.92,3.08,3.08,0,0,0-1.44-.37,3.57,3.57,0,0,0-1.49.28,3.41,3.41,0,0,0-1.14.8A3.8,3.8,0,0,0,329,203a4.57,4.57,0,0,0-.27,1.48,5.12,5.12,0,0,0,.19,1.49,4.24,4.24,0,0,0,.61,1.35,3.28,3.28,0,0,0,1,1,2.75,2.75,0,0,0,1.45.39,3.33,3.33,0,0,0,1.5-.3,3.27,3.27,0,0,0,1.14-.87,4.18,4.18,0,0,0,.73-1.27A4.74,4.74,0,0,0,335.68,204.73Z"/><path d="M360.29,207.08l-.87,7.84-14.91.93q.19-6.18.43-12.28t.53-12.27l9.19.15c-.31,2.58-.61,5.15-.9,7.73s-.51,5.16-.65,7.78l1.64.06,1.65,0h1.94Z"/><path d="M381.65,211.2a5.58,5.58,0,0,1-.58,2.52,5.69,5.69,0,0,1-1.47,1.79,7.91,7.91,0,0,1-2.1,1.17,14.46,14.46,0,0,1-2.46.7,18.77,18.77,0,0,1-2.57.31c-.85.05-1.65.06-2.39.05s-1.49-.05-2.28-.11a22.89,22.89,0,0,1-2.33-.32,18.35,18.35,0,0,1-2.3-.56,12,12,0,0,1-2.12-.85l.33-22.78a19.51,19.51,0,0,1,2.12-.7c.74-.21,1.5-.38,2.28-.52s1.54-.23,2.31-.3a21.17,21.17,0,0,1,2.23-.07,19.74,19.74,0,0,1,2.53.2,13,13,0,0,1,2.46.56,11.91,11.91,0,0,1,2.2,1,7.3,7.3,0,0,1,1.77,1.49,6.43,6.43,0,0,1,1.17,2,7.34,7.34,0,0,1,.39,2.66,5.83,5.83,0,0,1-.31,1.85,5.27,5.27,0,0,1-.84,1.55,5.19,5.19,0,0,1-1.31,1.15,5.41,5.41,0,0,1-1.73.69,7.59,7.59,0,0,1,2.09.92,6.23,6.23,0,0,1,1.58,1.44,6.12,6.12,0,0,1,1,1.89A6.8,6.8,0,0,1,381.65,211.2Zm-11.43-4.5a5.28,5.28,0,0,0-1,.09l-.14,4,.52.1a2.94,2.94,0,0,0,.51,0,4,4,0,0,0,.81-.06,2.33,2.33,0,0,0,.83-.31,1.81,1.81,0,0,0,.66-.63,2,2,0,0,0,.28-1.08,2.24,2.24,0,0,0-.24-1.1,2.11,2.11,0,0,0-.62-.67,2,2,0,0,0-.81-.33A5,5,0,0,0,370.22,206.7Zm2.6-5.72a1.64,1.64,0,0,0-.2-.88,1.76,1.76,0,0,0-.51-.6,2.15,2.15,0,0,0-.67-.35,2.84,2.84,0,0,0-.64-.12,2.3,2.3,0,0,0-.69.1c-.23.07-.44.15-.66.24l-.17,3.92a7.77,7.77,0,0,0,1,0,4.2,4.2,0,0,0,1.16-.29,2.49,2.49,0,0,0,1-.7A1.9,1.9,0,0,0,372.82,201Z"/><path d="M399.64,192.28c-.09,1.11-.17,2.2-.25,3.29s-.17,2.17-.28,3.28l-7.5.27-.22,2.23,5.27.08-.47,5.48-5.31.09-.22,2.58,4.39.07,3.11,0c-.09,1.3-.19,2.58-.28,3.86s-.19,2.56-.27,3.85l-15.25.1,1-25.49Z"/><path d="M424.3,192.81l-1.66,24-9.28.7-4.75-12.92-1,13.08-8-.13,1-25.07,8.85-.29L415.47,205l.47-12Z"/><path d="M450.66,209.2a9.9,9.9,0,0,1-.91,4.22,8.53,8.53,0,0,1-2.34,3,10,10,0,0,1-3.45,1.75,14,14,0,0,1-4.21.53,8.62,8.62,0,0,1-1.9-.26c-.68-.16-1.38-.37-2.08-.61s-1.38-.5-2-.77-1.23-.54-1.73-.78l.89-7.28a12.65,12.65,0,0,0,3.31,1.43,14.7,14.7,0,0,0,3.6.52c.22,0,.49,0,.81,0a3.84,3.84,0,0,0,.91-.14,2.09,2.09,0,0,0,.74-.39,1,1,0,0,0,.32-.76.88.88,0,0,0-.21-.58,1.48,1.48,0,0,0-.54-.39,2.71,2.71,0,0,0-.76-.24,6,6,0,0,0-.83-.13,6.9,6.9,0,0,0-.75,0h-.57a7.05,7.05,0,0,1-2.76-.58,6.22,6.22,0,0,1-2.12-1.51,6.83,6.83,0,0,1-1.35-2.26,7.75,7.75,0,0,1-.45-2.83,8.06,8.06,0,0,1,.9-3.73,8.82,8.82,0,0,1,2.29-2.78,10.27,10.27,0,0,1,3.26-1.72,11.47,11.47,0,0,1,3.78-.56c.57,0,1.17,0,1.78.09a17.89,17.89,0,0,1,3.6.68,11.2,11.2,0,0,1,1.64.65l-.79,7.17a23.64,23.64,0,0,0-2.51-.72,12.9,12.9,0,0,0-2.57-.32H443c-.25,0-.5,0-.77,0l-.8.12a3.48,3.48,0,0,0-.73.23,1.48,1.48,0,0,0-.52.39.85.85,0,0,0-.19.58.82.82,0,0,0,.29.63,1.88,1.88,0,0,0,.7.39,5,5,0,0,0,1,.2c.35,0,.69.06,1,.08h1a4.75,4.75,0,0,1,.72,0,7.25,7.25,0,0,1,2.54.64,6.11,6.11,0,0,1,1.9,1.39,6,6,0,0,1,1.17,2A7.72,7.72,0,0,1,450.66,209.2Z"/><path d="M472.5,201.94a8.14,8.14,0,0,1-.56,3,7.23,7.23,0,0,1-1.44,2.3,8.35,8.35,0,0,1-2.12,1.64,13.5,13.5,0,0,1-2.59,1.09,17.78,17.78,0,0,1-2.85.59,21.94,21.94,0,0,1-2.89.17l-.13,8.25-8.25-.14c.05-2.7.1-5.38.15-8.06s.12-5.38.18-8.1q.08-2.16.09-4.32c0-1.44.07-2.89.16-4.35a33.57,33.57,0,0,1,4.54-.93,32.7,32.7,0,0,1,4.68-.27,17.9,17.9,0,0,1,2.72.27,13.37,13.37,0,0,1,2.6.74,11.79,11.79,0,0,1,2.3,1.23,8.13,8.13,0,0,1,1.82,1.74,8,8,0,0,1,1.59,5.12Zm-7.86.47a2.32,2.32,0,0,0-.67-1.8,2.6,2.6,0,0,0-1.8-.68,6.93,6.93,0,0,0-.77,0l-.76.14-.29,5.16a3.91,3.91,0,0,0,.48.05h.47a3.46,3.46,0,0,0,1.24-.19,3.25,3.25,0,0,0,1.06-.59,3.08,3.08,0,0,0,.75-.93A2.67,2.67,0,0,0,464.64,202.41Z"/><path d="M494.21,202.25a12.56,12.56,0,0,1-.28,2.5,7.31,7.31,0,0,1-2.14,3.76,11.59,11.59,0,0,1-2,1.49l4.09,7.57-8,1.43-2.61-7.58-2.19,0-.44,7.36-7.6-.12q.15-4,.29-8c.1-2.67.21-5.34.32-8,0-1.36.09-2.7.13-4s.12-2.68.21-4a20.39,20.39,0,0,1,2.45-.72,22.92,22.92,0,0,1,2.43-.43c.8-.1,1.63-.17,2.46-.19s1.68,0,2.56,0a13.69,13.69,0,0,1,3.89.61,10.18,10.18,0,0,1,3.3,1.73,8.32,8.32,0,0,1,2.28,2.81A8.22,8.22,0,0,1,494.21,202.25Zm-7.94.44a4.23,4.23,0,0,0-.18-1.36,3,3,0,0,0-.58-1.08,2.77,2.77,0,0,0-1-.73,3.43,3.43,0,0,0-1.38-.28,5.12,5.12,0,0,0-.69,0,3.5,3.5,0,0,0-.66.12l-.39,6.57h.42a6.48,6.48,0,0,0,1.56-.17,4.47,4.47,0,0,0,1.42-.58,3.27,3.27,0,0,0,1-1A2.77,2.77,0,0,0,486.27,202.69Z"/><path d="M517.48,218.16l-8.79,1-1-4-4-.07-1,4-9-1,7.41-23.45,9.85-.34Zm-10.33-8.45-1.25-6.17-1.41,6.13Z"/><path d="M542.29,194.71l-1.66,24-9.28.7-4.74-12.92-1,13.08-8-.13,1-25.07,8.85-.28,5.91,12.83.48-12Z"/><path d="M564.73,216.83a8.51,8.51,0,0,1-2.09,1.79,14.12,14.12,0,0,1-2.63,1.25,16.86,16.86,0,0,1-2.88.72,15.3,15.3,0,0,1-2.8.21,12.09,12.09,0,0,1-4.71-1,11.31,11.31,0,0,1-3.68-2.6,11.79,11.79,0,0,1-2.39-3.85,12.38,12.38,0,0,1-.81-4.74,15.86,15.86,0,0,1,.51-3.77,15.48,15.48,0,0,1,1.32-3.46,14.34,14.34,0,0,1,2-3,12.91,12.91,0,0,1,2.73-2.32,12.53,12.53,0,0,1,3.31-1.48,12.9,12.9,0,0,1,3.83-.49c.51,0,1,0,1.63.09a16.54,16.54,0,0,1,1.72.24,13.06,13.06,0,0,1,1.66.44,7.74,7.74,0,0,1,1.48.68l-.6,6.75a9,9,0,0,0-2-.54,16.29,16.29,0,0,0-2.06-.16,7.7,7.7,0,0,0-2.65.39,6.35,6.35,0,0,0-2.16,1.21,5.66,5.66,0,0,0-1.47,2,6.3,6.3,0,0,0-.58,2.62,6.65,6.65,0,0,0,.22,1.79,4.71,4.71,0,0,0,.73,1.53,3.83,3.83,0,0,0,1.24,1.09,3.58,3.58,0,0,0,1.73.43,5.71,5.71,0,0,0,1.4-.15,3,3,0,0,0,1.24-.58l.09-1.38-4.25-.14.3-5.3,5.28-.07c1.75,0,3.52,0,5.3-.08Z"/><path d="M583,195.82l-2.33,24.06-7.47.27.38-24Z"/><path d="M606.64,211l-.86,7.84-14.92.92q.21-6.16.44-12.27t.52-12.27l9.2.15c-.31,2.58-.61,5.15-.9,7.73s-.51,5.16-.66,7.78c.56,0,1.1.05,1.65.06l1.64,0h2C605.33,211,606,211,606.64,211Z"/><path d="M628.78,201.79c0,.87-.07,1.83-.17,2.88s-.25,2.13-.45,3.25-.47,2.25-.79,3.39a24.77,24.77,0,0,1-1.18,3.3,20,20,0,0,1-1.61,3,12.08,12.08,0,0,1-2.09,2.39,9.35,9.35,0,0,1-2.62,1.58,8.25,8.25,0,0,1-3.2.54,8.77,8.77,0,0,1-3.55-.72,7.89,7.89,0,0,1-2.56-1.82,9.63,9.63,0,0,1-1.73-2.65,16.43,16.43,0,0,1-1-3.18,24.21,24.21,0,0,1-.48-3.43c-.08-1.16-.11-2.28-.1-3.35,0-1.65.14-3.3.33-4.94s.45-3.28.79-4.91l8.27.45c-.35,1.84-.65,3.7-.91,5.56a46.25,46.25,0,0,0-.44,5.63c0,.2,0,.5,0,.9s0,.83.08,1.32.1,1,.18,1.51a8.09,8.09,0,0,0,.34,1.41,3.63,3.63,0,0,0,.54,1.06,1,1,0,0,0,.76.41,1.18,1.18,0,0,0,.93-.47,4.57,4.57,0,0,0,.74-1.29,14.29,14.29,0,0,0,.57-1.86c.16-.71.3-1.44.42-2.21s.22-1.53.29-2.29.15-1.48.2-2.14.09-1.24.11-1.75,0-.89,0-1.13c0-.92,0-1.84,0-2.75s0-1.83-.09-2.74l8.28.13C628.77,198.46,628.81,200.12,628.78,201.79Z"/><path d="M647,196.24c-.09,1.11-.17,2.21-.25,3.29s-.17,2.18-.28,3.29l-7.5.27,0,2.23,6.51.1L645,210.9l-6.2.07-.13,10.48-9,0,1-25.5Z"/><path d="M666.64,196.77l-.3,7.5-5.27.13-1.62,16.74-7.47.27.31-16.77-5.28.2.35-8.34Z"/><path d="M684.36,196.84c-.08,1.11-.17,2.21-.24,3.29s-.17,2.18-.29,3.29l-7.5.26-.21,2.23,5.27.09-.48,5.47-5.31.09-.22,2.58,4.39.07,3.11,0c-.09,1.3-.18,2.59-.28,3.86s-.19,2.57-.27,3.85l-15.25.11,1-25.5Z"/><path d="M709,197.38l-1.66,24-9.28.7-4.75-12.92-1,13.08-8-.13,1-25.07,8.85-.28,5.92,12.83.48-12Z"/><path d="M724,219.06a6.14,6.14,0,0,1-.39,1.84,9.2,9.2,0,0,1-1,2A11.13,11.13,0,0,1,721,224.7a8.46,8.46,0,0,1-2,1.43s0-.15,0-.42,0-.59,0-1,0-.79,0-1.23,0-.82,0-1.17a3.4,3.4,0,0,1-1.71-1.39,3.6,3.6,0,0,1-.6-2.11,3.47,3.47,0,0,1,.31-1.43,3.65,3.65,0,0,1,.82-1.16,3.75,3.75,0,0,1,1.19-.79,3.58,3.58,0,0,1,2.89,0,3.74,3.74,0,0,1,1.17.82,3.84,3.84,0,0,1,.78,1.19A3.33,3.33,0,0,1,724,219Z"/><path d="M317.56,234.44c-.09,1.11-.17,2.21-.24,3.29s-.17,2.18-.29,3.29l-7.5.27,0,2.22,6.51.11-.44,5.48-6.19.07-.14,10.47-9,0,1-25.5Z"/><path d="M338.07,258.76l-8.79,1-1-4-4-.06-.95,4-9-1,7.42-23.45,9.84-.34Zm-10.34-8.44-1.25-6.18-1.4,6.13Z"/><path d="M359.42,243.57a12.56,12.56,0,0,1-.28,2.5,7.13,7.13,0,0,1-2.14,3.76,11.59,11.59,0,0,1-2,1.49l4.09,7.57-8,1.43-2.6-7.58-2.2,0-.44,7.36-7.6-.13c.1-2.68.2-5.36.3-8s.2-5.34.31-8c.05-1.36.09-2.7.14-4s.11-2.68.2-4a20.39,20.39,0,0,1,2.45-.72,22.92,22.92,0,0,1,2.43-.43c.81-.1,1.63-.17,2.46-.19s1.68,0,2.56,0a13.69,13.69,0,0,1,3.89.61,10.18,10.18,0,0,1,3.3,1.73,8.47,8.47,0,0,1,2.29,2.81A8.34,8.34,0,0,1,359.42,243.57Zm-7.93.44a4.58,4.58,0,0,0-.19-1.37,2.85,2.85,0,0,0-.58-1.07,2.77,2.77,0,0,0-1-.73,3.6,3.6,0,0,0-1.38-.28,5.12,5.12,0,0,0-.69,0,3.5,3.5,0,0,0-.66.12l-.39,6.57h.43a6.46,6.46,0,0,0,1.55-.17,4.47,4.47,0,0,0,1.42-.58,3.2,3.2,0,0,0,1-1A2.74,2.74,0,0,0,351.49,244Z"/><path d="M382.13,236.19l-6.87,24.51-8.78.36-7.56-25,8.4-.64L370.48,250,374,235.52Z"/><path d="M399.46,235.75c-.09,1.11-.17,2.21-.25,3.29s-.17,2.18-.28,3.29l-7.51.27-.21,2.22,5.27.09-.48,5.48-5.31.09-.21,2.58,4.38.07,3.12.05c-.1,1.29-.19,2.58-.29,3.86s-.18,2.56-.26,3.84l-15.26.11,1-25.5Z"/><path d="M420.65,244.55a11.82,11.82,0,0,1-.27,2.5,7.53,7.53,0,0,1-.79,2,7.27,7.27,0,0,1-1.35,1.71,12,12,0,0,1-2,1.49l4.09,7.57-8,1.43-2.6-7.58-2.19,0-.44,7.36-7.61-.12q.17-4,.3-8c.1-2.67.2-5.34.31-8,.05-1.35.1-2.7.14-4s.12-2.68.21-4a21.77,21.77,0,0,1,2.45-.72,22.74,22.74,0,0,1,2.42-.43c.81-.1,1.63-.16,2.46-.19s1.69,0,2.56,0a13.63,13.63,0,0,1,3.89.61,10.34,10.34,0,0,1,3.31,1.73,8.38,8.38,0,0,1,2.28,2.82A8,8,0,0,1,420.65,244.55Zm-7.93.44a4.23,4.23,0,0,0-.18-1.36,3,3,0,0,0-.58-1.08,2.77,2.77,0,0,0-1-.73,3.7,3.7,0,0,0-1.39-.28,5.22,5.22,0,0,0-.69,0,3.55,3.55,0,0,0-.65.12l-.39,6.58h.42a6.4,6.4,0,0,0,1.55-.17,4.53,4.53,0,0,0,1.43-.58,3.27,3.27,0,0,0,1-1A2.85,2.85,0,0,0,412.72,245Z"/><path d="M446.06,236.64l-1.65,24-9.29.7-4.74-12.92-1,13.07-8-.12,1-25.07,8.85-.29,5.91,12.84.48-12Z"/><path d="M464.25,236.79c-.09,1.11-.17,2.21-.25,3.29s-.17,2.18-.28,3.29l-7.51.27-.21,2.22,5.27.09-.48,5.47-5.31.1-.21,2.58,4.38.07,3.12.05c-.1,1.29-.19,2.58-.29,3.86s-.18,2.56-.26,3.84L447,262l1-25.5Z"/><path d="M493.55,238l-6.87,24.52-8.78.35-7.56-25,8.39-.65,3.17,14.56,3.52-14.45Z"/><path d="M514.22,261.59l-8.79,1-1-4-4-.06-.95,4-9-1L497.86,238l9.85-.34Zm-10.34-8.45L502.64,247l-1.41,6.14Z"/><path d="M535.57,246.39a11.79,11.79,0,0,1-.28,2.5,7.51,7.51,0,0,1-.78,2.05,7.31,7.31,0,0,1-1.36,1.72,11.87,11.87,0,0,1-2,1.48l4.09,7.57-8,1.43-2.6-7.58-2.2,0L522,263l-7.61-.12q.15-4,.3-8c.09-2.66.2-5.34.31-8,.05-1.35.09-2.69.14-4s.11-2.67.2-4a24.25,24.25,0,0,1,2.46-.72,22.3,22.3,0,0,1,2.42-.43c.81-.1,1.63-.16,2.46-.19s1.69,0,2.56,0a13.7,13.7,0,0,1,3.89.62,10.12,10.12,0,0,1,3.31,1.72,8.5,8.5,0,0,1,2.28,2.82A8,8,0,0,1,535.57,246.39Zm-7.93.44a4.23,4.23,0,0,0-.18-1.36,3,3,0,0,0-.59-1.08,2.55,2.55,0,0,0-1-.72,3.43,3.43,0,0,0-1.38-.28,3.9,3.9,0,0,0-.69,0c-.23,0-.44.07-.66.12l-.39,6.58h.43a6.38,6.38,0,0,0,1.55-.16,4.87,4.87,0,0,0,1.42-.58,3.33,3.33,0,0,0,1.05-1A2.85,2.85,0,0,0,527.64,246.83Z"/><path d="M553.54,238.83l-2.33,24.06-7.47.27.39-24Z"/><path d="M577.2,238.78l-8.71,11.65,7,12.63-8.23,1.32L562,256.66l-.41,8-7.36.16,1-27.09,8.23.59-.76,8,5.62-8.37Z"/><path d="M599.45,239.14l-8.71,11.64,7,12.64-8.23,1.32L584.23,257l-.41,8-7.36.17,1-27.09,8.23.59-.76,8,5.62-8.37Z"/><path d="M616,239.23c-.09,1.1-.17,2.2-.25,3.28s-.17,2.18-.28,3.29l-7.51.27-.21,2.22,5.27.09-.48,5.48-5.31.09-.21,2.58,4.38.07,3.12,0c-.1,1.29-.19,2.58-.29,3.86s-.18,2.56-.26,3.84l-15.26.11,1-25.5Z"/><path d="M633.25,240.1l-2.34,24.07-7.47.26.39-24Z"/><path d="M661.41,251.42a14.63,14.63,0,0,1-.71,4.46,12.24,12.24,0,0,1-1.83,3.5,11.64,11.64,0,0,1-2.76,2.62,15.43,15.43,0,0,1-3.48,1.78,20.29,20.29,0,0,1-4,1,27,27,0,0,1-4.34.27c-.56,0-1.1,0-1.63-.07s-1.07-.09-1.63-.16l.88-23.73a22.55,22.55,0,0,1,4-.81,33.28,33.28,0,0,1,4.1-.19,13.77,13.77,0,0,1,4.64.84,10.5,10.5,0,0,1,3.63,2.25,9.87,9.87,0,0,1,2.34,3.54A12.09,12.09,0,0,1,661.41,251.42Zm-7.27,1a7,7,0,0,0-.18-1.85,4.15,4.15,0,0,0-.7-1.57A3.68,3.68,0,0,0,652,247.9a4,4,0,0,0-1.85-.48l-.88,11a5,5,0,0,0,1.94-.66,6.12,6.12,0,0,0,1.51-1.31,6,6,0,0,0,1-1.73,6.42,6.42,0,0,0,.41-2Z"/><path d="M679.41,240.24c-.09,1.11-.18,2.21-.25,3.29s-.17,2.18-.28,3.29l-7.51.27-.21,2.22,5.27.09-.48,5.47-5.31.1-.22,2.57,4.39.08,3.11.05c-.09,1.29-.18,2.58-.28,3.86s-.19,2.56-.27,3.84l-15.25.11,1-25.5Z"/><path d="M704.06,240.78l-1.66,24-9.28.71-4.75-12.93-1,13.08-8-.13,1-25.07,8.85-.28L695.23,253l.48-12Z"/><path d="M733.16,249.56a11.82,11.82,0,0,1-.27,2.5,7.87,7.87,0,0,1-.79,2.05,7.27,7.27,0,0,1-1.35,1.71,12,12,0,0,1-2,1.49l4.09,7.57-8,1.43-2.6-7.58-2.19,0-.44,7.36L712,266q.16-4,.3-8c.1-2.67.2-5.34.31-8,0-1.36.09-2.7.14-4s.11-2.68.21-4a21.77,21.77,0,0,1,2.45-.72,22.74,22.74,0,0,1,2.42-.43c.81-.1,1.63-.16,2.46-.19s1.69,0,2.56,0a13.69,13.69,0,0,1,3.89.61,10.34,10.34,0,0,1,3.31,1.73,8.44,8.44,0,0,1,2.28,2.81A8.1,8.1,0,0,1,733.16,249.56Zm-7.93.44a4.23,4.23,0,0,0-.18-1.36,3,3,0,0,0-.58-1.08,2.77,2.77,0,0,0-1-.73,3.7,3.7,0,0,0-1.39-.28,5.22,5.22,0,0,0-.69,0,3.82,3.82,0,0,0-.66.12l-.38,6.58h.42a6.4,6.4,0,0,0,1.55-.17,4.53,4.53,0,0,0,1.43-.58,3.27,3.27,0,0,0,1-1A2.85,2.85,0,0,0,725.23,250Z"/><path d="M744.06,241.88l-2.33,24.06-7.47.27.38-24Z"/><path d="M766.11,263.54a8.46,8.46,0,0,1-2.08,1.79,13.91,13.91,0,0,1-2.64,1.25,17.47,17.47,0,0,1-2.87.72,17.29,17.29,0,0,1-2.8.21,11.92,11.92,0,0,1-4.71-1,11.14,11.14,0,0,1-3.68-2.59,11.62,11.62,0,0,1-2.39-3.85,12.41,12.41,0,0,1-.81-4.74A16.17,16.17,0,0,1,746,248.1a14.38,14.38,0,0,1,2.06-3,13.11,13.11,0,0,1,2.72-2.32,12.75,12.75,0,0,1,3.32-1.48,12.9,12.9,0,0,1,3.83-.49q.76,0,1.62.09a16.73,16.73,0,0,1,1.73.24,11.58,11.58,0,0,1,1.66.44,8,8,0,0,1,1.48.68l-.61,6.75a8.81,8.81,0,0,0-2-.54,16.29,16.29,0,0,0-2.06-.16,7.67,7.67,0,0,0-2.65.39,6,6,0,0,0-2.16,1.21,5.81,5.81,0,0,0-1.48,2,6.42,6.42,0,0,0-.57,2.62,6.53,6.53,0,0,0,.22,1.78,4.66,4.66,0,0,0,.73,1.54,3.83,3.83,0,0,0,1.24,1.09,3.55,3.55,0,0,0,1.73.43,5.58,5.58,0,0,0,1.39-.15,3.09,3.09,0,0,0,1.24-.58l.1-1.38-4.25-.14.3-5.3c1.76,0,3.51-.06,5.27-.07s3.53,0,5.31-.08Z"/><path d="M785.55,242.16l-.3,7.49-5.27.13-1.62,16.75-7.47.27L771.2,250l-5.28.2.35-8.35Z"/><path d="M796.07,242.71l-2.34,24.07-7.47.26.39-24Z"/><path d="M818.12,264.37a8.43,8.43,0,0,1-2.08,1.79,13.88,13.88,0,0,1-2.64,1.25,16,16,0,0,1-2.88.72,15.3,15.3,0,0,1-2.8.21,11.91,11.91,0,0,1-4.71-1,11.27,11.27,0,0,1-3.68-2.6,11.69,11.69,0,0,1-2.39-3.85,12.77,12.77,0,0,1-.81-4.74,16.45,16.45,0,0,1,.5-3.77,16.2,16.2,0,0,1,1.33-3.46,14.88,14.88,0,0,1,2-3,13.07,13.07,0,0,1,2.73-2.31,12.71,12.71,0,0,1,3.31-1.49,12.94,12.94,0,0,1,3.83-.49c.51,0,1,0,1.63.09a16.93,16.93,0,0,1,1.72.24,13.06,13.06,0,0,1,1.66.44,7.74,7.74,0,0,1,1.48.68l-.6,6.75a9,9,0,0,0-2-.54,16.29,16.29,0,0,0-2.06-.16,7.7,7.7,0,0,0-2.65.39,6.53,6.53,0,0,0-2.16,1.21,5.88,5.88,0,0,0-1.47,2,6.31,6.31,0,0,0-.58,2.63,6.63,6.63,0,0,0,.22,1.78,4.71,4.71,0,0,0,.73,1.53,3.83,3.83,0,0,0,1.24,1.09,3.62,3.62,0,0,0,1.74.44,6.25,6.25,0,0,0,1.39-.16,3,3,0,0,0,1.24-.58l.09-1.38-4.25-.14.3-5.3,5.28-.07c1.75,0,3.52,0,5.3-.08Z"/><path d="M836.56,242.76c-.09,1.11-.17,2.21-.25,3.29s-.17,2.18-.28,3.29l-7.5.27-.22,2.22,5.27.09-.47,5.47-5.31.09-.22,2.58,4.39.07,3.11.05c-.09,1.3-.19,2.59-.28,3.87s-.19,2.56-.27,3.84l-15.25.11,1-25.5Z"/><path d="M320.71,286.43a12.56,12.56,0,0,1-.28,2.5,7.13,7.13,0,0,1-2.14,3.76,11.59,11.59,0,0,1-2,1.49l4.09,7.57-8,1.43-2.61-7.58-2.19,0-.44,7.36-7.6-.13c.1-2.68.2-5.36.3-8s.2-5.34.31-8c0-1.36.09-2.7.14-4s.11-2.68.2-4A22.4,22.4,0,0,1,303,278a22.92,22.92,0,0,1,2.43-.43c.81-.1,1.63-.17,2.46-.19s1.68,0,2.56,0a13.69,13.69,0,0,1,3.89.61,10.18,10.18,0,0,1,3.3,1.73,8.47,8.47,0,0,1,2.29,2.81A8.34,8.34,0,0,1,320.71,286.43Zm-7.93.44a4.63,4.63,0,0,0-.19-1.37,3,3,0,0,0-.58-1.07,2.77,2.77,0,0,0-1-.73,3.6,3.6,0,0,0-1.38-.28,5.12,5.12,0,0,0-.69,0,3.5,3.5,0,0,0-.66.12l-.39,6.57h.42a6.48,6.48,0,0,0,1.56-.17,4.47,4.47,0,0,0,1.42-.58,3.2,3.2,0,0,0,1-1A2.82,2.82,0,0,0,312.78,286.87Z"/><path d="M351.87,278.47c-.09,1.11-.17,2.21-.25,3.29s-.17,2.18-.28,3.29l-7.51.27-.21,2.22,5.27.09-.48,5.47-5.31.1-.21,2.57,7.5.12c-.1,1.3-.19,2.59-.29,3.87s-.18,2.56-.26,3.84l-15.25.11.21-4.38-4.32-.07-1.83,4-8.76-1,13.25-23.35Zm-16.46,15.45.28-6.15-2.93,6.11Z"/><path d="M374.89,279l-8.71,11.64,7,12.64-8.23,1.32-5.25-7.73-.41,8-7.37.17,1-27.09,8.24.59-.77,8,5.62-8.37Z"/><path d="M397.15,279.38,388.43,291l7,12.64L387.18,305l-5.25-7.73-.41,8-7.37.17,1-27.09,8.24.59-.77,8,5.62-8.36Z"/><path d="M413.72,279.47c-.09,1.1-.17,2.2-.25,3.28s-.17,2.18-.28,3.29l-7.5.27-.22,2.22,5.27.09-.47,5.48-5.31.09-.22,2.58,4.39.07,3.11.05c-.09,1.29-.19,2.58-.28,3.86s-.19,2.56-.27,3.84l-15.25.11,1-25.5Z"/><path d="M431.07,279.74c-.08,1.11-.17,2.21-.24,3.29s-.17,2.18-.29,3.29l-7.5.27,0,2.22,6.51.11-.44,5.48-6.19.07L422.74,305l-8.95,0,1-25.5Z"/><path d="M450.89,282.22l-1.1,2.28a10.13,10.13,0,0,1,2.53,3.71,12.33,12.33,0,0,1,.83,4.91,12.2,12.2,0,0,1-.42,3.1,11.87,11.87,0,0,1-1.11,2.78,11.31,11.31,0,0,1-1.74,2.37,10.54,10.54,0,0,1-2.28,1.83,10.72,10.72,0,0,1-2.73,1.17,10.94,10.94,0,0,1-3.12.39l-1,2.74-7-2.87,1-2.46a10,10,0,0,1-1.71-1.78,11.46,11.46,0,0,1-1.28-2.13,11.69,11.69,0,0,1-1-5,12.3,12.3,0,0,1,1.54-5.78,12.22,12.22,0,0,1,1.72-2.38,11.48,11.48,0,0,1,2.26-1.86,10.78,10.78,0,0,1,2.68-1.19,10.08,10.08,0,0,1,3-.39,10.6,10.6,0,0,1,1.14.06,9.36,9.36,0,0,1,1.08.15l1.14-2.18Zm-12.53,10.95a6,6,0,0,0,.09,1.12,3.87,3.87,0,0,0,.34,1.08l2.71-5.94a3.36,3.36,0,0,0-1.3.4,3.73,3.73,0,0,0-1,.83,3.65,3.65,0,0,0-.63,1.15A4.67,4.67,0,0,0,438.36,293.17Zm6.93.28a5,5,0,0,0-.06-.86,4.74,4.74,0,0,0-.23-.84l-2.67,5.58a3.08,3.08,0,0,0,1.22-.47,3.54,3.54,0,0,0,.92-.89,4.31,4.31,0,0,0,.82-2.52Z"/><path d="M469.87,295.79l-.87,7.85-14.92.92q.21-6.17.44-12.27T455,280l9.2.15c-.31,2.58-.61,5.15-.9,7.73s-.51,5.16-.66,7.78l1.65.06,1.64,0h3.9Z"/><path d="M491.94,302.62a8.06,8.06,0,0,1-2.08,1.79,13.33,13.33,0,0,1-2.64,1.25,15.56,15.56,0,0,1-2.88.72,16.17,16.17,0,0,1-2.79.22,11.92,11.92,0,0,1-4.71-1,11,11,0,0,1-3.68-2.6,11.52,11.52,0,0,1-2.39-3.85,12.36,12.36,0,0,1-.81-4.73,16.3,16.3,0,0,1,.5-3.77,16.06,16.06,0,0,1,1.32-3.47,14.58,14.58,0,0,1,2.06-3,12.53,12.53,0,0,1,2.72-2.32,12.66,12.66,0,0,1,7.15-2c.5,0,1.05,0,1.62.08a16.54,16.54,0,0,1,1.72.24,11.74,11.74,0,0,1,1.67.45,8,8,0,0,1,1.48.67l-.61,6.75a8.93,8.93,0,0,0-2-.53,16.34,16.34,0,0,0-2.06-.17,8.13,8.13,0,0,0-2.65.39,6.33,6.33,0,0,0-2.16,1.21,6,6,0,0,0-1.48,2,6.47,6.47,0,0,0-.57,2.63,6.21,6.21,0,0,0,.22,1.78,4.52,4.52,0,0,0,.73,1.53,3.83,3.83,0,0,0,1.24,1.09,3.55,3.55,0,0,0,1.73.44,5.65,5.65,0,0,0,1.39-.16,3,3,0,0,0,1.24-.58l.09-1.38-4.24-.13.3-5.31c1.76,0,3.51-.05,5.27-.06s3.53,0,5.31-.09Z"/><path d="M510.39,281c-.09,1.11-.17,2.21-.25,3.29s-.17,2.18-.28,3.29l-7.51.27-.21,2.22,5.27.09-.48,5.48-5.31.09-.21,2.58,4.38.07,3.12.05c-.1,1.29-.19,2.58-.29,3.86s-.18,2.56-.26,3.84l-15.26.11,1-25.5Z"/><path d="M517.48,303a3.3,3.3,0,0,1-.32,1.44,3.91,3.91,0,0,1-.82,1.17,3.64,3.64,0,0,1-1.19.77,3.48,3.48,0,0,1-1.44.27,3.69,3.69,0,0,1-1.45-.31,4,4,0,0,1-1.16-.82,3.72,3.72,0,0,1-.78-1.19,3.86,3.86,0,0,1-.27-1.45,3.78,3.78,0,0,1,.32-1.45,3.63,3.63,0,0,1,.82-1.18,3.93,3.93,0,0,1,1.19-.79,3.66,3.66,0,0,1,2.88.05,4,4,0,0,1,1.16.82,4.15,4.15,0,0,1,.79,1.21A3.61,3.61,0,0,1,517.48,303Z"/><path d="M298.9,396.2a11.91,11.91,0,0,1-1.09,5.07,10.13,10.13,0,0,1-2.81,3.57,12,12,0,0,1-4.13,2.1,17,17,0,0,1-5.06.64,10.89,10.89,0,0,1-2.27-.31c-.83-.2-1.66-.44-2.51-.73s-1.66-.6-2.44-.93-1.47-.65-2.07-.94l1.07-8.73a15,15,0,0,0,4,1.71,17.15,17.15,0,0,0,4.31.63c.27,0,.59,0,1,0a4.86,4.86,0,0,0,1.1-.18,2.35,2.35,0,0,0,.89-.46,1.15,1.15,0,0,0,.37-.91A.94.94,0,0,0,289,396a1.78,1.78,0,0,0-.65-.48,4.42,4.42,0,0,0-.91-.29,9.15,9.15,0,0,0-1-.15,7.59,7.59,0,0,0-.92-.06h-.68a8.43,8.43,0,0,1-3.31-.69,7.74,7.74,0,0,1-2.54-1.81,8.11,8.11,0,0,1-1.62-2.73,9.39,9.39,0,0,1-.54-3.39,9.91,9.91,0,0,1,1.08-4.48,10.45,10.45,0,0,1,2.75-3.33,12.11,12.11,0,0,1,3.91-2.07,14.09,14.09,0,0,1,4.53-.67c.69,0,1.41.05,2.14.11a20.4,20.4,0,0,1,2.2.3,21.15,21.15,0,0,1,2.12.52,12.51,12.51,0,0,1,2,.78l-.94,8.6a25.05,25.05,0,0,0-3-.86,14.5,14.5,0,0,0-3.09-.38h-.71c-.29,0-.59,0-.91.05a8.4,8.4,0,0,0-1,.14,4.47,4.47,0,0,0-.87.27,1.68,1.68,0,0,0-.63.47,1.1,1.1,0,0,0,.12,1.46,2.39,2.39,0,0,0,.84.46,6,6,0,0,0,1.14.24c.42.05.83.08,1.24.09l1.15,0a7.06,7.06,0,0,1,.87,0,8.56,8.56,0,0,1,3,.78,7,7,0,0,1,2.28,1.67,6.74,6.74,0,0,1,1.4,2.45A9.2,9.2,0,0,1,298.9,396.2Z"/><path d="M327.46,377.55l-10.46,14,8.38,15.17-9.88,1.58L309.2,399l-.49,9.58-8.84.2,1.2-32.5L311,377l-.92,9.58,6.75-10Z"/><path d="M353.56,406.54,343,407.73l-1.2-4.81-4.84-.08-1.14,4.78L325,406.38l8.9-28.13,11.82-.41Zm-12.41-10.13-1.5-7.41L338,396.36Z"/><path d="M372.82,396.58l-1,9.41-17.89,1.11q.24-7.41.52-14.72c.18-4.89.39-9.79.63-14.73l11,.18q-.57,4.64-1.09,9.27c-.34,3.09-.61,6.2-.78,9.34.66,0,1.32.06,2,.07l2,0c.8,0,1.57,0,2.34,0S372,396.56,372.82,396.58Z"/><path d="M408.55,379.49l-8.24,29.42-10.54.42-9.07-30,10.08-.78L394.57,396l4.23-17.34Z"/><path d="M420.7,379.55l-2.8,28.87-9,.33L409.4,380Z"/><path d="M455.23,389.57a10,10,0,0,1-.68,3.65,8.92,8.92,0,0,1-1.73,2.75,10.38,10.38,0,0,1-2.55,2,15.89,15.89,0,0,1-3.11,1.29,20.23,20.23,0,0,1-3.41.71,25.73,25.73,0,0,1-3.47.21l-.16,9.89-9.89-.15q.07-4.86.18-9.68c.06-3.22.14-6.45.22-9.72.05-1.73.09-3.46.1-5.18s.08-3.47.19-5.22a40.93,40.93,0,0,1,5.45-1.13,39.73,39.73,0,0,1,5.61-.31,21.3,21.3,0,0,1,3.27.32,15.71,15.71,0,0,1,3.12.89,14.17,14.17,0,0,1,2.75,1.47,9.68,9.68,0,0,1,2.19,2.09,9.34,9.34,0,0,1,1.43,2.73A10.23,10.23,0,0,1,455.23,389.57Zm-9.44.57A2.76,2.76,0,0,0,445,388a3,3,0,0,0-2.17-.81,4.9,4.9,0,0,0-.92.06c-.32,0-.62.1-.91.16l-.35,6.2a3.88,3.88,0,0,0,.57.05h.58a4.36,4.36,0,0,0,1.48-.23,4,4,0,0,0,1.27-.72,3.73,3.73,0,0,0,.9-1.11A3.23,3.23,0,0,0,445.79,390.14Z"/><path d="M481.27,390a15.13,15.13,0,0,1-.33,3,9.44,9.44,0,0,1-.94,2.46,9.25,9.25,0,0,1-1.63,2,14.17,14.17,0,0,1-2.39,1.79l4.91,9.08L471.31,410,468.19,401l-2.64,0-.52,8.83-9.13-.15q.18-4.85.36-9.63t.38-9.64c.05-1.62.1-3.23.16-4.83s.13-3.21.25-4.84a28.66,28.66,0,0,1,2.94-.87,29,29,0,0,1,2.91-.51c1-.12,2-.2,3-.23s2,0,3.07,0a16.59,16.59,0,0,1,4.67.75,12.21,12.21,0,0,1,4,2.07,10,10,0,0,1,2.73,3.37A9.85,9.85,0,0,1,481.27,390Zm-9.52.53a5,5,0,0,0-.22-1.64,3.38,3.38,0,0,0-1.87-2.17,4.23,4.23,0,0,0-1.66-.33,7.45,7.45,0,0,0-.83,0,5.24,5.24,0,0,0-.79.15l-.47,7.89h.51a7.48,7.48,0,0,0,1.86-.21,5.43,5.43,0,0,0,1.71-.69,4,4,0,0,0,1.26-1.24A3.4,3.4,0,0,0,471.75,390.48Z"/><path d="M505.87,382.79l-1.32,2.73a12.26,12.26,0,0,1,3,4.45,16,16,0,0,1,.49,9.61,14.66,14.66,0,0,1-1.34,3.35,14.1,14.1,0,0,1-2.08,2.84,13.38,13.38,0,0,1-2.73,2.2,13.51,13.51,0,0,1-3.28,1.4,13.16,13.16,0,0,1-3.75.46l-1.24,3.29-8.44-3.45,1.24-2.95a12.16,12.16,0,0,1-2.06-2.12,13.61,13.61,0,0,1-2.48-5.46,13.64,13.64,0,0,1-.3-3.15,15.12,15.12,0,0,1,.5-3.62,15.29,15.29,0,0,1,1.34-3.32,14.63,14.63,0,0,1,2.07-2.85,13.14,13.14,0,0,1,2.71-2.23,12.91,12.91,0,0,1,3.21-1.44,12.5,12.5,0,0,1,3.64-.47c.47,0,.93,0,1.37.07s.88.11,1.3.19l1.36-2.61Zm-15,13.13a7.68,7.68,0,0,0,.11,1.35,5.22,5.22,0,0,0,.4,1.29l3.26-7.12a4,4,0,0,0-1.56.48,4.28,4.28,0,0,0-1.17,1,4.38,4.38,0,0,0-.75,1.38A5.22,5.22,0,0,0,490.83,395.92Zm8.32.35a5.11,5.11,0,0,0-.08-1,5.89,5.89,0,0,0-.27-1l-3.2,6.7a3.72,3.72,0,0,0,1.46-.57,4.15,4.15,0,0,0,1.11-1.06,5.19,5.19,0,0,0,.71-1.41A5.38,5.38,0,0,0,499.15,396.27Z"/><path d="M535,381.51l-8.24,29.42-10.54.43-9.07-30,10.08-.77L521,398.06l4.23-17.34Z"/><path d="M555.77,381c-.11,1.32-.21,2.64-.3,3.94s-.21,2.62-.34,3.94l-9,.33-.25,2.67,6.32.1-.57,6.57-6.37.11-.26,3.1,5.26.08,3.74.06c-.11,1.56-.23,3.1-.34,4.63s-.23,3.08-.32,4.62l-18.3.13,1.17-30.6Z"/><path d="M576.43,382.05l-2.8,28.87-9,.32.46-28.78Z"/><path d="M602.89,408a9.69,9.69,0,0,1-2.5,2.15,15.81,15.81,0,0,1-3.16,1.5,20.62,20.62,0,0,1-3.46.87,18.76,18.76,0,0,1-3.36.25,14.26,14.26,0,0,1-5.64-1.19,13.47,13.47,0,0,1-4.42-3.12,14,14,0,0,1-2.87-4.62,15.05,15.05,0,0,1-1-5.68,19.54,19.54,0,0,1,.6-4.53,19.17,19.17,0,0,1,1.59-4.15,17.7,17.7,0,0,1,2.46-3.57A15.26,15.26,0,0,1,593,380.79c.61,0,1.26,0,2,.1s1.38.16,2.07.29a14.55,14.55,0,0,1,2,.53,9.6,9.6,0,0,1,1.77.81l-.72,8.1a10.83,10.83,0,0,0-2.44-.64,19.25,19.25,0,0,0-2.47-.2,9.46,9.46,0,0,0-3.18.47,7.6,7.6,0,0,0-2.6,1.45,7.26,7.26,0,0,0-1.76,2.35,8,8,0,0,0-.43,5.29,5.59,5.59,0,0,0,.87,1.84,4.58,4.58,0,0,0,1.49,1.31,4.25,4.25,0,0,0,2.08.52,6.94,6.94,0,0,0,1.67-.18,3.67,3.67,0,0,0,1.49-.7l.11-1.65-5.09-.17.36-6.36q3.15-.06,6.32-.08c2.11,0,4.24-.05,6.37-.1Z"/><path d="M625,382.11c-.11,1.32-.21,2.64-.3,3.94s-.21,2.62-.34,3.94l-9,.33-.25,2.67,6.32.1-.57,6.57-6.37.11-.26,3.1,5.26.08,3.74.06c-.11,1.56-.23,3.1-.34,4.63s-.23,3.08-.32,4.62l-18.3.13,1.17-30.6Z"/><path d="M654.61,382.75l-2,28.76-11.14.84-5.69-15.51-1.19,15.7-9.55-.16,1.25-30.08,10.62-.34,7.1,15.4.57-14.43Z"/><path d="M677.12,405.28l-7.18-.12a11.81,11.81,0,0,1,.32-3.76,8,8,0,0,1,1.13-2.51,6.55,6.55,0,0,1,1.58-1.61,17.17,17.17,0,0,1,1.69-1.06c.55-.29,1-.58,1.46-.85a2.27,2.27,0,0,0,.88-1.05,1.79,1.79,0,0,0,.09-.88,1.72,1.72,0,0,0-.42-.95,2.75,2.75,0,0,0-1.09-.77,4.77,4.77,0,0,0-1.89-.34,14.06,14.06,0,0,0-1.82.11,18.92,18.92,0,0,0-2.2.39,22.8,22.8,0,0,0-2.28.66,12.55,12.55,0,0,0-2,.91l-.8-8.33c.53-.31,1.13-.62,1.79-.94a15.87,15.87,0,0,1,2.19-.86,19.92,19.92,0,0,1,2.6-.6,16.16,16.16,0,0,1,3-.21,16.79,16.79,0,0,1,4.92.8,12.24,12.24,0,0,1,4,2.19,10.22,10.22,0,0,1,2.71,3.49,10.38,10.38,0,0,1,.94,4.72,7.76,7.76,0,0,1-.62,3.23,6.1,6.1,0,0,1-1.5,2,8.8,8.8,0,0,1-2,1.29c-.74.34-1.46.71-2.17,1.12a9.09,9.09,0,0,0-2,1.51A5.86,5.86,0,0,0,677.12,405.28Zm1,5.62a4.18,4.18,0,0,1-.39,1.73,4.67,4.67,0,0,1-1,1.4,4.47,4.47,0,0,1-1.43.93,4.31,4.31,0,0,1-1.72.32,4.25,4.25,0,0,1-1.74-.38,4.45,4.45,0,0,1-2.32-2.4,4.23,4.23,0,0,1-.33-1.75,4.54,4.54,0,0,1,1.36-3.15,4.8,4.8,0,0,1,1.43-.94,4.39,4.39,0,0,1,3.46,0,4.63,4.63,0,0,1,1.39,1,4.48,4.48,0,0,1,.94,1.45A4.2,4.2,0,0,1,678.09,410.9Z"/><path class="cls-3" d="M257.43,331.28c-6.84-54.61-57-93.63-112.11-87.15-2.25.27-4.47.63-6.67,1l-10.33-53.63L88.59,218.33c-.34-6.87-2.06-15.12-7.68-20-5.12-4.4-12.25-5.2-21.19-2.4-4.24,1.33-7.36,1.41-8.56.2-2.82-2.85-.42-12.69,2.08-20.7L56,172.33l7.36,17.8,2.69-19,15.89,11.08-8.12-17.48,19.37.84L76.83,155.16l16.7-9.66-19.38,0,8.73-17.11L66.61,138.72l-2-19.11-8,17.45L44.49,122l2.83,19L29,134.81l12.74,14.53-18.79,4.6,18.62,5.44-13.25,14L46.84,168l-1.44,7.78c-3,10.08-4.74,20.27.5,25.56,3.37,3.41,8.79,4,16.09,1.68,6.32-2,11.05-1.67,14.09.93,4.65,4,5.42,12.93,5.16,19.39L29.43,258.23l45.3,28.2A98.14,98.14,0,0,0,58,354.75c6.84,54.61,57,93.63,112.11,87.15S264.26,385.9,257.43,331.28Z"/><g class="cls-4"><path class="cls-2" d="M233,350.5a5,5,0,0,1-5-5,72.08,72.08,0,0,0-72-72,5,5,0,0,1,0-10,82.1,82.1,0,0,1,82,82A5,5,0,0,1,233,350.5Z"/></g></g></svg>
