<svg xmlns="http://www.w3.org/2000/svg" width="1920" height="1080" viewBox="0 0 1920 1080"><defs><style>.cls-1{fill:#eeeaea;}.cls-2{fill:#729f95;}.cls-3{fill:#666;}.cls-4{fill:#b2afaf;}.cls-5{fill:#333;}.cls-6{fill:#d6d6d9;}.cls-7{fill:#6affc8;}.cls-8{fill:#ff15e4;}.cls-9{fill:#fffe3f;}.cls-10{fill:#72440c;}.cls-11{fill:#935d2c;}.cls-12{fill:#56320a;}.cls-13{fill:#140c02;}.cls-14{fill:#ffe0bd;}.cls-15{fill:#ffcd94;}.cls-16{fill:#fff;}.cls-17{fill:#8f8f8f;}.cls-18{fill:#bfbfbf;}.cls-19{fill:#ea2828;}.cls-20{fill:#807870;}.cls-21{fill:#f7f6f5;}.cls-22{opacity:0.35;}.cls-23{fill:#bfb5a8;}.cls-24{fill:#fff6f5;}.cls-25{opacity:0.31;}.cls-26{fill:#e9c185;}.cls-27{fill:#d2ad84;}.cls-28{fill:#663d0c;}.cls-29{fill:#5e3908;}.cls-30{fill:#0029ae;}.cls-31{fill:#352006;}.cls-32{opacity:0.7;}.cls-33{fill:#eee9e5;}.cls-34{opacity:0.54;}.cls-35{fill:#724617;}.cls-36{fill:#e9003e;}.cls-37{fill:#a4ff7f;}.cls-38{fill:#deff3f;}.cls-39{fill:#d2ff15;}.cls-40{fill:#ff7712;}.cls-41{fill:#ff2a3b;}.cls-42{fill:#ff7f98;}.cls-43{fill:#ff6a90;}.cls-44{fill:#4ce80c;}.cls-45{fill:#2aeeff;}.cls-46{fill:#3fbcff;}.cls-47{fill:#2ac0ff;}.cls-48{fill:#6ab2ff;}.cls-49{fill:#fff63f;}.cls-50{fill:#b600e7;}.cls-51{fill:#ff6adc;}.cls-52{fill:#ff2aa0;}.cls-53{fill:#ff3f9a;}.cls-54{fill:#ed0cc2;}</style></defs><title>intro_skaerm</title><g id="intro_skærm"><path class="cls-1" d="M282.85,581.54a71.55,71.55,0,1,1-103.51,92.57l-21.48,19.2a99.75,99.75,0,1,0,146.47-131Z"/><rect class="cls-1" x="151.76" y="738.59" width="178.99" height="12.41"/><rect class="cls-1" x="111" y="659.73" width="120.51" height="9.75"/><rect class="cls-1" x="204.58" y="546.7" width="173.22" height="44.7" transform="translate(-295.33 314.88) rotate(-39.47)"/><rect class="cls-1" x="356.19" y="500.15" width="17.04" height="16.89" transform="translate(-240.13 347.83) rotate(-39.47)"/><rect class="cls-1" x="355.53" y="495.04" width="37.75" height="11.92" transform="translate(523.14 -106.5) rotate(50.53)"/><rect class="cls-2" x="215.58" y="597.56" width="43.17" height="31.79" transform="translate(559.95 40.41) rotate(50.53)"/><circle class="cls-2" cx="294.46" cy="566.46" r="20.86"/><circle class="cls-3" cx="294.83" cy="567.05" r="10.43"/><circle class="cls-2" cx="169.48" cy="688.09" r="18.61"/><circle class="cls-3" cx="169.04" cy="687.65" r="9.3"/><path class="cls-4" d="M330.74,738.59a39.42,39.42,0,0,0-78.84,0Z"/><circle class="cls-3" cx="291.32" cy="724.86" r="9.3"/><rect class="cls-5" x="581" y="738" width="221.29" height="11" rx="5.5" ry="5.5"/><path class="cls-6" d="M732.53,600V710.49c0,10.18,5.92,18.51,13.15,18.51h0c7.23,0,13.14-8.33,13.14-18.51V600Z"/><path class="cls-6" d="M624.53,600V710.49c0,10.18,5.92,18.51,13.15,18.51h0c7.23,0,13.14-8.33,13.14-18.51V600Z"/><path class="cls-6" d="M678.53,600V710.49c0,10.18,5.92,18.51,13.15,18.51h0c7.23,0,13.14-8.33,13.14-18.51V600Z"/><rect class="cls-5" x="598.13" y="600" width="11.42" height="139" rx="5.71" ry="5.71"/><rect class="cls-5" x="773.02" y="600" width="11.42" height="139" rx="5.71" ry="5.71"/><path class="cls-7" d="M683,619v86.51c0,8,3.82,14.49,8.5,14.49h0c4.68,0,8.5-6.52,8.5-14.49V619Z"/><rect class="cls-5" x="576" y="631" width="227" height="7" rx="3.5" ry="3.5"/><path class="cls-8" d="M630.23,650v62.52c0,5.77,3.33,10.48,7.39,10.48h0c4.06,0,7.38-4.71,7.38-10.48V650Z"/><path class="cls-9" d="M738.51,680v36.83c0,3.39,3,6.17,6.75,6.17h0c3.7,0,6.74-2.78,6.74-6.17V680Z"/><rect class="cls-10" x="129" y="804" width="1694" height="187"/><rect class="cls-11" x="94" y="755" width="1764" height="59"/><rect class="cls-12" x="126" y="814" width="1694" height="54"/><path class="cls-13" d="M405.36,679.68H579.48a0,0,0,0,1,0,0V718A26.48,26.48,0,0,1,553,744.48H436.56a31.21,31.21,0,0,1-31.21-31.21v-33.6A0,0,0,0,1,405.36,679.68Z"/><path class="cls-14" d="M457,920.77a23.87,23.87,0,0,1-6.78-1V977.1c0,8.45,6.1,15.36,13.55,15.36s13.56-6.91,13.56-15.36V919a24,24,0,0,1-9,1.8Z"/><path class="cls-15" d="M463.76,882.37c-7.45,0-13.55,6.91-13.55,15.36v22a23.87,23.87,0,0,0,6.78,1h11.29a24,24,0,0,0,9-1.8V897.73C477.32,889.28,471.22,882.37,463.76,882.37Z"/><path class="cls-14" d="M516.12,920.77a23.87,23.87,0,0,1-6.78-1V977.1c0,8.45,6.1,15.36,13.55,15.36s13.56-6.91,13.56-15.36V919a24,24,0,0,1-9,1.8Z"/><path class="cls-15" d="M522.89,882.37c-7.45,0-13.55,6.91-13.55,15.36v22a23.87,23.87,0,0,0,6.78,1h11.29a24,24,0,0,0,9-1.8V897.73C536.45,889.28,530.35,882.37,522.89,882.37Z"/><rect class="cls-16" x="445.69" y="974.44" width="33.88" height="47.29"/><rect class="cls-16" x="504.82" y="974.44" width="33.88" height="47.29"/><rect class="cls-17" x="439.95" y="985.71" width="24.21" height="41.84" rx="4" ry="4"/><path class="cls-17" d="M485.5,1029.36a28.23,28.23,0,0,0-27.16-19.86,28.63,28.63,0,0,0-14.56,3.93,36,36,0,0,1,9.05,15.93Z"/><path class="cls-18" d="M431.18,1029.36h21.65a36,36,0,0,0-9.05-15.93A27.84,27.84,0,0,0,431.18,1029.36Z"/><path class="cls-13" d="M442.43,1033a27.54,27.54,0,0,1,.86-3.64H392.78A33.6,33.6,0,0,0,392,1033Z"/><path class="cls-18" d="M455.88,1013.43a37.52,37.52,0,0,0-27-11.35,37.1,37.1,0,0,0-36.08,27.28h50.51A27.78,27.78,0,0,1,455.88,1013.43Z"/><path class="cls-13" d="M465.43,1033h20.92c-.12-1.25-.31-2.45-.54-3.64H464.94C465.14,1030.55,465.31,1031.76,465.43,1033Z"/><path class="cls-13" d="M443.29,1029.36a27.54,27.54,0,0,0-.86,3.64h23.28a36.14,36.14,0,0,0-.77-3.64Z"/><rect class="cls-17" x="500.6" y="985.71" width="24.21" height="41.84" rx="4" ry="4"/><path class="cls-17" d="M546.15,1029.36A28.22,28.22,0,0,0,519,1009.5a28.63,28.63,0,0,0-14.56,3.93,36,36,0,0,1,9.05,15.93Z"/><path class="cls-18" d="M491.83,1029.36h21.65a36,36,0,0,0-9.05-15.93A27.84,27.84,0,0,0,491.83,1029.36Z"/><path class="cls-13" d="M503.09,1033a26,26,0,0,1,.85-3.64H453.43a33.6,33.6,0,0,0-.78,3.64Z"/><path class="cls-18" d="M516.54,1013.43a37.56,37.56,0,0,0-27-11.35,37.1,37.1,0,0,0-36.08,27.28h50.51A27.76,27.76,0,0,1,516.54,1013.43Z"/><path class="cls-13" d="M526.08,1033H547c-.12-1.25-.31-2.45-.54-3.64H525.59C525.79,1030.55,526,1031.76,526.08,1033Z"/><path class="cls-13" d="M503.94,1029.36a26,26,0,0,0-.85,3.64h23.28c-.2-1.24-.47-2.45-.78-3.64Z"/><rect class="cls-19" x="394.69" y="490.89" width="194.96" height="224.74" rx="19.92" ry="19.92"/><rect class="cls-13" x="444.96" y="730.81" width="41.12" height="182.37" rx="12" ry="12"/><rect class="cls-13" x="499.79" y="730.81" width="41.12" height="179.19" rx="12" ry="12"/><rect class="cls-20" x="440.39" y="896.73" width="50.26" height="16.45"/><rect class="cls-20" x="498.26" y="896.73" width="50.26" height="16.45"/><path class="cls-21" d="M360.35,589.2l27.8,10.09a5.69,5.69,0,0,1,3.41,7.29L351.25,717a5.73,5.73,0,0,1-7.32,3.41l-27.8-10.1a5.69,5.69,0,0,1-3.41-7.29L353,592.6A5.72,5.72,0,0,1,360.35,589.2Z"/><path class="cls-21" d="M406.68,485.93l12.57,4.56a15.1,15.1,0,0,1,9,19.3L388.92,617.54a15.15,15.15,0,0,1-19.36,9L357,622a15.09,15.09,0,0,1-9-19.3l39.35-107.74A15.16,15.16,0,0,1,406.68,485.93Z"/><path class="cls-14" d="M329.7,739.48l-12.77-4.88a2.64,2.64,0,0,1-1.52-3.4l13.06-33.91a2.65,2.65,0,0,1,3.41-1.51l12.77,4.89a2.64,2.64,0,0,1,1.52,3.4L333.11,738A2.65,2.65,0,0,1,329.7,739.48Z"/><path class="cls-14" d="M322.58,773.2l-23-8.8a4.74,4.74,0,0,1-2.73-6.12l15.62-40.56a4.77,4.77,0,0,1,6.14-2.72l23,8.8a4.74,4.74,0,0,1,2.74,6.11l-15.62,40.57A4.78,4.78,0,0,1,322.58,773.2Z"/><rect class="cls-15" x="325.4" y="733.72" width="15.16" height="30.24" rx="2" ry="2" transform="translate(-112.69 61.08) rotate(-8.97)"/><path class="cls-21" d="M562.46,486.68l-10.06,5.13a16.12,16.12,0,0,0-7,21.65l51.43,100.25a16.21,16.21,0,0,0,21.72,7l10.06-5.13c7.9-4,11.06-13.77,7.36-21L584.52,494.35C580.14,485.8,570.37,482.65,562.46,486.68Z"/><path class="cls-21" d="M601.84,617.5l9.9,16.89a10.74,10.74,0,0,0,14.63,3.83L719.5,584a10.67,10.67,0,0,0,3.84-14.58l-9.9-16.89a10.75,10.75,0,0,0-14.63-3.83l-93.13,54.24A10.68,10.68,0,0,0,601.84,617.5Z"/><path class="cls-14" d="M739.59,552.07l-1.93-3.16a7.66,7.66,0,0,0-10.47-2.55l-22.61,13.7A7.6,7.6,0,0,0,702,570.5l1.93,3.16a7.65,7.65,0,0,0,10.47,2.55L737,562.51A7.6,7.6,0,0,0,739.59,552.07Z"/><path class="cls-14" d="M771.59,539.06,764,526.58a9.78,9.78,0,0,0-13.37-3.26l-28.73,17.41a9.72,9.72,0,0,0-3.26,13.33l7.61,12.49a9.79,9.79,0,0,0,13.38,3.25l28.72-17.4A9.73,9.73,0,0,0,771.59,539.06Z"/><path class="cls-15" d="M741.15,521.07l-.93-.28a7.13,7.13,0,0,0-8.88,4.66l-4.76,15.38a7.09,7.09,0,0,0,4.68,8.85l.93.28a7.13,7.13,0,0,0,8.88-4.67l4.76-15.37A7.08,7.08,0,0,0,741.15,521.07Z"/><path class="cls-21" d="M391.65,515.19c-.32-3.9-.19-12.81,0-12.15,0,0,3-4.53,3-4.56,8.89-7.38,18.56-15.62,53.84-11.31a11.81,11.81,0,0,1,10.13,10.17c3.19,22.22,9.24,84.48-7.72,162.45-16.45,75.58,5.14,197.77,15.9,249.79,2,9.56-7.5,17.35-16.3,13.42-19.31-8.62-46.65-17.06-61.09-4.39-22.95,20.13.59-221.23,2.4-239.44a12.21,12.21,0,0,0,0-2.18Z"/><path class="cls-21" d="M539.83,492.32s-13.13-3.24-23.14,61.24,17.69,116.3,17.69,116.3,17.07,67.8,19.92,97.42c0,0-8.64,142-28.21,154.23s57-10.73,57-10.73S603,895.83,602.44,862.3c0,0-.11-169.63-3.79-190.79-.46-2.63-.65-5.19-1.76-7.64-12.39-27.31,3-153.56-18.39-168.42C560.77,483.1,542.68,491.66,539.83,492.32Z"/><g class="cls-22"><path class="cls-23" d="M545.44,497.24s0,24.34,24.41,34.92c0,0-60.51,36-53.08,55,0,0-9.55-63.5,15.93-90"/></g><path class="cls-24" d="M545.44,490.89s0,24.34,24.41,34.92c0,0-60.51,36-53.08,55,0,0-9.55-63.5,15.93-90"/><g class="cls-22"><path class="cls-23" d="M441.07,493.07s-2.08,21.35-24.4,28.56c0,0,50,36.7,41.85,52.78,0,0,13.81-54.89-6.28-80.26"/></g><path class="cls-24" d="M441.61,487.5s-2.08,21.35-24.4,28.56c0,0,50,36.7,41.85,52.78,0,0,13.81-54.89-6.28-80.26"/><rect class="cls-15" x="475.42" y="410.41" width="30.46" height="110.85" rx="10" ry="10"/><ellipse class="cls-14" cx="352.54" cy="382.75" rx="23.44" ry="31.12" transform="translate(-166.59 418.5) rotate(-51.29)"/><ellipse class="cls-15" cx="352.58" cy="382.78" rx="14.27" ry="18.94" transform="translate(-166.6 418.54) rotate(-51.29)"/><g id="øre" class="cls-25"><ellipse class="cls-26" cx="616.67" cy="345.99" rx="31.69" ry="25.19" transform="translate(-25.56 641.85) rotate(-54.03)"/><ellipse class="cls-27" cx="616.69" cy="345.95" rx="19.29" ry="15.33" transform="translate(-25.52 641.86) rotate(-54.03)"/></g><g id="hovede"><path class="cls-14" d="M347.94,371s20.4,66.11,54.07,82.39,33.66,25.43,125.48,20.34c0,0,69.37-22.38,90.8-85.44s-7.14-113.92-7.14-113.92-18.37-80.35-130.59-61C480.56,213.39,301,233.73,347.94,371Z"/></g><ellipse class="cls-28" cx="490.76" cy="175.75" rx="44.89" ry="44.75"/><ellipse class="cls-29" cx="544.32" cy="179.82" rx="30.52" ry="28.05" transform="translate(227.77 657.75) rotate(-74.76)"/><ellipse class="cls-29" cx="596.86" cy="210.34" rx="44.89" ry="44.75"/><ellipse class="cls-29" cx="618.08" cy="263.37" rx="47.67" ry="39.96" transform="translate(-53.75 269.14) rotate(-23.57)"/><ellipse class="cls-28" cx="640.22" cy="313.57" rx="42.34" ry="42.21"/><ellipse class="cls-29" cx="428.53" cy="175.75" rx="44.89" ry="44.75"/><ellipse class="cls-29" cx="365.28" cy="195.59" rx="52.03" ry="54.42"/><ellipse class="cls-28" cx="331.62" cy="276.45" rx="44.89" ry="44.75"/><ellipse class="cls-29" cx="294.89" cy="295.77" rx="44.89" ry="44.75"/><ellipse class="cls-29" cx="320.39" cy="340.53" rx="44.89" ry="44.75"/><ellipse class="cls-29" cx="544.83" cy="235.76" rx="44.89" ry="44.75"/><ellipse class="cls-29" cx="610.13" cy="276.45" rx="44.89" ry="44.75"/><ellipse class="cls-28" cx="335.7" cy="331.37" rx="44.89" ry="44.75"/><ellipse class="cls-29" cx="380.58" cy="283.57" rx="44.89" ry="44.75"/><ellipse class="cls-29" cx="442.82" cy="283.06" rx="25.49" ry="26.97" transform="translate(-78.23 214.35) rotate(-25.08)"/><ellipse class="cls-29" cx="483.62" cy="246.95" rx="44.89" ry="44.75"/><ellipse class="cls-29" cx="431.59" cy="231.69" rx="44.89" ry="44.75"/><g id="øje"><ellipse class="cls-16" cx="564.73" cy="355.28" rx="37.24" ry="37.12"/><ellipse class="cls-30" cx="568.81" cy="362.9" rx="24.99" ry="29.5"/><ellipse cx="575.95" cy="369.51" rx="17.85" ry="21.87"/><ellipse class="cls-16" cx="576.46" cy="356.8" rx="6.12" ry="6.1"/></g><g id="øje-2" data-name="øje"><ellipse class="cls-16" cx="413.74" cy="367.48" rx="37.24" ry="37.12"/><ellipse class="cls-30" cx="417.82" cy="375.11" rx="24.99" ry="29.5"/><ellipse cx="424.96" cy="381.72" rx="17.85" ry="21.87"/><ellipse class="cls-16" cx="425.47" cy="371.04" rx="6.12" ry="6.1"/></g><g id="øjenbryn"><path class="cls-31" d="M447.1,326.48a2.47,2.47,0,0,1-2-1c-6.78-8.56-16.1-12.21-27.75-10.83a50.42,50.42,0,0,0-16.06,4.86,2.5,2.5,0,0,1-2.39-4.39c.31-.17,31.23-16.62,50.12,7.26a2.5,2.5,0,0,1-.41,3.51A2.46,2.46,0,0,1,447.1,326.48Z"/></g><g id="øjenbryn-2" data-name="øjenbryn"><path class="cls-31" d="M521.54,317.33a2.5,2.5,0,0,1-2-4.05c18.89-23.88,49.81-7.43,50.12-7.26a2.5,2.5,0,1,1-2.39,4.39h0a50,50,0,0,0-16.06-4.86c-11.64-1.38-21,2.26-27.75,10.83A2.5,2.5,0,0,1,521.54,317.33Z"/></g><g id="briller"><g class="cls-32"><path class="cls-13" d="M484.09,355.42l-2.48-1.68c.16-.24,4-5.8,9.79-6.19,3.46-.23,6.78,1.4,9.88,4.85l-2.24,2c-2.44-2.73-5-4-7.44-3.86C487.25,350.83,484.12,355.38,484.09,355.42Z"/></g><g class="cls-22"><ellipse class="cls-33" cx="571.36" cy="346.12" rx="71.41" ry="71.71"/><path d="M571.36,419.33c-40.2,0-72.91-32.84-72.91-73.21s32.71-73.21,72.91-73.21,72.91,32.84,72.91,73.21S611.56,419.33,571.36,419.33Zm0-143.42c-38.55,0-69.91,31.5-69.91,70.21s31.36,70.21,69.91,70.21,69.91-31.5,69.91-70.21S609.91,275.91,571.36,275.91Z"/></g><g class="cls-22"><ellipse class="cls-33" cx="411.19" cy="354.26" rx="71.41" ry="71.71"/><path d="M411.19,427.46c-40.2,0-72.91-32.84-72.91-73.2s32.71-73.21,72.91-73.21,72.91,32.84,72.91,73.21S451.39,427.46,411.19,427.46Zm0-143.41c-38.55,0-69.91,31.5-69.91,70.21s31.36,70.2,69.91,70.2S481.1,393,481.1,354.26,449.74,284.05,411.19,284.05Z"/></g><g class="cls-34"><path class="cls-16" d="M394.81,314.73c-11,6.72-20.12,13.52-24.62,27.5-1.42,4.34-4.51,7.36-8,4.19h0c-3.45-3.15-5.9-11.21-4.33-15,4.93-12.55,14.65-17,27-21.52a22.68,22.68,0,0,1,12.1,0h0C399.39,310.76,398.14,312.64,394.81,314.73Z"/></g><g class="cls-34"><path class="cls-16" d="M553,302.64c-10.49,6-19.25,12.17-23.87,25.28-1.45,4.06-4.44,6.83-7.62,3.71h0c-3.14-3.1-5.21-10.83-3.62-14.4,5-11.74,14.21-15.64,25.88-19.54a21.05,21.05,0,0,1,11.34.36h0C557.42,299,556.18,300.76,553,302.64Z"/></g></g><path class="cls-27" d="M495.79,403.86c-10.68,0-20.3-9.62-20.73-10.06L477.9,391c.1.1,10,9.95,19.49,8.78,4.33-.54,8.05-3.36,11-8.39l3.44,2c-3.66,6.16-8.38,9.63-14,10.32A18,18,0,0,1,495.79,403.86Z"/><path d="M495.15,441.53c-13.76,1.48-26.82-6.21-35.23-19,5.38,18.58,20.32,31.31,36.37,29.59s27.95-17.32,29.24-36.62C520.05,429.78,508.92,440.06,495.15,441.53Z"/><path class="cls-35" d="M335.7,202.2a4.07,4.07,0,0,1-4.08-4.07c0-23,19.9-41.7,44.37-41.7a4.07,4.07,0,1,1,0,8.13c-20,0-36.21,15.06-36.21,33.57A4.08,4.08,0,0,1,335.7,202.2Z"/><path class="cls-35" d="M268.56,296.61a2.83,2.83,0,0,1-3.22-2.39c-2.32-15.8,9.47-30.66,26.29-33.12a2.83,2.83,0,1,1,.83,5.6c-13.73,2-23.38,14-21.51,26.71A2.82,2.82,0,0,1,268.56,296.61Z"/><path class="cls-35" d="M488.21,224.28a2.26,2.26,0,0,1,1.68-2.72c12.47-2.95,25.17,5.38,28.31,18.56a2.27,2.27,0,0,1-4.41,1C511.22,230.41,501,223.58,490.94,226A2.26,2.26,0,0,1,488.21,224.28Z"/><path class="cls-35" d="M629.37,236.11a2.27,2.27,0,0,1,2.3-2.23c12.82.2,23.07,11.38,22.86,24.93a2.27,2.27,0,0,1-4.53-.06c.17-11.06-8.08-20.19-18.4-20.35A2.26,2.26,0,0,1,629.37,236.11Z"/><path d="M527.89,420.92a37.22,37.22,0,0,0-1.91-8.83l-72.84,6.78a37.2,37.2,0,0,0-.25,9,37.64,37.64,0,0,0,19.22,29.44,20.62,20.62,0,1,1,40.41-2.45A37.64,37.64,0,0,0,527.89,420.92Z"/><path class="cls-36" d="M490.16,431.64a20.61,20.61,0,0,0-18.05,25.7,37.68,37.68,0,0,0,40.41-2.45,20.63,20.63,0,0,0-22.36-23.25Z"/><path class="cls-6" d="M1245,352.75V496a24.07,24.07,0,0,0,24,24h0a24.07,24.07,0,0,0,24-24V352.75Z"/><path class="cls-37" d="M1251,444.25v51.52a18,18,0,0,0,36,0V444.25Z"/><circle class="cls-37" cx="1262.25" cy="440.5" r="7.5"/><circle class="cls-37" cx="1276.12" cy="419.88" r="4.88"/><circle class="cls-38" cx="1274.25" cy="456.25" r="4.5"/><circle class="cls-38" cx="1269.75" cy="433" r="6"/><circle class="cls-39" cx="1260" cy="402.25" r="3.75"/><path class="cls-6" d="M1653.05,372.06c10,19.25.4,35-21.27,35h-4.56l-78.81,0h-4.55c-21.67,0-31.23-15.76-21.23-35l5.38-10.34,36.36-69.93,5.37-10.34c10-19.23,26.34-19.22,36.32,0l5.36,10.35,36.27,70Z"/><rect class="cls-6" x="1563.74" y="238.56" width="48.68" height="71.86" rx="12" ry="12"/><path class="cls-40" d="M1636.14,368.86l-4-7.74c-4.25-8.19-10-19.36-15.61-30.12h-58.24c-5.58,10.74-11.37,21.88-15.63,30.06l-4,7.74c-7.48,14.37-.33,26.15,15.87,26.16h3.4l58.93,0h3.4C1636.44,395,1643.59,383.25,1636.14,368.86Z"/><circle class="cls-40" cx="1600" cy="326" r="12"/><circle class="cls-40" cx="1577" cy="314" r="6"/><circle class="cls-40" cx="1593" cy="289" r="6"/><circle class="cls-6" cx="1374" cy="262" r="36"/><path class="cls-41" d="M1352.37,253.46a25.22,25.22,0,1,0,43.67,0Z"/><circle class="cls-41" cx="1365.15" cy="251.32" r="8.85"/><circle class="cls-41" cx="1382.24" cy="242.17" r="4.58"/><circle class="cls-42" cx="1372.17" cy="260.78" r="3.66"/><circle class="cls-43" cx="1376.14" cy="236.68" r="4.58"/><rect class="cls-6" x="1298.43" y="597.46" width="40.47" height="76.22" rx="12" ry="12"/><ellipse class="cls-6" cx="1319" cy="705.05" rx="57" ry="52.95"/><rect class="cls-6" x="1264.7" y="638.6" width="44.52" height="29.01" rx="12" ry="12" transform="translate(838.76 -718.73) rotate(45)"/><rect class="cls-6" x="1327.43" y="638.6" width="44.52" height="29.01" rx="12" ry="12" transform="translate(2765.88 160.55) rotate(135)"/><path class="cls-44" d="M1274.59,691a46,46,0,1,0,88.82,0Z"/><circle class="cls-44" cx="1338.5" cy="685.5" r="11.5"/><circle class="cls-44" cx="1311.5" cy="671.5" r="6.5"/><circle class="cls-44" cx="1294.5" cy="667.5" r="6.5"/><circle class="cls-44" cx="1280.5" cy="646.5" r="6.5"/><circle class="cls-44" cx="1312" cy="656" r="13"/><rect class="cls-13" x="990" y="158" width="22" height="592" rx="11" ry="11"/><rect class="cls-13" x="870" y="740" width="322" height="18" rx="9" ry="9"/><path class="cls-6" d="M1050,741c-8.72-20-28.09-34-50.61-34s-41.9,14-50.62,34Z"/><rect class="cls-13" x="945" y="392" width="358" height="9" rx="4.5" ry="4.5"/><circle class="cls-6" cx="1001" cy="396" r="26"/><circle class="cls-13" cx="1001" cy="396" r="13"/><rect class="cls-13" x="1722" y="217" width="22" height="533" rx="11" ry="11" transform="translate(3466 967) rotate(-180)"/><rect class="cls-13" x="1542" y="740" width="322" height="18" rx="9" ry="9" transform="translate(3406 1498) rotate(-180)"/><path class="cls-6" d="M1684,741c8.72-20,28.09-34,50.61-34s41.9,14,50.62,34Z"/><path class="cls-6" d="M1210,344.81c10,19.38.4,35.23-21.43,35.22H1184l-79.38,0H1100c-21.83,0-31.45-15.88-21.38-35.24l5.42-10.42,36.62-70.43,5.41-10.42c10.07-19.37,26.53-19.36,36.58,0l5.4,10.43,36.53,70.48Z"/><rect class="cls-6" x="1120.07" y="210.34" width="49.03" height="72.38" rx="12" ry="12"/><path class="cls-45" d="M1192.89,331.73c-3-5.72-6.63-12.79-10.47-20.21H1106.7c-3.85,7.39-7.51,14.44-10.48,20.15l-4.34,8.35c-8.08,15.54-.36,28.25,17.15,28.26h3.67l63.66,0H1180c17.51,0,25.24-12.7,17.18-28.24Z"/><circle class="cls-45" cx="1122.01" cy="297.9" r="5.84"/><circle class="cls-45" cx="1133.68" cy="294.01" r="3.5"/><circle class="cls-46" cx="1130.57" cy="329.03" r="5.84"/><circle class="cls-47" cx="1142.63" cy="311.52" r="4.67"/><circle class="cls-45" cx="1162.48" cy="313.46" r="5.84"/><circle class="cls-45" cx="1158.59" cy="296.34" r="4.28"/><circle class="cls-48" cx="1154.7" cy="287.78" r="2.72"/><circle class="cls-45" cx="1146.14" cy="273.77" r="5.84"/><circle class="cls-45" cx="1153.92" cy="253.54" r="2.72"/><rect class="cls-13" x="945" y="258" width="252" height="9" rx="4.5" ry="4.5"/><circle class="cls-6" cx="1001" cy="262" r="26"/><circle class="cls-13" cx="1001" cy="262" r="13"/><rect class="cls-6" x="1085.73" y="493.74" width="103.29" height="132.48" rx="26.3" ry="26.3"/><rect class="cls-6" x="1076" y="490" width="122" height="15.72" rx="7.86" ry="7.86"/><path class="cls-49" d="M1094,533.48v67.07a16.74,16.74,0,0,0,16.69,16.69h54.2a16.74,16.74,0,0,0,16.68-16.69V533.48Z"/><circle class="cls-49" cx="1111.55" cy="533.79" r="7.86"/><circle class="cls-49" cx="1126.9" cy="515.45" r="5.24"/><rect class="cls-13" x="946" y="519" width="252" height="9" rx="4.5" ry="4.5"/><circle class="cls-6" cx="1002" cy="523" r="26"/><circle class="cls-13" cx="1002" cy="523" r="13"/><rect class="cls-13" x="1537" y="290" width="252" height="9" rx="4.5" ry="4.5" transform="translate(3326 589) rotate(-180)"/><circle class="cls-6" cx="1733" cy="294" r="26"/><circle class="cls-13" cx="1733" cy="294" r="13"/><rect class="cls-6" x="1567.43" y="558.46" width="40.47" height="76.22" rx="12" ry="12"/><ellipse class="cls-6" cx="1588" cy="666.05" rx="57" ry="52.95"/><path class="cls-50" d="M1541.13,663.69c0,.11,0,.22,0,.33a46.88,46.88,0,1,0,93.76,0c0-.11,0-.22,0-.33Z"/><circle class="cls-51" cx="1587.66" cy="681.9" r="8.09"/><circle class="cls-50" cx="1615.99" cy="650.2" r="8.09"/><circle class="cls-52" cx="1607.9" cy="644.12" r="8.09"/><circle class="cls-50" cx="1591.71" cy="650.2" r="4.05"/><circle class="cls-53" cx="1579.57" cy="675.83" r="4.05"/><circle class="cls-50" cx="1578.56" cy="630.97" r="5.06"/><circle class="cls-52" cx="1595.42" cy="608.04" r="5.06"/><rect class="cls-13" x="1537" y="596" width="252" height="9" rx="4.5" ry="4.5" transform="translate(3326 1201) rotate(180)"/><circle class="cls-6" cx="1733" cy="600" r="26"/><circle class="cls-13" cx="1733" cy="600" r="13"/><path class="cls-16" d="M1311,625l-1-176.37a7.72,7.72,0,0,0-7.71-7.67h-151a6.3,6.3,0,0,0-6.29,6.33l.43,62.59-15,.1-.43-62.59A21.29,21.29,0,0,1,1151.38,426h151a22.76,22.76,0,0,1,22.71,22.59L1326,625Z"/><path class="cls-16" d="M1262,378l-1-209.82a6.25,6.25,0,0,0-6.23-6.21h-97.27a5.57,5.57,0,0,0-5.56,5.56V234h-15V167.56A20.58,20.58,0,0,1,1157.56,147h97.27a21.28,21.28,0,0,1,21.23,21.14L1277,378Z"/><path class="cls-16" d="M1458.67,267H1404V256h54.67A18.35,18.35,0,0,0,1477,237.67V177.79A25.82,25.82,0,0,1,1502.79,152h66.46A23.78,23.78,0,0,1,1593,175.75V256h-11V175.75A12.76,12.76,0,0,0,1569.25,163h-66.46A14.81,14.81,0,0,0,1488,177.79v59.88A29.37,29.37,0,0,1,1458.67,267Z"/><path class="cls-16" d="M1280.65,652.15l-13.15-12.46a50.7,50.7,0,0,0-18.7-11.21,35.49,35.49,0,0,1-24.3-33.71V278.62a21.94,21.94,0,0,1,22.16-21.95l94.88.87-.08,8-94.88-.87a13.68,13.68,0,0,0-9.95,4,13.87,13.87,0,0,0-4.13,9.91V594.77a27.5,27.5,0,0,0,18.83,26.12,58.63,58.63,0,0,1,21.67,13l13.15,12.46Z"/><path class="cls-16" d="M1354.65,652.59l-4.24-7.94,12.86-6.86a84,84,0,0,1,47.47-9.54l.86.08A31.46,31.46,0,0,0,1446,597V507.5a28.54,28.54,0,0,1,28.5-28.5h87.13a27,27,0,0,1,27.1,26.21l2.42,72.64-9,.3-2.42-72.64a18,18,0,0,0-18.1-17.51H1474.5a19.53,19.53,0,0,0-19.5,19.5V597a40.45,40.45,0,0,1-44.24,40.28l-.86-.08a75.08,75.08,0,0,0-42.4,8.52Z"/><circle class="cls-6" cx="1455.5" cy="409.5" r="38.5"/><path class="cls-54" d="M1432.36,400.36a27,27,0,1,0,46.71,0Z"/><circle class="cls-54" cx="1446.04" cy="398.08" r="9.46"/><circle class="cls-54" cx="1464.31" cy="388.29" r="4.89"/><circle class="cls-42" cx="1453.54" cy="408.19" r="3.92"/><circle class="cls-43" cx="1457.78" cy="382.42" r="4.89"/><rect class="cls-16" x="1450" y="260.99" width="4" height="126.02" transform="translate(-4.96 23.09) rotate(-0.91)"/><rect class="cls-16" x="1453.48" y="433.5" width="5" height="57.11" transform="translate(-7.55 24.49) rotate(-0.96)"/></g></svg>
