<svg xmlns="http://www.w3.org/2000/svg" width="1060" height="580" viewBox="0 0 1060 580"><defs><style>.cls-1{fill:gray;}.cls-2{fill:#fff;}.cls-3{fill:#800983;}.cls-4{fill:#ff3600;}.cls-5{opacity:0.62;}.cls-6{fill:#1adeff;}.cls-7{opacity:0.2;}.cls-8{fill:#500754;}.cls-9{fill:#e7e21a;}.cls-10{opacity:0.75;}.cls-11{fill:#20ee6a;}.cls-12{fill:#1be800;}.cls-13{opacity:0.35;}.cls-14{fill:#9a0aa2;}.cls-15{fill:#e9003e;}</style></defs><title>level_up</title><g id="level_up"><path class="cls-1" d="M727.92,4.48C527.09-18.87,349.43,90,331.1,247.73a229.26,229.26,0,0,0,.25,55l-3.91,3.1L118.29,471.42l265.62,24.44,80.14,7.37c54.43,37.48,122.25,63.55,197.49,72.29C862.36,598.87,1040,490,1058.36,332.27S928.74,27.82,727.92,4.48Z"/><path class="cls-2" d="M727.29,29.26C544.09,8,382,107.31,365.29,251.16a208.74,208.74,0,0,0,.24,50.22L362,304.21l-190.8,151,242.31,22.3,73.1,6.72c49.66,34.19,111.52,58,180.16,66,183.21,21.3,345.28-78.05,362-221.91S910.49,50.55,727.29,29.26Z"/><path d="M599.89,96.63c0,1.37,0,2.73-.07,4.08a40.3,40.3,0,0,1-.27,4.07,30.56,30.56,0,0,1-2,8.22,22.44,22.44,0,0,1-4.17,6.75,18.57,18.57,0,0,1-6.3,4.54,19.67,19.67,0,0,1-8.43,1.57,24.91,24.91,0,0,1-3.85-.37,26.75,26.75,0,0,1-4-1,24.94,24.94,0,0,1-3.74-1.61,16,16,0,0,1-3.16-2.2l2.39-14.4a18.09,18.09,0,0,0,4.52,3.3,12.36,12.36,0,0,0,5.46,1.33,8.35,8.35,0,0,0,3.25-.51,6.05,6.05,0,0,0,2.22-1.5,7.33,7.33,0,0,0,1.41-2.26,13.54,13.54,0,0,0,.78-2.78,24.75,24.75,0,0,0,.33-3c.05-1,.08-2.08.1-3.1a109.76,109.76,0,0,0-.38-11q-.46-5.5-.8-11l16-.79Q600.06,85.74,599.89,96.63Z"/><path d="M644.88,77q-1.77,12.24-3.08,24.38t-2.52,24.43L625,126.6l.71-5.36a7.24,7.24,0,0,1-1.64,1.37,9,9,0,0,1-2,.93,11.48,11.48,0,0,1-2.18.49,12.92,12.92,0,0,1-2.13.09,11.62,11.62,0,0,1-4.44-1,14.47,14.47,0,0,1-3.8-2.43,18.23,18.23,0,0,1-3.08-3.5,23.4,23.4,0,0,1-2.29-4.19,24.1,24.1,0,0,1-1.4-4.47,20.49,20.49,0,0,1-.43-4.4q0-3.13.23-6.5t.54-6.74c.25-2.25.55-4.48.93-6.69s.83-4.31,1.37-6.32c2.84.18,5.68.36,8.54.52s5.7.24,8.54.24q-.86,3-1.68,6.06c-.56,2-1.06,4.06-1.51,6.11s-.83,4.11-1.12,6.18a52,52,0,0,0-.48,6.27c0,.49,0,1.18,0,2.09A16.07,16.07,0,0,0,618,108a7.39,7.39,0,0,0,.87,2.34,1.92,1.92,0,0,0,1.71,1,3.17,3.17,0,0,0,2.39-1.1,10.17,10.17,0,0,0,1.89-3,26.83,26.83,0,0,0,1.45-4.41c.41-1.66.77-3.41,1.06-5.23s.55-3.66.74-5.51.34-3.61.45-5.25.19-3.1.24-4.41.09-2.31.1-3c0-.46,0-.92,0-1.36s0-.89-.08-1.36l4.49.18c1.49,0,3,.08,4.5.1,1.17,0,2.33,0,3.51,0S643.69,77,644.88,77Z"/><path d="M687,114.35a10.84,10.84,0,0,1-1.14,5,11,11,0,0,1-2.9,3.52,15.4,15.4,0,0,1-4.14,2.32,28.74,28.74,0,0,1-4.85,1.37,37.64,37.64,0,0,1-5.05.62c-1.69.08-3.26.12-4.73.09s-2.93-.1-4.47-.23a44.92,44.92,0,0,1-4.62-.61,41.17,41.17,0,0,1-4.51-1.1,26.88,26.88,0,0,1-4.2-1.69L647,78.69a41.78,41.78,0,0,1,4.18-1.39c1.47-.4,3-.74,4.49-1s3.05-.47,4.57-.59a43.89,43.89,0,0,1,4.39-.16,42.41,42.41,0,0,1,5,.39,27.41,27.41,0,0,1,4.85,1.13,21.56,21.56,0,0,1,4.33,2A14.31,14.31,0,0,1,682.31,82a12.75,12.75,0,0,1,2.31,4,15,15,0,0,1,.77,5.25,11.69,11.69,0,0,1-.62,3.65,10.33,10.33,0,0,1-1.65,3.05,9.89,9.89,0,0,1-2.58,2.27,10.83,10.83,0,0,1-3.41,1.36,15.1,15.1,0,0,1,4.11,1.81,12.35,12.35,0,0,1,3.13,2.84,12.66,12.66,0,0,1,2,3.73A13.3,13.3,0,0,1,687,114.35Zm-22.53-8.88a9,9,0,0,0-2,.18l-.27,7.95,1,.21a5.74,5.74,0,0,0,1,.1,8.39,8.39,0,0,0,1.6-.13,4.81,4.81,0,0,0,1.65-.6,4,4,0,0,0,1.3-1.25,4.07,4.07,0,0,0,.54-2.12,4.23,4.23,0,0,0-.47-2.17,3.93,3.93,0,0,0-1.22-1.33,4.35,4.35,0,0,0-1.59-.65A8.88,8.88,0,0,0,664.44,105.47Zm5.14-11.28a3.39,3.39,0,0,0-.39-1.74,4,4,0,0,0-1-1.18,4.28,4.28,0,0,0-1.32-.69,5,5,0,0,0-1.27-.23,4.8,4.8,0,0,0-1.36.19,11.84,11.84,0,0,0-1.3.47l-.33,7.74a17.37,17.37,0,0,0,2-.11,8,8,0,0,0,2.29-.58,4.83,4.83,0,0,0,1.89-1.36A3.87,3.87,0,0,0,669.58,94.19Z"/><path d="M707.61,78l-3.2,47.46-14.73.53-.63-47.31Z"/><path d="M728.64,78.32l-3.2,47.45-14.73.53L710.07,79Z"/><path d="M749.66,78.66l-3.2,47.45-14.73.53-.63-47.3Z"/><path d="M780.51,123.87a7,7,0,0,1-.64,2.85,7.64,7.64,0,0,1-1.63,2.29,7.41,7.41,0,0,1-2.34,1.53,7.31,7.31,0,0,1-5.68-.09,7.4,7.4,0,0,1-3.83-3.95,7,7,0,0,1-.53-2.87,7.3,7.3,0,0,1,.62-2.85,7.41,7.41,0,0,1,1.61-2.33,7.83,7.83,0,0,1,2.34-1.55,7.21,7.21,0,0,1,5.69.09,8,8,0,0,1,2.29,1.63A7.48,7.48,0,0,1,780,121,7.19,7.19,0,0,1,780.51,123.87Zm3.06-47.39-3.45,36.64-12.9-.21-.74-36.7Z"/><path d="M800.45,124.19a7,7,0,0,1-.64,2.85,7.79,7.79,0,0,1-1.62,2.29,7.46,7.46,0,0,1-2.35,1.53,6.89,6.89,0,0,1-2.83.53,7,7,0,0,1-2.85-.62,7.3,7.3,0,0,1-2.29-1.61,7.61,7.61,0,0,1-1.54-2.34,7.21,7.21,0,0,1-.52-2.87,7.12,7.12,0,0,1,.62-2.85,7.22,7.22,0,0,1,1.6-2.33,8,8,0,0,1,2.35-1.55,7.18,7.18,0,0,1,5.68.09,7.74,7.74,0,0,1,2.3,1.63,7.46,7.46,0,0,1,1.54,2.38A6.86,6.86,0,0,1,800.45,124.19Zm3.06-47.39-3.45,36.64-12.9-.21-.73-36.7Z"/><path d="M820.4,124.51a7,7,0,0,1-.64,2.85,7.79,7.79,0,0,1-1.62,2.29,7.57,7.57,0,0,1-2.35,1.53,7.31,7.31,0,0,1-5.68-.09,7.4,7.4,0,0,1-3.83-4,7,7,0,0,1-.53-2.87,7.3,7.3,0,0,1,.62-2.85,7.41,7.41,0,0,1,1.61-2.33,7.83,7.83,0,0,1,2.34-1.55,7.21,7.21,0,0,1,5.69.09,7.88,7.88,0,0,1,2.29,1.63,7.48,7.48,0,0,1,1.55,2.38A7.19,7.19,0,0,1,820.4,124.51Zm3.06-47.39L820,113.76l-12.9-.21-.74-36.71Z"/><path d="M840.34,124.83a6.83,6.83,0,0,1-.64,2.85,7.61,7.61,0,0,1-1.62,2.29,7.41,7.41,0,0,1-2.34,1.53,7,7,0,0,1-2.84.53,7.14,7.14,0,0,1-2.85-.62,7.3,7.3,0,0,1-2.29-1.61,7.41,7.41,0,0,1-1.53-2.34,7,7,0,0,1-.53-2.87,7.12,7.12,0,0,1,.62-2.85,7.25,7.25,0,0,1,1.61-2.33,7.83,7.83,0,0,1,2.34-1.55A7.18,7.18,0,0,1,836,118a7.74,7.74,0,0,1,2.3,1.63A7.65,7.65,0,0,1,839.8,122,7,7,0,0,1,840.34,124.83Zm3.06-47.39L840,114.08l-12.9-.21-.74-36.7Z"/><path d="M860.29,125.15a7,7,0,0,1-.64,2.85,7.79,7.79,0,0,1-1.62,2.29,7.57,7.57,0,0,1-2.35,1.53,7.31,7.31,0,0,1-5.68-.09,7.4,7.4,0,0,1-3.83-3.95,7.22,7.22,0,0,1-.53-2.87,7.41,7.41,0,0,1,2.23-5.18,7.69,7.69,0,0,1,2.35-1.55,6.85,6.85,0,0,1,2.86-.54,6.76,6.76,0,0,1,2.82.63,7.52,7.52,0,0,1,2.29,1.63,7.31,7.31,0,0,1,1.55,2.38A7.19,7.19,0,0,1,860.29,125.15Zm3.06-47.39L859.9,114.4l-12.9-.21-.74-36.71Z"/><path d="M442.89,196.76a23.3,23.3,0,0,1-1.12,7,19,19,0,0,1-2.88,5.52,18.66,18.66,0,0,1-4.34,4.12,24.57,24.57,0,0,1-5.48,2.79,31.4,31.4,0,0,1-6.3,1.57,42.74,42.74,0,0,1-6.84.44c-.87,0-1.72-.05-2.56-.11s-1.68-.15-2.56-.25l1.38-37.34a35.14,35.14,0,0,1,6.33-1.27,49.9,49.9,0,0,1,6.45-.3,21.62,21.62,0,0,1,7.3,1.31,16.45,16.45,0,0,1,5.7,3.54,15.53,15.53,0,0,1,3.68,5.57A19.11,19.11,0,0,1,442.89,196.76Zm-11.44,1.6a11.12,11.12,0,0,0-.28-2.9,6.72,6.72,0,0,0-1.1-2.48,5.94,5.94,0,0,0-2-1.76,6.65,6.65,0,0,0-2.91-.76l-1.39,17.24a7.91,7.91,0,0,0,3.05-1,9.24,9.24,0,0,0,2.39-2.05,9.38,9.38,0,0,0,1.57-2.73,10.16,10.16,0,0,0,.65-3.12Z"/><path d="M478,188.47q0,2.06-.27,4.53c-.15,1.65-.39,3.36-.72,5.11s-.74,3.54-1.24,5.34a38.43,38.43,0,0,1-1.85,5.19,30.5,30.5,0,0,1-2.54,4.65,18.13,18.13,0,0,1-3.29,3.76,14.12,14.12,0,0,1-4.12,2.5,13.08,13.08,0,0,1-5,.85,13.81,13.81,0,0,1-5.59-1.13,12.44,12.44,0,0,1-4-2.88,14.82,14.82,0,0,1-2.72-4.16,25.75,25.75,0,0,1-1.62-5,38.43,38.43,0,0,1-.76-5.39c-.13-1.83-.18-3.59-.15-5.27a78,78,0,0,1,.51-7.78c.3-2.58.72-5.16,1.24-7.73l13,.71q-.82,4.37-1.44,8.76a71,71,0,0,0-.68,8.86c0,.31,0,.78,0,1.4s.06,1.32.12,2.09.16,1.56.29,2.37a12.46,12.46,0,0,0,.53,2.22,5.72,5.72,0,0,0,.85,1.66,1.54,1.54,0,0,0,1.2.66,1.86,1.86,0,0,0,1.46-.74,7.14,7.14,0,0,0,1.16-2,20.62,20.62,0,0,0,.9-2.94c.26-1.11.48-2.26.66-3.47s.35-2.4.47-3.61.22-2.32.3-3.36.14-2,.17-2.75.05-1.39.06-1.78c0-1.45,0-2.89,0-4.33s-.07-2.88-.14-4.3l13,.2Q478,184.53,478,188.47Z"/><path d="M526.77,180.35l-13.71,18.31,11,19.89-12.95,2.07-8.27-12.15L502.18,221l-11.59.26,1.58-42.62,12.95.93-1.2,12.56L512.76,179Z"/><path d="M550.57,204.72l-1.37,12.34-23.46,1.46q.32-9.71.68-19.31t.83-19.3l14.47.23q-.74,6.09-1.42,12.16t-1,12.24c.87.05,1.73.08,2.58.1l2.59,0c1,0,2.06,0,3.06,0Z"/><path d="M586.75,218.77l-13.83,1.56L571.35,214l-6.35-.1-1.49,6.26-14.17-1.62L561,181.67l15.49-.53Zm-16.27-13.28-2-9.72-2.21,9.65Z"/><path d="M620.34,194.87a18.65,18.65,0,0,1-.44,3.93,11.3,11.3,0,0,1-3.36,5.92,19.2,19.2,0,0,1-3.13,2.35l6.43,11.9-12.56,2.25-4.09-11.93-3.46.06-.68,11.57-12-.19q.24-6.34.47-12.63t.49-12.63c.07-2.13.14-4.25.21-6.34s.18-4.21.33-6.35a36.5,36.5,0,0,1,7.67-1.81q1.9-.22,3.87-.3t4,0a21.64,21.64,0,0,1,6.13,1,16.11,16.11,0,0,1,5.2,2.72,13.17,13.17,0,0,1,3.59,4.43A12.84,12.84,0,0,1,620.34,194.87Zm-12.48.69a6.64,6.64,0,0,0-.29-2.14,4.66,4.66,0,0,0-.92-1.7,4.34,4.34,0,0,0-1.54-1.14,5.34,5.34,0,0,0-2.17-.44,7.74,7.74,0,0,0-1.09.05,7,7,0,0,0-1,.2l-.61,10.34h.66a10.31,10.31,0,0,0,2.44-.27,7.24,7.24,0,0,0,2.25-.91,5.11,5.11,0,0,0,1.63-1.61A4.47,4.47,0,0,0,607.86,195.56Z"/><path d="M648.83,182c-.14,1.75-.27,3.47-.39,5.17s-.27,3.43-.45,5.18l-11.8.42-.34,3.5,8.29.13-.75,8.62-8.35.14-.34,4.06,6.9.11,4.9.08q-.22,3.06-.45,6.08t-.42,6l-24,.18,1.53-40.12Z"/><path d="M681,200.58a23,23,0,0,1-1.11,7,18.94,18.94,0,0,1-2.89,5.52,18.48,18.48,0,0,1-4.34,4.12A24.5,24.5,0,0,1,667.2,220a32.27,32.27,0,0,1-6.3,1.57,41.62,41.62,0,0,1-6.84.43c-.87,0-1.73-.05-2.56-.11s-1.69-.14-2.56-.25l1.38-37.33a35.16,35.16,0,0,1,6.33-1.28,53.75,53.75,0,0,1,6.45-.3,21.52,21.52,0,0,1,7.29,1.32,16.4,16.4,0,0,1,5.71,3.54,15.53,15.53,0,0,1,3.68,5.57A18.93,18.93,0,0,1,681,200.58Zm-11.43,1.6a11.08,11.08,0,0,0-.28-2.9,6.82,6.82,0,0,0-1.1-2.48,5.93,5.93,0,0,0-2-1.76,6.65,6.65,0,0,0-2.91-.76l-1.39,17.24a7.91,7.91,0,0,0,3.05-1.05,9.62,9.62,0,0,0,2.39-2.05,9.76,9.76,0,0,0,1.57-2.73,10.16,10.16,0,0,0,.65-3.13Z"/><path d="M709.33,183c-.14,1.75-.27,3.47-.39,5.17s-.27,3.43-.45,5.18l-11.81.42-.33,3.5,8.29.13-.75,8.62-8.35.14-.34,4.06,6.9.11,4.89.08q-.21,3.06-.44,6.08c-.16,2-.29,4-.42,6l-24,.18,1.53-40.12Z"/><path d="M752.64,201.73a23,23,0,0,1-1.11,7,19.07,19.07,0,0,1-2.89,5.52,18.67,18.67,0,0,1-4.34,4.12,24.29,24.29,0,0,1-5.47,2.79,32.27,32.27,0,0,1-6.3,1.57,41.62,41.62,0,0,1-6.84.43c-.87,0-1.73,0-2.56-.11s-1.69-.14-2.56-.25L722,185.48a35.16,35.16,0,0,1,6.33-1.28,53.68,53.68,0,0,1,6.44-.3,21.29,21.29,0,0,1,7.3,1.32,16.4,16.4,0,0,1,5.71,3.54,15.45,15.45,0,0,1,3.68,5.57A18.9,18.9,0,0,1,752.64,201.73Zm-11.43,1.59a11,11,0,0,0-.28-2.89,6.94,6.94,0,0,0-1.1-2.49,5.9,5.9,0,0,0-2-1.75,6.52,6.52,0,0,0-2.91-.76l-1.39,17.24a7.76,7.76,0,0,0,3.05-1.06,9.37,9.37,0,0,0,2.39-2,9.67,9.67,0,0,0,1.57-2.74,10.33,10.33,0,0,0,.65-3.12Z"/><path d="M781,184.14c-.14,1.74-.27,3.47-.39,5.17s-.27,3.43-.45,5.17l-11.81.43-.33,3.5,8.29.13-.75,8.62-8.35.14-.35,4.06,6.91.11,4.89.08q-.21,3.06-.44,6.08t-.42,6l-24,.17,1.54-40.11Z"/><path d="M811.31,185l-.47,11.8-8.29.2L800,223.31l-11.76.42.48-26.38-8.3.31.55-13.13Z"/><path d="M819.78,219.17a5.39,5.39,0,0,1-.51,2.27,6.15,6.15,0,0,1-1.3,1.83,6,6,0,0,1-1.87,1.23,5.71,5.71,0,0,1-2.26.42,5.58,5.58,0,0,1-2.27-.5,5.75,5.75,0,0,1-1.83-1.28,5.87,5.87,0,0,1-1.22-1.87,5.63,5.63,0,0,1-.43-2.29,6,6,0,0,1,1.78-4.13,6.29,6.29,0,0,1,1.87-1.24,5.5,5.5,0,0,1,2.29-.43,5.37,5.37,0,0,1,2.25.51,5.93,5.93,0,0,1,3.06,3.19A5.6,5.6,0,0,1,819.78,219.17Z"/><path d="M417.64,250.66l-.47,11.8-8.3.2L406.33,289l-11.75.43.48-26.38-8.3.31.55-13.13Z"/><path d="M449.82,288.59,436,290.15l-1.57-6.32-6.34-.1-1.5,6.27-14.17-1.62,11.67-36.89,15.49-.53ZM433.56,275.3l-2-9.72-2.21,9.65Z"/><path d="M486.29,251.71,472.58,270l11,19.89L470.62,292l-8.27-12.15-.65,12.57-11.58.26L451.69,250l13,.93-1.21,12.56,8.85-13.16Z"/><path d="M523.5,252c-.14,1.75-.27,3.47-.39,5.18s-.26,3.42-.44,5.17l-11.81.42-.05,3.51,10.24.16-.7,8.62-9.74.12-.21,16.47-14.09.06,1.54-40.12Z"/><path d="M558.27,273.07a20,20,0,0,1-.67,4.87,19,19,0,0,1-1.75,4.39,18.56,18.56,0,0,1-2.73,3.72,16.77,16.77,0,0,1-3.58,2.88,17.14,17.14,0,0,1-9.22,2.44,17.28,17.28,0,0,1-4.76-.71,18.09,18.09,0,0,1-4.21-1.86,17,17,0,0,1-3.53-2.84,17.5,17.5,0,0,1-2.67-3.67,18.78,18.78,0,0,1-1.69-4.3,18.2,18.2,0,0,1-.55-4.76,19.78,19.78,0,0,1,.66-4.74,19.52,19.52,0,0,1,1.76-4.36,18.83,18.83,0,0,1,2.72-3.74,17.43,17.43,0,0,1,3.54-2.92,16.88,16.88,0,0,1,4.22-1.88,15.83,15.83,0,0,1,4.76-.62,20.76,20.76,0,0,1,7.35,1.37,15.58,15.58,0,0,1,9.17,9.35A20,20,0,0,1,558.27,273.07Zm-12.37.52a8,8,0,0,0-.31-2.33,6.65,6.65,0,0,0-1-2A5.28,5.28,0,0,0,543,267.8a4.62,4.62,0,0,0-2.26-.58,5.49,5.49,0,0,0-2.34.44,5.19,5.19,0,0,0-1.79,1.26,5.65,5.65,0,0,0-1.16,1.9,6.87,6.87,0,0,0-.42,2.32,8.16,8.16,0,0,0,.29,2.34,6.67,6.67,0,0,0,1,2.13,5.39,5.39,0,0,0,1.63,1.56,4.4,4.4,0,0,0,2.29.62,5.19,5.19,0,0,0,2.36-.47,5.48,5.48,0,0,0,1.79-1.37,6.25,6.25,0,0,0,1.14-2A7.2,7.2,0,0,0,545.9,273.59Z"/><path d="M593,266.44a20.07,20.07,0,0,1-.44,3.93,12,12,0,0,1-1.24,3.23,11.47,11.47,0,0,1-2.13,2.69,19.2,19.2,0,0,1-3.13,2.35l6.44,11.9-12.56,2.25-4.1-11.92-3.45.05-.69,11.57-12-.19q.22-6.35.46-12.63t.5-12.63q.11-3.19.21-6.35t.32-6.34a36.5,36.5,0,0,1,7.67-1.81c1.28-.15,2.57-.25,3.88-.3s2.65-.05,4,0a21.63,21.63,0,0,1,6.12,1,16.16,16.16,0,0,1,5.21,2.72,13.14,13.14,0,0,1,3.58,4.43A12.84,12.84,0,0,1,593,266.44Zm-12.49.69a6.64,6.64,0,0,0-.28-2.14,4.81,4.81,0,0,0-.92-1.7,4.43,4.43,0,0,0-1.54-1.14,5.43,5.43,0,0,0-2.18-.44,7.88,7.88,0,0,0-1.09.05,8.89,8.89,0,0,0-1,.19l-.61,10.35h.67a10.37,10.37,0,0,0,2.44-.27,7.28,7.28,0,0,0,2.24-.91,5.25,5.25,0,0,0,1.64-1.61A4.4,4.4,0,0,0,580.46,267.13Z"/><path d="M626.32,271.71a23,23,0,0,1-1.12,7,18.56,18.56,0,0,1-7.22,9.64,24.72,24.72,0,0,1-5.47,2.79,31.5,31.5,0,0,1-6.31,1.57,42.74,42.74,0,0,1-6.84.44c-.87,0-1.72-.06-2.55-.11s-1.69-.15-2.56-.25l1.38-37.34a35.21,35.21,0,0,1,6.32-1.27,50.07,50.07,0,0,1,6.45-.3,21.62,21.62,0,0,1,7.3,1.31,16.45,16.45,0,0,1,5.7,3.54,15.69,15.69,0,0,1,3.69,5.57A19.3,19.3,0,0,1,626.32,271.71Zm-11.44,1.6a11.56,11.56,0,0,0-.27-2.9,6.91,6.91,0,0,0-1.11-2.48,5.94,5.94,0,0,0-2-1.76,6.61,6.61,0,0,0-2.91-.76l-1.38,17.24a8,8,0,0,0,3-1,9.37,9.37,0,0,0,2.38-2.05,9.52,9.52,0,0,0,1.57-2.73,10.16,10.16,0,0,0,.65-3.12Z"/><path d="M643.29,254.89l-3.67,37.85-11.75.43.6-37.74Z"/><path d="M687.6,272.69a23.25,23.25,0,0,1-1.12,7,18.82,18.82,0,0,1-2.89,5.52,18.42,18.42,0,0,1-4.33,4.12,24.19,24.19,0,0,1-5.48,2.8,32.09,32.09,0,0,1-6.3,1.57,42.75,42.75,0,0,1-6.84.43c-.87,0-1.73-.05-2.56-.11s-1.69-.14-2.55-.25l1.37-37.34a35.14,35.14,0,0,1,6.33-1.27,49.9,49.9,0,0,1,6.45-.3,21.52,21.52,0,0,1,7.29,1.31,16.57,16.57,0,0,1,5.71,3.55,15.36,15.36,0,0,1,3.68,5.57A19.06,19.06,0,0,1,687.6,272.69Zm-11.44,1.6a11.12,11.12,0,0,0-.28-2.9,6.72,6.72,0,0,0-1.1-2.48,5.94,5.94,0,0,0-2-1.76,6.51,6.51,0,0,0-2.91-.75l-1.39,17.23a7.91,7.91,0,0,0,3-1.05,9.06,9.06,0,0,0,2.39-2.05,9.48,9.48,0,0,0,1.57-2.73,10,10,0,0,0,.65-3.12Z"/><path d="M722.69,264.4c0,1.38-.11,2.89-.27,4.54s-.4,3.35-.72,5.11-.74,3.53-1.24,5.34a37.81,37.81,0,0,1-1.85,5.18,30.5,30.5,0,0,1-2.54,4.65,18.17,18.17,0,0,1-3.29,3.76,14.12,14.12,0,0,1-4.12,2.5,12.92,12.92,0,0,1-5,.85,13.81,13.81,0,0,1-5.59-1.13,12.44,12.44,0,0,1-4-2.88,14.68,14.68,0,0,1-2.72-4.16,25.75,25.75,0,0,1-1.62-5,38.43,38.43,0,0,1-.76-5.39c-.13-1.82-.18-3.58-.15-5.27a77.56,77.56,0,0,1,.51-7.77q.45-3.89,1.24-7.74l13,.71q-.82,4.37-1.44,8.76a72.94,72.94,0,0,0-.69,8.86c0,.31,0,.78,0,1.4s.06,1.32.12,2.09.16,1.56.29,2.37a12.79,12.79,0,0,0,.53,2.23,5.79,5.79,0,0,0,.85,1.65,1.54,1.54,0,0,0,1.2.66,1.86,1.86,0,0,0,1.46-.74,7.23,7.23,0,0,0,1.16-2,20.62,20.62,0,0,0,.9-2.94c.26-1.11.48-2.26.67-3.46s.34-2.41.46-3.61.22-2.33.3-3.37.14-1.95.17-2.75.05-1.39.06-1.78c0-1.45,0-2.89,0-4.33s-.07-2.87-.14-4.3l13,.21Q722.75,260.45,722.69,264.4Z"/><path d="M762.55,255.86c-.14,1.74-.27,3.46-.39,5.17s-.27,3.43-.45,5.17l-11.81.42,0,3.51,10.24.16-.7,8.62-9.74.12-.21,16.48-14.08.05,1.53-40.12Z"/><path d="M779,257.07l-3.67,37.85-11.75.42.6-37.73Z"/><path d="M816.2,257l-13.71,18.32,11,19.89-13,2.07-8.27-12.16-.64,12.58L780,298l1.58-42.62,12.95.93-1.2,12.56,8.84-13.16Z"/><path d="M870.08,257.14,866.87,298l-12.7.35.46-21.54-6,17.28-4.9-.08-4.15-15.6-.34,18-12.87.18,1.18-38.45,14.31-.32,5.38,18.51,7.88-19.42Z"/><path d="M887.12,258.8l-3.67,37.85-11.75.43.6-37.74Z"/><path d="M921.81,292.87a13.22,13.22,0,0,1-3.27,2.82,21.33,21.33,0,0,1-4.15,2,27.31,27.31,0,0,1-4.53,1.14,26.19,26.19,0,0,1-4.4.33,18.57,18.57,0,0,1-7.41-1.57,17.65,17.65,0,0,1-5.79-4.08,18.48,18.48,0,0,1-3.76-6.06,19.76,19.76,0,0,1-1.28-7.45,25.86,25.86,0,0,1,2.87-11.38,22.44,22.44,0,0,1,3.24-4.68,20.45,20.45,0,0,1,4.29-3.65,20,20,0,0,1,5.21-2.34,20.73,20.73,0,0,1,6-.77c.8,0,1.65.06,2.56.14s1.81.21,2.71.38a17.93,17.93,0,0,1,2.61.7,11.77,11.77,0,0,1,2.32,1.06L918.12,270a14.19,14.19,0,0,0-3.21-.84,24.08,24.08,0,0,0-3.23-.26,12.41,12.41,0,0,0-4.18.61,9.82,9.82,0,0,0-3.39,1.91,9.14,9.14,0,0,0-2.32,3.08,9.75,9.75,0,0,0-.9,4.13,10,10,0,0,0,.34,2.8,7.32,7.32,0,0,0,1.15,2.42,6,6,0,0,0,1.94,1.71,5.76,5.76,0,0,0,2.74.69,8.8,8.8,0,0,0,2.18-.25,4.75,4.75,0,0,0,2-.91l.15-2.17-6.68-.22.47-8.34c2.77,0,5.53-.08,8.3-.11s5.55-.06,8.35-.13Z"/><path d="M962,259.05c-.14,1.75-.27,3.47-.39,5.17s-.27,3.43-.45,5.17l-11.81.43-.33,3.5,8.29.13-.75,8.62-8.35.14-.35,4.06,6.91.11,4.9.08q-.23,3.06-.45,6.08t-.42,6l-24,.18,1.54-40.12Z"/><path d="M1000.76,259.9l-2.61,37.7-14.61,1.1-7.46-20.33L974.52,299l-12.52-.2,1.63-39.45,13.93-.44,9.31,20.19.74-18.92Z"/><path d="M410.76,370.5l-1.37,12.34-23.46,1.46q.33-9.71.69-19.31t.82-19.3l14.47.23q-.74,6.09-1.42,12.16t-1,12.24c.87.05,1.74.08,2.59.1l2.59,0c1,0,2.06,0,3.06,0Z"/><path d="M427.47,347.44,423.8,385.3l-11.75.42.6-37.73Z"/><path d="M453.48,371.19l-1.37,12.33L428.65,385q.33-9.71.69-19.3t.82-19.31l14.47.23q-.74,6.09-1.42,12.16t-1,12.25c.87.05,1.73.08,2.59.09l2.59,0,3.06,0C451.42,371.16,452.44,371.17,453.48,371.19Z"/><path d="M479.25,371.6l-1.37,12.34-23.46,1.46q.33-9.7.69-19.31t.82-19.3l14.47.23c-.49,4.05-1,8.11-1.42,12.15s-.8,8.13-1,12.25c.87.05,1.73.08,2.59.1l2.59,0,3.06,0C477.19,371.58,478.21,371.58,479.25,371.6Z"/><path d="M507.3,347.78c-.14,1.74-.27,3.46-.39,5.17s-.27,3.43-.44,5.17l-11.81.42-.34,3.5,8.3.14-.76,8.61-8.35.15-.34,4.06,6.9.11,4.9.07q-.23,3.06-.45,6.08t-.41,6.05l-24,.17,1.53-40.11Z"/><path d="M551.77,388.63l-13.93.44.1-12.86-6.4-.1L531,388.3l-12.47-.21,1.69-39.1,13.23.82-1.15,20,6.18.1.4-21.49,12.68.54Z"/><path d="M581.35,366.17c0,1.09,0,2.18-.05,3.25s-.09,2.16-.22,3.26a23.64,23.64,0,0,1-1.61,6.55,18,18,0,0,1-3.33,5.39,14.73,14.73,0,0,1-5,3.62,15.7,15.7,0,0,1-6.73,1.26,21,21,0,0,1-3.07-.3,21.83,21.83,0,0,1-3.16-.8,19.4,19.4,0,0,1-3-1.29,13,13,0,0,1-2.52-1.75l1.91-11.49a14.47,14.47,0,0,0,3.61,2.63,9.63,9.63,0,0,0,4.35,1.05,6.56,6.56,0,0,0,2.6-.4,4.81,4.81,0,0,0,1.77-1.19,6.09,6.09,0,0,0,1.13-1.81,11,11,0,0,0,.62-2.22,20.78,20.78,0,0,0,.26-2.43c0-.83.07-1.66.08-2.47a86.45,86.45,0,0,0-.3-8.82c-.25-2.93-.47-5.86-.64-8.79l12.76-.63Q581.49,357.49,581.35,366.17Z"/><path d="M629.83,349.74c-.14,1.74-.27,3.47-.39,5.17s-.27,3.43-.45,5.17l-11.81.43-.33,3.5,8.29.13-.75,8.62-8.35.14L615.7,377l11.79.19q-.21,3.06-.44,6.07c-.15,2-.29,4-.42,6l-24,.17.33-6.89-6.79-.11-2.88,6.24-13.78-1.61,20.85-36.74ZM603.94,374l.43-9.68-4.6,9.62Z"/><path d="M654.85,374.42l-1.37,12.33L630,388.21q.32-9.7.68-19.3t.83-19.31l14.47.23q-.74,6.09-1.42,12.16t-1,12.24c.87.06,1.73.09,2.58.1l2.59,0c1,0,2.06,0,3.06,0Z"/><path d="M688.75,364.05a13.43,13.43,0,0,1-.88,4.77,11.55,11.55,0,0,1-2.28,3.61,13.17,13.17,0,0,1-3.34,2.59,20.67,20.67,0,0,1-4.07,1.7,25.55,25.55,0,0,1-4.49.93,37,37,0,0,1-4.54.28l-.21,13-13-.21q.1-6.37.23-12.69t.29-12.74q.11-3.4.13-6.79t.25-6.85a53.71,53.71,0,0,1,7.15-1.47,50.68,50.68,0,0,1,7.36-.41,26,26,0,0,1,4.28.42,20.56,20.56,0,0,1,4.08,1.16,18.19,18.19,0,0,1,3.62,1.94,12.35,12.35,0,0,1,4.74,6.31A13.41,13.41,0,0,1,688.75,364.05Zm-12.37.75a3.64,3.64,0,0,0-1.06-2.85,4,4,0,0,0-2.83-1.06,7.16,7.16,0,0,0-1.21.08c-.42.06-.82.13-1.19.22l-.46,8.12a4.74,4.74,0,0,0,.75.06l.75,0a5.46,5.46,0,0,0,1.93-.31,5.11,5.11,0,0,0,1.68-.93,4.75,4.75,0,0,0,1.17-1.46A4.07,4.07,0,0,0,676.38,364.8Z"/><path d="M716.85,351.14c-.14,1.74-.27,3.46-.39,5.17s-.27,3.43-.45,5.17l-11.81.42-.33,3.5,8.29.14-.75,8.61-8.35.15-.34,4.05,6.9.12,4.89.07q-.21,3.06-.44,6.08t-.42,6.05l-24,.17,1.54-40.12Z"/><path d="M750.2,365a19.5,19.5,0,0,1-.44,3.93,12,12,0,0,1-1.24,3.22,11.27,11.27,0,0,1-2.13,2.69,18.12,18.12,0,0,1-3.13,2.35l6.44,11.9-12.56,2.25L733,379.4l-3.45.05L728.9,391l-12-.19q.22-6.34.46-12.63t.5-12.63c.07-2.13.14-4.25.21-6.34s.18-4.21.32-6.34a38.78,38.78,0,0,1,3.86-1.14,36.2,36.2,0,0,1,3.81-.67c1.28-.16,2.57-.26,3.88-.3s2.65-.06,4,0a21.58,21.58,0,0,1,6.12,1,16,16,0,0,1,5.21,2.71,13,13,0,0,1,3.58,4.43A12.88,12.88,0,0,1,750.2,365Zm-12.49.69a6.71,6.71,0,0,0-.28-2.15,4.9,4.9,0,0,0-.92-1.7,4.43,4.43,0,0,0-1.54-1.14,5.6,5.6,0,0,0-2.18-.44,9.82,9.82,0,0,0-1.09.06,7.18,7.18,0,0,0-1,.19l-.61,10.34h.67a9.8,9.8,0,0,0,2.44-.26,7.53,7.53,0,0,0,2.24-.91,5.39,5.39,0,0,0,1.64-1.62A4.37,4.37,0,0,0,737.71,365.67Z"/><path d="M762.55,386.27a5.76,5.76,0,0,1-.51,2.28,6.15,6.15,0,0,1-1.3,1.83,5.87,5.87,0,0,1-1.87,1.22,5.38,5.38,0,0,1-2.26.42,5.58,5.58,0,0,1-2.28-.49,5.88,5.88,0,0,1-3.05-3.15,5.65,5.65,0,0,1-.42-2.29,5.9,5.9,0,0,1,3.65-5.37,5.47,5.47,0,0,1,2.29-.44,5.36,5.36,0,0,1,2.24.51,6.15,6.15,0,0,1,1.83,1.3,6,6,0,0,1,1.24,1.89A5.77,5.77,0,0,1,762.55,386.27Z"/><path class="cls-3" d="M194.59,487.22l.86-4.83a6.5,6.5,0,1,0-12.8-2.28l-.88,4.93a6.5,6.5,0,0,0,11.09,5.64,4.92,4.92,0,0,1,1.3-2.4A4.45,4.45,0,0,1,194.59,487.22Z"/><path class="cls-3" d="M189.87,449.72h0a34,34,0,0,1-44.81-17.43l-.72-7.1a83.38,83.38,0,0,0-3.64-17.4l-1.7-5.25a21.17,21.17,0,0,0-6.62-9.8l-7.46-6.22a34,34,0,0,1,17.43-44.81h0a34,34,0,0,1,44.81,17.43l20.14,45.77A34,34,0,0,1,189.87,449.72Z"/><path class="cls-3" d="M15.62,317.34s-.88,36.18,60.82,47.83h.21a5,5,0,0,1,2.12.44l.2,0-.07,0a4.17,4.17,0,0,1,.61.38,4.64,4.64,0,0,1,2.81,1h0a4.7,4.7,0,0,1,3.09,1.05,4.5,4.5,0,0,1,3.4,1.68l.36.15c13,3.9,26.06,9.27,36.34,17.08L198,345.61S62.41,255.1,15.62,317.34Z"/><path class="cls-4" d="M29.31,323.37c.45,2.52-2,5.83-11.34,1.13C8.83,319.92-1.44,310.88.31,311.1c1.58.07,13,6.91,20,8.67C27.54,321.7,28.79,320.62,29.31,323.37Z"/><path class="cls-4" d="M43.6,306.75c4,.44,9.41-2.56,2.62-13.42C39.61,282.69,26,270.9,26.21,273c0,1.86,10,15.08,12.32,23.33C41.07,304.72,39.27,306.23,43.6,306.75Z"/><path class="cls-4" d="M34.55,307.37c-.38,3.47-4.95,7.44-15.57-.76C8.57,298.62-1.57,284.4.67,285.05c2.08.41,14.61,11.89,23.32,15.67C32.85,304.76,35,303.57,34.55,307.37Z"/><g class="cls-5"><ellipse class="cls-6" cx="58.22" cy="327.31" rx="18.36" ry="23.38" transform="translate(-273.07 299.6) rotate(-75.13)"/></g><path class="cls-3" d="M192.45,499.68a5.51,5.51,0,0,1,.15-2.39,5.7,5.7,0,0,1,.16-3.58,5.2,5.2,0,0,1,.11-.67,5.53,5.53,0,0,1,.65-4,7.17,7.17,0,0,0-2.91-5.25l-18-150.31C162.57,355.64,166.84,381.13,159,404c-3.23,9.43-8.24,17.83-13.64,26-.08,26.12-1.51,89.2-13.13,112.22,0,0,47.92,47.68,52.28-21.09a125.16,125.16,0,0,0,7.21-18.24A5.45,5.45,0,0,1,192.45,499.68Z"/><path class="cls-4" d="M160.58,549.89c1.62-.4,3.82.87,1,6.64s-8.41,12.18-8.3,11.14,4.2-8,5.19-12.29S158.81,550.34,160.58,549.89Z"/><path class="cls-4" d="M149.53,542.33c.2-2.36-1.86-5.42-8.75-.84S126.69,554.62,128,554.38s9.55-6.72,14.85-8.5C148.27,543.93,149.28,544.92,149.53,542.33Z"/><path class="cls-4" d="M150.11,547.64c2.26.05,4.92,2.53-.16,9.24s-13.95,13.3-13.58,11.94,7.4-9.25,9.67-14.59C148.47,548.79,147.65,547.61,150.11,547.64Z"/><path class="cls-3" d="M298.33,330.34s123.61,64,88.76,123.63c0,0-30.49,15.59-62.73-27.51,0,0-2.55,90.78,13.07,123.79,0,0-43.49,36.68-52.27-21.09,0,0-18.21-36-18.23-36.68"/><g id="skygge_mave" class="cls-7"><path class="cls-8" d="M177.43,328.13C179.52,331,145.08,491.39,233,499.34c111.52,10.09,68.34-173.64,68.34-173.64Z"/></g><g id="mave"><path class="cls-9" d="M182.31,328s-35.39,173.11,50.33,171.43c96.69-1.89,61.13-173.61,61.13-173.61Z"/></g><g class="cls-10"><path class="cls-11" d="M235,371.79c-24.71,0-38.44-3.26-39.29-3.46l.95-3.89c.3.08,31.42,7.41,84.22,0l.56,4A332.89,332.89,0,0,1,235,371.79Z"/></g><g class="cls-10"><path class="cls-11" d="M232.39,381.29c-23.15,0-36.07-.66-36.26-.67l.05-1c.29,0,29.34,1.5,78.61,0l0,1C258.31,381.12,244.05,381.29,232.39,381.29Z"/></g><g class="cls-10"><path class="cls-11" d="M235.54,394.63c-23.51,0-36.58-2.11-37.39-2.24l.82-4.94c.29.05,30,4.83,80.31,0l.48,5C262.43,394.08,247.61,394.63,235.54,394.63Z"/></g><g class="cls-10"><path class="cls-11" d="M236.8,426c-23,0-35.77-3.32-36-3.37l.26-1c.28.08,28.93,7.49,77.54,0l.16,1A276.24,276.24,0,0,1,236.8,426Z"/></g><g class="cls-10"><path class="cls-11" d="M232.28,437.87c-24.18,0-37.7-2.16-37.9-2.19l.33-2c.3.05,30.46,4.87,81.61,0l.19,2C259.3,437.33,244.44,437.87,232.28,437.87Z"/></g><g class="cls-10"><path class="cls-11" d="M233.73,452.33c-25.22,0-39.33-3.34-39.54-3.39l.71-2.92c.31.08,31.49,7.44,84.41,0l.42,3A329.15,329.15,0,0,1,233.73,452.33Z"/></g><g class="cls-10"><path class="cls-12" d="M229.86,465.58a297.4,297.4,0,0,1-30-1.21l.67-6c.23,0,24.06,2.59,64.48,0l.39,6C251.46,465.28,239.55,465.58,229.86,465.58Z"/></g><g class="cls-10"><path class="cls-11" d="M235.41,474.69c-16.32,0-25.4-3.26-26-3.47l.69-1.87c.21.08,20.72,7.4,55.53,0l.42,2A147.44,147.44,0,0,1,235.41,474.69Z"/></g><g class="cls-10"><path class="cls-11" d="M228.89,404.93c-22.54,0-35.13-2.17-35.32-2.2l.35-2c.28.05,28.35,4.86,76,0l.21,2A406.24,406.24,0,0,1,228.89,404.93Z"/></g><g class="cls-10"><path class="cls-11" d="M233.73,415.16c-25.22,0-39.33-3.34-39.54-3.39l.71-2.92c.31.08,31.49,7.44,84.41,0l.42,3A330.5,330.5,0,0,1,233.73,415.16Z"/></g><g id="striber" class="cls-10"><path class="cls-11" d="M236.27,360.52c-27.35,0-42.66-3.63-42.88-3.68l.71-2.92c.33.09,34.21,8.08,91.67,0l.42,3A358,358,0,0,1,236.27,360.52Z"/></g><path class="cls-3" d="M104.49,185.57C120,167.81,216,69.26,349.69,169.72c0,0,27.88,45.28,14.81,97,0,0,12.2,50.81-122,81.3,0,0-83.64-11.08-120.23-44.34,0,0-45.3-39.73-21.73-115.73C101.05,186.41,103.43,186.77,104.49,185.57Z"/><g class="cls-13"><path class="cls-3" d="M180.57,328s29.8,25.84,113.4,0c0,0-6.13,47.52-45.34,47.52C248.63,375.55,180.68,382,180.57,328Z"/></g><path class="cls-3" d="M94.48,244.11C57.94,228.21,50,189.41,50,189.41s-7-80.69,20-85.27,61.89,57.72,61.89,57.72l-13.65,21.5Z"/><g class="cls-7"><path class="cls-8" d="M118,183,109,207S50,189.41,70,104.14C70,104.14,104,128.89,118,183Z"/></g><path class="cls-14" d="M131.89,161.9,118,183S79.61,97.72,70,104.14C70,104.14,116.2,105.05,131.89,161.9Z"/><path class="cls-3" d="M316.6,152s48.57,14,48.57,71.35c0,0,44-14.35,39.4-76.87,0,0,2.74-18.39-19.25-48.72l-6.41-11s-8.25,20.23-14.66,20.23C355.09,106.94,315.69,126.25,316.6,152Z"/><g class="cls-7"><path class="cls-8" d="M373.22,100.47s19.16,55-29.62,67.85Z"/></g><path class="cls-14" d="M316.59,148.15s0-32.09,55.77-47.91c0,0,8,43.1-28.76,68.08C343.6,168.32,331.4,151.82,316.59,148.15Z"/><ellipse class="cls-2" cx="169.78" cy="207.29" rx="61.42" ry="64.64"/><ellipse cx="189.39" cy="181.16" rx="19.17" ry="20.17"/><ellipse class="cls-2" cx="295.24" cy="207.29" rx="61.42" ry="64.64"/><ellipse cx="314.84" cy="181.16" rx="19.17" ry="20.17"/><path class="cls-4" d="M376.05,442.59c-2.25.68-4.13,3.81,3.12,8.84,7.07,4.94,18.24,8.91,17.44,7.7-.63-1.14-10.38-6.84-14.37-11.34C378.06,443.23,378.51,441.87,376.05,442.59Z"/><path class="cls-4" d="M384.71,425.35c-1.79-2.76-1.25-8,10.19-7.33,11.18.62,25.84,6,24.06,6.63-1.54.75-16.1-1.37-23.76.25C387.3,426.4,386.69,428.34,384.71,425.35Z"/><path class="cls-4" d="M387.44,432.29c-2.75,1.68-4.4,6.65,6.21,11.22,10.35,4.5,25.77,6.3,24.43,4.9-1.09-1.37-15.09-6.05-21.35-11C390.2,432.51,390.45,430.47,387.44,432.29Z"/><path class="cls-4" d="M311.26,553.08c-1.52-.72-3.9.08-2.16,6.31s6,13.65,6.13,12.61-2.66-8.73-2.87-13.1S312.91,553.87,311.26,553.08Z"/><path class="cls-4" d="M323.49,547.88c.23-2.36,2.8-5,8.73.94,5.81,5.74,11.45,15.72,10.19,15.22-1.16-.33-8.15-8.51-13-11.34C324.43,549.71,323.25,550.47,323.49,547.88Z"/><path class="cls-4" d="M321.94,553c-2.22-.41-5.28,1.5-1.51,9.11,3.67,7.44,11.26,15.86,11.15,14.45S326,566,324.75,560.26,324.37,553.44,321.94,553Z"/><g class="cls-5"><ellipse class="cls-6" cx="360.15" cy="421.86" rx="16.69" ry="19.48" transform="translate(-194.17 441.86) rotate(-51.58)"/></g><path d="M312.61,286.21a31,31,0,0,0-.94-7.5h-9.32c.89.24,1.94,1.34,2.84,4.13,1.61,5,1.94,12.17,1.38,11.49s-2.13-7.24-4-10.35-2.78-3.22-1.93-4.52a1.82,1.82,0,0,1,1-.75h-132a1.82,1.82,0,0,1,1,.75c.85,1.3,0,1.28-1.92,4.52s-3.5,9.78-4.05,10.35-.23-6.52,1.39-11.49c.89-2.79,1.94-3.89,2.84-4.13h-9.25a31,31,0,0,0-.94,7.5c0,19.28,18.24,35.89,44.54,43.53,0-.24,0-.47,0-.71a21.29,21.29,0,0,1,31.81-18.54,22.49,22.49,0,0,1,33.31,19.21C294.44,322,312.61,305.45,312.61,286.21Zm-137,1.41c-3.15,5.12-5.76,16.11-6.67,17-.91,1.12-.37-10.72,2.28-18.92,2.7-8.4,6.25-7.52,7.55-5.57C180.23,282.32,178.8,282.29,175.66,287.62Zm12,2.8c-2.68,7.5-2.67,22.26-3.63,23.73-.9,1.72-4.09-13.48-3.1-24.72,1-11.51,6.2-11.52,8.67-9.45C192.23,282.26,190.23,282.67,187.62,290.42Zm99.53,23.73c-1-1.47-.94-16.23-3.63-23.73-2.61-7.75-4.61-8.16-1.94-10.44,2.47-2.07,7.71-2.06,8.68,9.45C291.24,300.67,288.06,315.87,287.15,314.15Zm5.17-34c1.3-1.95,4.85-2.83,7.55,5.57,2.66,8.2,3.2,20,2.28,18.92-.91-.93-3.52-11.92-6.66-17C292.34,282.29,290.91,282.32,292.32,280.17Z"/><path class="cls-2" d="M171.27,285.74c-2.65,8.2-3.19,20-2.28,18.92.91-.93,3.52-11.92,6.67-17,3.14-5.33,4.57-5.3,3.16-7.45C177.52,278.22,174,277.34,171.27,285.74Z"/><path class="cls-2" d="M215.85,283.2c-1.1,5.11-.72,12.27-.23,11.54s1.4-7.39,3-10.67,2.43-3.46,1.46-4.67S217,278,215.85,283.2Z"/><path class="cls-2" d="M221.71,282.32c-.89,4.12-.58,9.91-.19,9.32s1.13-6,2.42-8.62,2-2.8,1.18-3.78S222.62,278.1,221.71,282.32Z"/><path class="cls-2" d="M254.73,283.2c1.11,5.11.72,12.27.24,11.54s-1.4-7.39-3-10.67-2.44-3.46-1.46-4.67S253.61,278,254.73,283.2Z"/><path class="cls-2" d="M248.88,282.32c.89,4.12.58,9.91.19,9.32s-1.14-6-2.42-8.62-2-2.8-1.18-3.78S248,278.1,248.88,282.32Z"/><path class="cls-2" d="M189.56,280c-2.47-2.07-7.7-2.06-8.67,9.45-1,11.24,2.2,26.44,3.1,24.72,1-1.47.95-16.23,3.63-23.73C190.23,282.67,192.23,282.26,189.56,280Z"/><path class="cls-2" d="M168.8,278.71h.75A1.46,1.46,0,0,0,168.8,278.71Z"/><path class="cls-2" d="M166,282.84c-1.62,5-2,12.17-1.39,11.49s2.14-7.24,4.05-10.35,2.77-3.22,1.92-4.52a1.82,1.82,0,0,0-1-.75h-.75C167.9,279,166.85,280.05,166,282.84Z"/><path class="cls-2" d="M299.87,285.74c-2.7-8.4-6.25-7.52-7.55-5.57-1.41,2.15,0,2.12,3.17,7.45,3.14,5.12,5.75,16.11,6.66,17C303.07,305.78,302.53,293.94,299.87,285.74Z"/><path class="cls-2" d="M281.58,280c-2.67,2.28-.67,2.69,1.94,10.44,2.69,7.5,2.67,22.26,3.63,23.73.91,1.72,4.09-13.48,3.11-24.72C289.29,277.92,284.05,277.91,281.58,280Z"/><path class="cls-2" d="M301.59,278.71h.76A1.5,1.5,0,0,0,301.59,278.71Z"/><path class="cls-2" d="M300.6,279.46c-.85,1.3,0,1.28,1.93,4.52s3.49,9.78,4,10.35.23-6.52-1.38-11.49c-.9-2.79-1.95-3.89-2.84-4.13h-.76A1.82,1.82,0,0,0,300.6,279.46Z"/><path class="cls-15" d="M245.74,307.71a22.35,22.35,0,0,0-10.82,2.78A21.29,21.29,0,0,0,203.11,329c0,.24,0,.47,0,.71a120.16,120.16,0,0,0,65.08,0A22.51,22.51,0,0,0,245.74,307.71Z"/><path class="cls-2" d="M273.27,324.39c.12-5.22-1.62-12.19-2-11.38s0,7.53-.91,11.05-1.74,3.86-.55,4.86S273.16,329.73,273.27,324.39Z"/><path class="cls-2" d="M267.68,326.37c.1-4.21-1.3-9.84-1.58-9.19s0,6.08-.73,8.92-1.41,3.13-.45,3.94S267.59,330.69,267.68,326.37Z"/><path class="cls-2" d="M198.46,324.39c-.13-5.22,1.61-12.19,1.95-11.38s0,7.53.91,11.05,1.74,3.86.55,4.86S198.57,329.73,198.46,324.39Z"/><path class="cls-2" d="M204,326.37c-.1-4.21,1.3-9.84,1.58-9.19s0,6.08.73,8.92,1.41,3.13.45,3.94S204.13,330.69,204,326.37Z"/></g></svg>
