<svg xmlns="http://www.w3.org/2000/svg" width="230" height="70" viewBox="0 0 230 70"><defs><style>.cls-1{fill:#3b5972;}.cls-2{fill:#48aacc;}.cls-3{fill:#f6f7f5;}</style></defs><title>on_off_knap_1</title><g id="game_over"><rect class="cls-1" x="1" y="1.29" width="114" height="67.42" rx="12" ry="12"/><rect class="cls-2" x="115" y="1.29" width="114" height="67.42" rx="12" ry="12"/><path class="cls-3" d="M52.72,34.8a19.45,19.45,0,0,1-.56,4.73,18.76,18.76,0,0,1-1.63,4.27,17.91,17.91,0,0,1-2.59,3.65,16.36,16.36,0,0,1-3.42,2.84A17.16,17.16,0,0,1,31,52.17a17.61,17.61,0,0,1-4.11-1.73,16.79,16.79,0,0,1-3.46-2.7,17,17,0,0,1-2.64-3.5,18.12,18.12,0,0,1-1.7-4.13,17.55,17.55,0,0,1-.6-4.61,19.1,19.1,0,0,1,.56-4.59,18.53,18.53,0,0,1,1.63-4.24A18.76,18.76,0,0,1,23.28,23a17.25,17.25,0,0,1,3.39-2.88,15.89,15.89,0,0,1,8.65-2.56,20.28,20.28,0,0,1,7.13,1.21,15.45,15.45,0,0,1,5.49,3.47,15.29,15.29,0,0,1,3.53,5.44A19.21,19.21,0,0,1,52.72,34.8Zm-11.95.7a7.76,7.76,0,0,0-.34-2.25,6.33,6.33,0,0,0-1-1.94,5.2,5.2,0,0,0-1.61-1.37,4.46,4.46,0,0,0-2.19-.53,5.48,5.48,0,0,0-2.27.46,5.18,5.18,0,0,0-1.7,1.25A5.43,5.43,0,0,0,30.58,33a6.72,6.72,0,0,0-.37,2.25,8.34,8.34,0,0,0,.32,2.26,6.8,6.8,0,0,0,1,2A5.25,5.25,0,0,0,33.1,41a4.27,4.27,0,0,0,2.22.57,5,5,0,0,0,4-1.85,6,6,0,0,0,1.08-2A7.1,7.1,0,0,0,40.77,35.5Z"/><path class="cls-3" d="M91.24,15.19,89.3,51.71,75.19,53,67.65,33.45,66.46,53.38H54.34l1-38.19,13.47-.64L78.1,33.94l.43-18.32Z"/><path class="cls-3" d="M162.73,35.19a18.71,18.71,0,0,1-.54,4.52,17.58,17.58,0,0,1-1.56,4.08,16.39,16.39,0,0,1-2.47,3.48A15.77,15.77,0,0,1,154.89,50,16.41,16.41,0,0,1,142,51.79a16.45,16.45,0,0,1-3.92-1.66,15.63,15.63,0,0,1-3.31-2.57,15.82,15.82,0,0,1-2.52-3.35,17.2,17.2,0,0,1-1.63-4,16.8,16.8,0,0,1-.57-4.4,18,18,0,0,1,.54-4.39,17.47,17.47,0,0,1,4-7.55,16.34,16.34,0,0,1,3.23-2.76,15.54,15.54,0,0,1,3.87-1.8,14.84,14.84,0,0,1,4.41-.64,19,19,0,0,1,6.8,1.16,14.76,14.76,0,0,1,5.25,3.3,15,15,0,0,1,3.38,5.2A18.72,18.72,0,0,1,162.73,35.19Zm-11.43.67a7.09,7.09,0,0,0-.32-2.15,5.67,5.67,0,0,0-.94-1.85,4.88,4.88,0,0,0-1.53-1.32,4.35,4.35,0,0,0-2.1-.5,5.18,5.18,0,0,0-2.16.44,4.86,4.86,0,0,0-1.63,1.2,5.14,5.14,0,0,0-1,1.77,6.43,6.43,0,0,0-.37,2.15,8.05,8.05,0,0,0,.31,2.16,6.56,6.56,0,0,0,.93,2A4.94,4.94,0,0,0,144,41.14a4.11,4.11,0,0,0,2.13.54,4.81,4.81,0,0,0,2.17-.48,5.05,5.05,0,0,0,1.64-1.29,6,6,0,0,0,1-1.86A6.79,6.79,0,0,0,151.3,35.86Z"/><path class="cls-3" d="M188.91,16.25c-.11,1.61-.2,3.21-.29,4.78s-.19,3.18-.33,4.79l-10.91.57v3.24h9.47l-.52,8-9,.26.06,15.23-13,.26.83-37.11Z"/><path class="cls-3" d="M214.59,16.25c-.1,1.61-.2,3.21-.28,4.78s-.2,3.18-.34,4.79l-10.91.57v3.24h9.47l-.51,8-9,.26.05,15.23-13,.26.82-37.11Z"/></g></svg>
