<svg xmlns="http://www.w3.org/2000/svg" width="140" height="170" viewBox="0 0 140 170"><defs><style>.cls-1{fill:#d6d6d9;}.cls-2{fill:#ff7712;}</style></defs><title>orange_kolbe</title><g id="game_over"><path class="cls-1" d="M135.22,134.27c10,19.24.4,35-21.28,35h-4.55l-78.81,0H26c-21.68,0-31.23-15.76-21.23-35l5.38-10.35L46.54,53.92l5.37-10.35c10-19.23,26.34-19.22,36.32,0L93.59,54l36.26,70Z"/><rect class="cls-1" x="45.91" y="0.77" width="48.68" height="71.86" rx="12" ry="12"/><path class="cls-2" d="M118.31,131.07l-4-7.74L98.68,93.21H40.45L24.82,123.27l-4,7.73c-7.48,14.38-.33,26.15,15.87,26.16h3.4l58.93,0h3.4C118.61,157.22,125.76,145.45,118.31,131.07Z"/><circle class="cls-2" cx="82.17" cy="88.21" r="12"/><circle class="cls-2" cx="59.17" cy="76.21" r="6"/><circle class="cls-2" cx="75.17" cy="51.21" r="6"/></g></svg>
