<svg id="title_skærm" xmlns="http://www.w3.org/2000/svg" width="260" height="360" viewBox="0 0 260 360"><defs><style>.cls-1{fill:#d6d6d9;}.cls-2{fill:#82f44d;}.cls-3{fill:#deff3f;}.cls-4{fill:#ff2aa0;}.cls-5{fill:#a4ff7f;}.cls-6{fill:#140c02;}.cls-7{fill:#fff;}</style></defs><title>play_knap</title><rect class="cls-1" x="73.15" y="3.61" width="117.93" height="133.91" rx="12" ry="12"/><ellipse class="cls-1" cx="130" cy="236.73" rx="128.81" ry="119.66"/><path class="cls-2" d="M33.77,220.47a92.71,92.71,0,0,0-2.59,21.79c0,52.55,44.07,95.14,98.44,95.14s98.44-42.59,98.44-95.14a92.71,92.71,0,0,0-2.59-21.79Z"/><circle class="cls-3" cx="57.66" cy="251.95" r="13.49"/><circle class="cls-4" cx="89.64" cy="191.99" r="18.49"/><circle class="cls-5" cx="184.59" cy="212.97" r="18.49"/><path class="cls-6" d="M120.52,278.87A17.56,17.56,0,0,1,94,263.92l-.3-32.37-.31-32.37a17.55,17.55,0,0,1,26.19-15.45l28.18,15.92L176,215.57a17.55,17.55,0,0,1,.29,30.4L148.4,262.42Z"/><circle class="cls-5" cx="148.61" cy="156.01" r="9.49"/><circle class="cls-5" cx="115.63" cy="104.04" r="13.49"/><circle class="cls-4" cx="130.12" cy="90.54" r="9.99"/><circle class="cls-3" cx="139.61" cy="49.07" r="9.49"/><path class="cls-7" d="M29.48,228.51a8,8,0,0,1-7.69-8.3A82.55,82.55,0,0,1,107.34,141a8,8,0,0,1-.61,16,66.54,66.54,0,0,0-69,63.87A8,8,0,0,1,29.48,228.51Z"/></svg>
