<svg xmlns="http://www.w3.org/2000/svg" width="970" height="580" viewBox="0 0 970 580"><defs><style>.cls-1{fill:gray;}.cls-2{fill:#fff;}.cls-3{fill:#ff3600;}.cls-13,.cls-4{fill:#800983;}.cls-17,.cls-5{fill:#500754;}.cls-5{opacity:0.2;}.cls-6{fill:#e7e21a;}.cls-10,.cls-11,.cls-12,.cls-15,.cls-7,.cls-8,.cls-9{fill:none;stroke-miterlimit:10;}.cls-10,.cls-11,.cls-7,.cls-8,.cls-9{stroke:#20ee6a;}.cls-7{stroke-width:4px;}.cls-10,.cls-11,.cls-12,.cls-7,.cls-8,.cls-9{opacity:0.75;}.cls-9{stroke-width:5px;}.cls-10{stroke-width:2px;}.cls-11{stroke-width:3px;}.cls-12{stroke:#1be800;stroke-width:6px;}.cls-13{opacity:0.35;}.cls-14{fill:#9a0aa2;}.cls-15{stroke:#edbaf1;}.cls-16{opacity:0.47;}.cls-18{opacity:0.58;}.cls-19{fill:#3b5972;}.cls-20{fill:#83adc4;}.cls-21{fill:#48aacc;}.cls-22{fill:#255e77;}</style></defs><title>settings_menu</title><g id="setting"><path class="cls-1" d="M637.9,4.48C437.07-18.87,259.41,90,241.08,247.73a229.26,229.26,0,0,0,.25,55l-3.91,3.1L28.27,471.42l265.62,24.44L374,503.23c54.43,37.48,122.25,63.55,197.49,72.29C772.34,598.87,950,490,968.34,332.27S838.72,27.82,637.9,4.48Z"/><path class="cls-2" d="M637.27,29.26C454.07,8,292,107.31,275.27,251.16a208.74,208.74,0,0,0,.24,50.22l-3.57,2.83-190.8,151,242.31,22.3,73.11,6.72c49.65,34.19,111.52,58,180.15,66,183.21,21.3,345.28-78.05,362-221.91S820.47,50.55,637.27,29.26Z"/><path d="M466.78,124.67a19.74,19.74,0,0,1-1.67,8.42,16.69,16.69,0,0,1-4.57,6,19.48,19.48,0,0,1-6.78,3.58,28.14,28.14,0,0,1-8.35,1.2,17.2,17.2,0,0,1-3.78-.46q-2.06-.45-4.17-1.14c-1.4-.46-2.76-1-4.06-1.48s-2.45-1-3.46-1.49l1.55-14.49a24.54,24.54,0,0,0,6.62,2.73,28.85,28.85,0,0,0,7.16.93c.44,0,1,0,1.62-.05a7.71,7.71,0,0,0,1.81-.32,3.76,3.76,0,0,0,1.45-.79,1.91,1.91,0,0,0,.6-1.51,1.64,1.64,0,0,0-.42-1.14,3.08,3.08,0,0,0-1.09-.78,6.37,6.37,0,0,0-1.51-.45,13.91,13.91,0,0,0-1.65-.23c-.54,0-1.05-.07-1.51-.07h-1.13a13.94,13.94,0,0,1-5.5-1.06,12.62,12.62,0,0,1-4.26-2.93,13.57,13.57,0,0,1-2.76-4.47,15.74,15.74,0,0,1-1-5.61,16.21,16.21,0,0,1,1.67-7.43A17.27,17.27,0,0,1,436.07,96a20.24,20.24,0,0,1,6.42-3.53A22.85,22.85,0,0,1,450,91.27c1.15,0,2.33,0,3.55.13a34.43,34.43,0,0,1,3.64.44,33.56,33.56,0,0,1,3.53.81A19.35,19.35,0,0,1,464,93.88l-1.33,14.27a42.72,42.72,0,0,0-5-1.35,24.73,24.73,0,0,0-5.12-.55l-1.18,0c-.48,0-1,0-1.51.1a15.27,15.27,0,0,0-1.6.27,6.76,6.76,0,0,0-1.44.47,2.91,2.91,0,0,0-1,.79,1.69,1.69,0,0,0-.35,1.16,1.67,1.67,0,0,0,.58,1.25,3.77,3.77,0,0,0,1.41.74,9.45,9.45,0,0,0,1.89.37c.7.07,1.38.11,2.06.12h1.9a12,12,0,0,1,1.44,0,14.35,14.35,0,0,1,5.06,1.2,11.77,11.77,0,0,1,3.82,2.71,11.4,11.4,0,0,1,2.39,4A15.41,15.41,0,0,1,466.78,124.67Z"/><path d="M502.29,92.68q-.21,3.3-.39,6.54t-.45,6.54l-14.91.77-.35,4.43h10.48l-.78,10.9-10.54.35-.36,5.13H499.9q-.21,3.87-.44,7.69c-.15,2.54-.29,5.09-.4,7.64l-30.31.71,1.13-50.7Z"/><path d="M540.65,93.1,540.3,108l-10.48.42-2.67,33.33-14.84.77.07-33.33-10.48.57.43-16.6Z"/><path d="M580.48,93.1,580.13,108l-10.48.42L567,141.76l-14.84.77.07-33.33-10.47.57.42-16.6Z"/><path d="M601.4,93.88l-3.87,47.88-14.84.77V94.86Z"/><path d="M651.64,93l-2.54,47.67-18.42,1.69-9.84-25.52-1.55,26H603.47L604.74,93l17.58-.84,12.16,25.31L635,93.52Z"/><path d="M696.92,136.2a16.48,16.48,0,0,1-4.08,3.63,27,27,0,0,1-5.2,2.56,33.08,33.08,0,0,1-5.7,1.53,32.36,32.36,0,0,1-5.55.51A23.68,23.68,0,0,1,667,142.6a22.4,22.4,0,0,1-7.4-5,23.22,23.22,0,0,1-4.87-7.58,24.86,24.86,0,0,1-1.76-9.39,32.41,32.41,0,0,1,3.39-14.43,29.07,29.07,0,0,1,4-6,26,26,0,0,1,5.35-4.7,25.44,25.44,0,0,1,6.54-3.06,25.93,25.93,0,0,1,7.59-1.09c1,0,2.09,0,3.24.13a32.91,32.91,0,0,1,3.42.42,23.16,23.16,0,0,1,3.33.83,15.22,15.22,0,0,1,2.95,1.3l-1,13.43a17.62,17.62,0,0,0-4.06-1,33.78,33.78,0,0,0-4.09-.26,15.81,15.81,0,0,0-5.26.86,12.56,12.56,0,0,0-4.25,2.48,11.76,11.76,0,0,0-2.87,3.94,13.34,13.34,0,0,0-.56,8.77,9.27,9.27,0,0,0,1.49,3,7.69,7.69,0,0,0,2.5,2.13,7.16,7.16,0,0,0,3.46.81,11.73,11.73,0,0,0,2.76-.35,6.18,6.18,0,0,0,2.45-1.2l.14-2.74-8.44-.14.42-10.55c3.49-.12,7-.21,10.48-.3s7-.19,10.54-.33Z"/><path d="M735.59,124.67a19.89,19.89,0,0,1-1.67,8.42,16.8,16.8,0,0,1-4.57,6,19.61,19.61,0,0,1-6.79,3.58,28.14,28.14,0,0,1-8.35,1.2,17.34,17.34,0,0,1-3.78-.46,42.39,42.39,0,0,1-4.16-1.14c-1.41-.46-2.76-1-4.06-1.48s-2.46-1-3.47-1.49l1.55-14.49a24.47,24.47,0,0,0,6.63,2.73,28.77,28.77,0,0,0,7.15.93c.45,0,1,0,1.62-.05a7.62,7.62,0,0,0,1.81-.32,3.88,3.88,0,0,0,1.46-.79,1.91,1.91,0,0,0,.6-1.51,1.64,1.64,0,0,0-.42-1.14,3.27,3.27,0,0,0-1.09-.78,6.46,6.46,0,0,0-1.52-.45,13.91,13.91,0,0,0-1.65-.23c-.54,0-1-.07-1.51-.07h-1.13a14,14,0,0,1-5.5-1.06,12.48,12.48,0,0,1-4.25-2.93,13.57,13.57,0,0,1-2.76-4.47,15.53,15.53,0,0,1-1-5.61,16.21,16.21,0,0,1,1.67-7.43A17.43,17.43,0,0,1,704.88,96a20,20,0,0,1,6.42-3.53,22.84,22.84,0,0,1,7.48-1.24c1.15,0,2.34,0,3.55.13a34.11,34.11,0,0,1,3.64.44,33.74,33.74,0,0,1,3.54.81,20,20,0,0,1,3.27,1.23l-1.34,14.27a41.69,41.69,0,0,0-5-1.35,24.64,24.64,0,0,0-5.11-.55l-1.18,0c-.48,0-1,0-1.51.1a15.27,15.27,0,0,0-1.6.27,7,7,0,0,0-1.45.47,2.78,2.78,0,0,0-1,.79,1.8,1.8,0,0,0,.22,2.41,3.93,3.93,0,0,0,1.41.74,9.55,9.55,0,0,0,1.9.37c.69.07,1.38.11,2,.12h1.9a11.87,11.87,0,0,1,1.44,0,14.41,14.41,0,0,1,5.07,1.2,11.62,11.62,0,0,1,3.81,2.71,11.4,11.4,0,0,1,2.39,4A15.41,15.41,0,0,1,735.59,124.67Z"/><path d="M752.32,113.63a7.11,7.11,0,0,1-.59,2.89,7.79,7.79,0,0,1-1.6,2.33,7.58,7.58,0,0,1-2.34,1.59,7.19,7.19,0,0,1-2.85.58,7.26,7.26,0,0,1-2.88-.58,7.58,7.58,0,0,1-2.34-1.59,7.23,7.23,0,0,1-1.58-2.33,7.11,7.11,0,0,1-.58-2.89,7.48,7.48,0,0,1,2.16-5.25,7.78,7.78,0,0,1,2.34-1.6,6.94,6.94,0,0,1,2.88-.6,6.87,6.87,0,0,1,2.85.6,7.59,7.59,0,0,1,3.94,4A7.31,7.31,0,0,1,752.32,113.63Zm0,22.5a7.11,7.11,0,0,1-.59,2.89,7.79,7.79,0,0,1-1.6,2.33,7.58,7.58,0,0,1-2.34,1.59,7.19,7.19,0,0,1-2.85.58,7.26,7.26,0,0,1-2.88-.58,7.58,7.58,0,0,1-2.34-1.59,7.23,7.23,0,0,1-1.58-2.33,7.11,7.11,0,0,1-.58-2.89,7.48,7.48,0,0,1,2.16-5.25,7.78,7.78,0,0,1,2.34-1.6,6.94,6.94,0,0,1,2.88-.6,6.87,6.87,0,0,1,2.85.6,7.59,7.59,0,0,1,3.94,4A7.31,7.31,0,0,1,752.32,136.13Z"/><path d="M364.39,224.12l-3.24,51.61-16,.7.14-27.21L338,271.16h-6.19l-5.55-19.62-.07,22.78-16.25.49.71-48.58,18.07-.71,7.17,23.28,9.56-24.68Z"/><path d="M409,236.28c0,1.74-.08,3.65-.25,5.73s-.43,4.25-.81,6.47-.86,4.48-1.45,6.77a49.1,49.1,0,0,1-2.24,6.59,38.59,38.59,0,0,1-3.11,5.92,22.83,22.83,0,0,1-4.08,4.82,18.07,18.07,0,0,1-5.15,3.24,16.52,16.52,0,0,1-6.33,1.17,17.68,17.68,0,0,1-7.08-1.31,16,16,0,0,1-5.15-3.56,18.83,18.83,0,0,1-3.52-5.2,33.27,33.27,0,0,1-2.14-6.29,47.77,47.77,0,0,1-1.07-6.79q-.3-3.47-.3-6.66a97.88,97.88,0,0,1,.49-9.83c.33-3.26.8-6.53,1.41-9.79l16.45.64q-.94,5.52-1.63,11.09a91,91,0,0,0-.69,11.2c0,.39,0,1,0,1.77s.1,1.67.2,2.64.22,2,.4,3a17.18,17.18,0,0,0,.72,2.79,7.51,7.51,0,0,0,1.11,2.08,1.93,1.93,0,0,0,1.53.8,2.36,2.36,0,0,0,1.83-1,9.07,9.07,0,0,0,1.42-2.59,25.32,25.32,0,0,0,1.07-3.72c.31-1.41.56-2.87.78-4.4s.38-3,.51-4.57.23-2.94.31-4.25.14-2.48.16-3.48,0-1.76,0-2.25c0-1.83,0-3.65-.09-5.47s-.15-3.63-.27-5.43h16.46Q409,231.28,409,236.28Z"/><path d="M447.81,256.67a19.89,19.89,0,0,1-1.67,8.42,16.8,16.8,0,0,1-4.57,6,19.48,19.48,0,0,1-6.78,3.58,28.18,28.18,0,0,1-8.35,1.2,17.2,17.2,0,0,1-3.78-.46q-2.06-.45-4.17-1.14c-1.41-.46-2.76-.95-4.06-1.48s-2.45-1-3.46-1.49l1.54-14.49a24.74,24.74,0,0,0,6.63,2.73,28.85,28.85,0,0,0,7.16.93c.44,0,1,0,1.61-.05a7.53,7.53,0,0,0,1.81-.32,3.81,3.81,0,0,0,1.46-.79,1.91,1.91,0,0,0,.6-1.51,1.64,1.64,0,0,0-.42-1.14,3.17,3.17,0,0,0-1.09-.78,6.52,6.52,0,0,0-1.51-.45,14.36,14.36,0,0,0-1.66-.23c-.53,0-1-.07-1.51-.07h-1.12a13.94,13.94,0,0,1-5.5-1.06,12.52,12.52,0,0,1-4.26-2.93,13.57,13.57,0,0,1-2.76-4.47,15.74,15.74,0,0,1-1-5.61,16.09,16.09,0,0,1,1.67-7.43A17.27,17.27,0,0,1,417.1,228a20.14,20.14,0,0,1,6.42-3.53,22.85,22.85,0,0,1,7.49-1.24c1.14,0,2.33,0,3.55.13a34.64,34.64,0,0,1,7.17,1.25,19.35,19.35,0,0,1,3.27,1.23l-1.34,14.27a41.69,41.69,0,0,0-5-1.35,24.56,24.56,0,0,0-5.11-.55l-1.18,0c-.48,0-1,0-1.51.1a15.27,15.27,0,0,0-1.6.27,6.76,6.76,0,0,0-1.44.47,2.91,2.91,0,0,0-1,.79,1.82,1.82,0,0,0,.23,2.41,3.8,3.8,0,0,0,1.4.74,9.7,9.7,0,0,0,1.9.37c.69.07,1.38.11,2.06.12s1.31,0,1.9,0a12,12,0,0,1,1.44.05,14.41,14.41,0,0,1,5.06,1.2,11.62,11.62,0,0,1,3.81,2.71,11.42,11.42,0,0,1,2.4,4A15.41,15.41,0,0,1,447.81,256.67Z"/><path d="M469,225.88l-3.87,47.88-14.83.77V226.86Z"/><path d="M516,225l-16.94,23.42,14.27,24.89L497,276.22,486.34,261l-.56,15.89-14.63.57,1.13-53.86,16.38.91-1.26,15.89,10.9-16.8Z"/><path d="M530.18,245.63a7,7,0,0,1-.6,2.89,7.57,7.57,0,0,1-3.93,3.92,7.19,7.19,0,0,1-2.85.58,7.26,7.26,0,0,1-2.88-.58,7.58,7.58,0,0,1-2.34-1.59,7.23,7.23,0,0,1-1.58-2.33,7.11,7.11,0,0,1-.58-2.89,7.48,7.48,0,0,1,2.16-5.25,7.78,7.78,0,0,1,2.34-1.6,6.94,6.94,0,0,1,2.88-.6,6.87,6.87,0,0,1,2.85.6,7.78,7.78,0,0,1,2.34,1.6,7.65,7.65,0,0,1,1.59,2.37A7.15,7.15,0,0,1,530.18,245.63Zm0,22.5a7,7,0,0,1-.6,2.89,7.57,7.57,0,0,1-3.93,3.92,7.19,7.19,0,0,1-2.85.58,7.26,7.26,0,0,1-2.88-.58,7.58,7.58,0,0,1-2.34-1.59A7.23,7.23,0,0,1,516,271a7.11,7.11,0,0,1-.58-2.89,7.48,7.48,0,0,1,2.16-5.25,7.78,7.78,0,0,1,2.34-1.6,6.94,6.94,0,0,1,2.88-.6,6.87,6.87,0,0,1,2.85.6,7.78,7.78,0,0,1,2.34,1.6,7.65,7.65,0,0,1,1.59,2.37A7.15,7.15,0,0,1,530.18,268.13Z"/><path d="M340.94,341.74l-1.48,15.61-29.6,2.32q.21-12.27.47-24.4t.65-24.4h18.28q-.79,7.69-1.54,15.38t-1.06,15.49c1.1,0,2.19.07,3.27.07h3.27c1.31,0,2.6,0,3.87,0S339.62,341.74,340.94,341.74Z"/><path d="M382,314.17l-19.34,27-.91,22H345.08l.43-21.86-10.06-26.09L353.38,313l2.81,15.19L365.12,313Z"/><path d="M420.35,333.86a29.22,29.22,0,0,1-1.26,8.88,24.29,24.29,0,0,1-3.53,7,24,24,0,0,1-5.4,5.29,30.78,30.78,0,0,1-6.86,3.64,40.38,40.38,0,0,1-7.92,2.11,53.31,53.31,0,0,1-8.64.68c-1.1,0-2.17,0-3.23-.08s-2.13-.15-3.23-.27l1-47.18a44.27,44.27,0,0,1,8-1.74,65.89,65.89,0,0,1,8.14-.51,27.2,27.2,0,0,1,9.25,1.52,20.9,20.9,0,0,1,7.28,4.35,19.78,19.78,0,0,1,4.76,7A24,24,0,0,1,420.35,333.86Zm-14.41,2.25a14.19,14.19,0,0,0-.4-3.65,8.86,8.86,0,0,0-1.45-3.12,7.58,7.58,0,0,0-2.54-2.18,8.45,8.45,0,0,0-3.7-.89l-1.4,21.8a10.24,10.24,0,0,0,3.83-1.39,11.83,11.83,0,0,0,4.9-6.12,13.05,13.05,0,0,0,.76-4Z"/><path d="M455.76,311.08q-.21,3.3-.39,6.54t-.46,6.54l-14.9.77-.36,4.43h10.48l-.77,10.9-10.55.35-.35,5.13h14.91q-.21,3.87-.44,7.69c-.16,2.54-.29,5.09-.41,7.64l-30.3.71,1.12-50.7Z"/><path d="M490.24,311.08c-.14,2.2-.26,4.38-.38,6.54s-.27,4.34-.46,6.54l-14.91.77v4.43h12.94l-.7,10.9-12.31.35.07,20.81-17.78.36,1.12-50.7Z"/><path d="M525.33,311.08q-.21,3.3-.39,6.54c-.11,2.16-.27,4.34-.45,6.54l-14.91.77v4.43h12.94l-.7,10.9-12.31.35.07,20.81-17.79.36,1.13-50.7Z"/><path d="M560.42,311.08q-.21,3.3-.39,6.54t-.46,6.54l-14.9.77-.35,4.43h10.47l-.77,10.9-10.55.35-.35,5.13H558q-.21,3.87-.44,7.69c-.16,2.54-.29,5.09-.41,7.64l-30.3.71,1.12-50.7Z"/><path d="M606.19,311.43l-17,23.42,14.28,24.89-16.31,2.88-10.69-15.19L576,363.32l-14.63.57L562.46,310l16.38.91-1.27,15.89,10.9-16.8Z"/><path d="M643,311.5l-.35,14.91-10.48.42-2.67,33.33-14.84.77.07-33.33-10.47.57.42-16.6Z"/><path d="M678.23,311.08c-.15,2.2-.27,4.38-.39,6.54s-.27,4.34-.46,6.54l-14.9.77-.36,4.43H672.6l-.77,10.9-10.55.35-.35,5.13h14.9q-.21,3.87-.43,7.69c-.16,2.54-.29,5.09-.41,7.64l-30.3.71,1.12-50.7Z"/><path d="M720.62,327.89a23.78,23.78,0,0,1-.47,5,15.18,15.18,0,0,1-1.5,4.1A14.25,14.25,0,0,1,716,340.4a23.3,23.3,0,0,1-3.9,3l8.36,14.91-15.82,3.09-5.41-15-4.36.14-.63,14.62H679.14q.18-8,.33-16t.37-16q.07-4,.14-8t.28-8a45.78,45.78,0,0,1,4.86-1.51,44.47,44.47,0,0,1,4.79-.93c1.61-.23,3.24-.38,4.89-.46s3.35-.12,5.08-.12a27.44,27.44,0,0,1,7.75,1.1,20.08,20.08,0,0,1,6.63,3.33,16.53,16.53,0,0,1,4.62,5.52A16.29,16.29,0,0,1,720.62,327.89ZM704.87,329a8.66,8.66,0,0,0-.4-2.71,5.89,5.89,0,0,0-1.2-2.12,5.42,5.42,0,0,0-2-1.41,6.94,6.94,0,0,0-2.76-.51,10.43,10.43,0,0,0-1.38.09,9.65,9.65,0,0,0-1.3.26l-.56,13.08h.84a12.69,12.69,0,0,0,3.08-.39,9,9,0,0,0,2.81-1.19,6.43,6.43,0,0,0,2-2.08A5.55,5.55,0,0,0,704.87,329Z"/><path d="M737.57,332a7,7,0,0,1-.6,2.89,7.64,7.64,0,0,1-3.94,3.92,7.18,7.18,0,0,1-2.84.58,7.28,7.28,0,0,1-2.89-.58,7.6,7.6,0,0,1-3.92-3.92,7.28,7.28,0,0,1-.58-2.89,7.43,7.43,0,0,1,2.17-5.25,7.61,7.61,0,0,1,2.33-1.6,7,7,0,0,1,2.89-.6,6.86,6.86,0,0,1,2.84.6,7.78,7.78,0,0,1,2.34,1.6,7.68,7.68,0,0,1,1.6,2.37A7.15,7.15,0,0,1,737.57,332Zm0,22.5a7,7,0,0,1-.6,2.89,7.64,7.64,0,0,1-3.94,3.92,7.18,7.18,0,0,1-2.84.58,7.28,7.28,0,0,1-2.89-.58,7.6,7.6,0,0,1-3.92-3.92,7.28,7.28,0,0,1-.58-2.89,7.43,7.43,0,0,1,2.17-5.25,7.61,7.61,0,0,1,2.33-1.6,7,7,0,0,1,2.89-.6,6.86,6.86,0,0,1,2.84.6,7.78,7.78,0,0,1,2.34,1.6,7.68,7.68,0,0,1,1.6,2.37A7.15,7.15,0,0,1,737.57,354.53Z"/><path class="cls-3" d="M106.22,547.07c2.15-.51,5.06,1.09,1.28,8.36-3.67,7.11-11.15,15.35-11,14s5.57-10.12,6.89-15.48S103.87,547.63,106.22,547.07Z"/><path class="cls-3" d="M91.55,537.54c.27-3-2.46-6.84-11.6-1.06C71,542.1,61.25,553,63,552.72c1.6-.12,12.67-8.46,19.69-10.72C89.88,539.55,91.23,540.79,91.55,537.54Z"/><path class="cls-3" d="M92.33,544.23c3,0,6.53,3.19-.22,11.64-6.57,8.28-18.5,16.77-18,15.06.3-1.58,9.81-11.67,12.82-18.4C90.15,545.67,89.06,544.19,92.33,544.23Z"/><path class="cls-3" d="M249.83,542.34c-1.93-.87-5,.1-2.74,7.64,2.15,7.37,7.68,16.51,7.79,15.25s-3.39-10.56-3.64-15.85S251.94,543.31,249.83,542.34Z"/><path class="cls-3" d="M265.39,536.06c.3-2.86,3.57-6,11.12,1.14,7.39,6.93,14.57,19,13,18.41-1.48-.41-10.38-10.31-16.57-13.72C266.6,538.27,265.1,539.19,265.39,536.06Z"/><path class="cls-3" d="M263.43,542.22c-2.83-.5-6.73,1.81-1.93,11,4.67,9,14.34,19.2,14.19,17.49,0-1.54-7.09-12.79-8.69-19.68C265.22,544,266.52,542.78,263.43,542.22Z"/><path class="cls-4" d="M258,407.61c7.64,9.7,15.18,16.37,22.27,20.91-.07-4.92-.19-9.84-.43-14.76-.47-9.39-1.76-18.7-2-28.09-.47-15.57,1.4-35.12-8.79-48.22a5.26,5.26,0,0,1-1.11-2.69A344.53,344.53,0,0,0,231,312.89L198.45,472.66c0,.67,18.9,36.15,18.9,36.15,9.11,56.92,63,47.09,63,47.09C264.14,523.37,258,407.61,258,407.61Z"/><path class="cls-4" d="M138.52,474.36,118.21,312.89s-17,13.35-41.88,32c1,28.35-13,56.08-5.26,83.41A96.67,96.67,0,0,0,90.81,409S86.92,519.56,71.33,548.9c0,0,56.16,31.59,60.75-37.19C132.08,511.71,148.58,480.54,138.52,474.36Z"/><path id="skygge_mave" class="cls-5" d="M116.94,311c1.9,2.49-29.46,141.29,50.56,148.17,101.57,8.73,62.25-150.26,62.25-150.26Z"/><path id="mave" class="cls-6" d="M121.38,310.89S89.14,460.7,167.22,459.24C255.29,457.6,222.9,309,222.9,309Z"/><path class="cls-7" d="M134,344.08s28.32,6.58,77.39,0"/><path class="cls-8" d="M134,356s26.21,1.31,71.64,0"/><path class="cls-9" d="M136.18,364.45s27,4.28,73.74,0"/><path class="cls-8" d="M138.37,392.33s25.92,6.58,70.82,0"/><path class="cls-10" d="M132.53,403.19s27.28,4.28,74.56,0"/><path class="cls-11" d="M132.53,414.26s28.32,6.58,77.39,0"/><path class="cls-12" d="M137.64,426.29s21.67,2.3,59.22,0"/><path class="cls-10" d="M146.42,434s18.69,6.58,51.07,0"/><path class="cls-10" d="M131.79,374.68s25.42,4.28,69.45,0"/><path class="cls-11" d="M132.53,382.09s28.32,6.58,77.39,0"/><path id="striber" class="cls-11" d="M131.79,334.56s30.75,7.14,84,0"/><path class="cls-4" d="M50.5,187.61C64.67,172.24,152,87,273.83,173.89c0,0,25.39,39.18,13.49,84,0,0,11.11,44-111.09,70.36,0,0-76.18-9.59-109.5-38.38,0,0-41.27-34.38-19.8-100.15C47.37,188.34,49.54,188.64,50.5,187.61Z"/><path class="cls-13" d="M119.8,310.89s27.14,22.36,103.28,0c0,0-5.59,41.13-41.29,41.13C181.79,352,119.89,357.57,119.8,310.89Z"/><path class="cls-4" d="M41.38,238.27C8.1,224.5.86,190.93.86,190.93s-6.34-69.83,18.26-73.79,56.37,50,56.37,50l-12.44,18.6Z"/><path class="cls-5" d="M62.76,185.38l-8.13,20.74s-53.77-15.19-35.51-89C19.12,117.14,50.06,138.56,62.76,185.38Z"/><path class="cls-14" d="M75.46,167.13l-12.7,18.25s-34.92-73.8-43.64-68.24C19.12,117.14,61.17,117.93,75.46,167.13Z"/><path class="cls-4" d="M243.69,158.55s44.24,12.11,44.24,61.74c0,0,40.05-12.42,35.88-66.52,0,0,2.5-15.91-17.53-42.16l-5.84-9.55s-7.51,17.5-13.35,17.5C278.74,119.56,242.86,136.27,243.69,158.55Z"/><path class="cls-5" d="M295.26,114s17.46,47.61-27,58.72Z"/><path class="cls-14" d="M243.68,155.22s0-27.77,50.8-41.45c0,0,7.28,37.29-26.2,58.91C268.28,172.68,257.17,158.4,243.68,155.22Z"/><circle class="cls-2" cx="109.97" cy="206.41" r="55.94"/><circle cx="127.83" cy="183.79" r="17.46"/><circle class="cls-2" cx="224.24" cy="206.41" r="55.94"/><circle cx="242.09" cy="183.79" r="17.46"/><path class="cls-15" d="M71.49,271.08s96,75.38,197.58,3.17"/><g class="cls-16"><path class="cls-17" d="M269.36,397.35l-28.07-10.78h0a85,85,0,0,0-1.39-9c-.39-1.82-.83-3.6-1.32-5.36L259.19,347c6.88-8.41,6.47-21.4-.91-28.86l-14.5-14.67c-7.37-7.46-19-6.68-25.92,1.74l-17.34,21.2a61.45,61.45,0,0,0-12.75-4.13L181.58,293c-2.3-10.89-12.22-17.46-22.05-14.62L140.22,284c-9.82,2.84-16,14.07-13.67,24.95l6.1,28.85A74.68,74.68,0,0,0,121.59,350l-21.77-11.6c-9-4.8-20.1-.4-24.63,9.77l-8.91,20c-4.54,10.17-.87,22.42,8.14,27.22l27.83,14.82a16.29,16.29,0,0,0,4.82,1.68c.22,1.32.46,2.63.74,3.94A79.3,79.3,0,0,0,112,429.48a18.5,18.5,0,0,0-1.29,1.73L94.27,455.69c-6.11,9.12-4.55,22,3.48,28.56l15.77,12.95c8,6.58,19.59,4.51,25.71-4.6l15.33-22.86a62.27,62.27,0,0,0,7.89,1.83,22.46,22.46,0,0,0,.39,2.55l4.52,21.4c2.3,10.88,12.22,17.46,22,14.62l19.31-5.59c9.82-2.85,16-14.07,13.67-25l-4.52-21.39a21.86,21.86,0,0,0-1.26-4,75.38,75.38,0,0,0,6.84-7.33L249.74,457c9.47,3.63,20.07-2.1,23.57-12.74l6.89-20.93C283.7,412.67,278.82,401,269.36,397.35Z"/><path class="cls-17" d="M145.43,347.92c-.13-.61-.25-1.23-.36-1.84-18,13.76-27.58,38.8-22.38,63.42,6.68,31.58,35.2,50.49,63.71,42.24,25.42-7.36,42.25-33.84,40.85-61.89a56.4,56.4,0,0,1-11.44,4.74C184.32,403.7,152.81,382.8,145.43,347.92Z"/><path class="cls-17" d="M162.21,337.38a52,52,0,0,0-17.14,8.7c.11.61.23,1.23.36,1.84,7.38,34.88,38.89,55.78,70.38,46.67a56.4,56.4,0,0,0,11.44-4.74,65.6,65.6,0,0,0-1.33-10.23C219.24,348,190.72,329.13,162.21,337.38Z"/><ellipse class="cls-17" cx="175.39" cy="395" rx="44.48" ry="39.78" transform="translate(-237.04 524.16) rotate(-83.45)"/><path class="cls-17" d="M201.65,391.6a33.9,33.9,0,0,0-.58-4c-3.33-15.72-17.53-25.14-31.72-21s-23,20.18-19.68,35.9a29.88,29.88,0,0,0,4.88,11.24,48.92,48.92,0,0,1,27.81-20.7A46,46,0,0,1,201.65,391.6Z"/><path class="cls-17" d="M181.39,423.55c13-3.76,21.48-17.57,20.26-31.95a46,46,0,0,0-19.29,1.46,48.92,48.92,0,0,0-27.81,20.7C160.69,422.35,171,426.55,181.39,423.55Z"/><g class="cls-18"><path class="cls-17" d="M135.12,316.62a1.91,1.91,0,0,1-2.37-1.57c-2.33-11,3.87-22.34,13.82-25.22l9.54-2.76a1.92,1.92,0,0,1,2.37,1.57,2.28,2.28,0,0,1-1.47,2.68l-9.54,2.76c-7.84,2.27-12.72,11.18-10.88,19.86A2.27,2.27,0,0,1,135.12,316.62Z"/></g><g class="cls-18"><path class="cls-17" d="M104.53,479.18a1.16,1.16,0,0,1-1.68.44c-5.25-3.69-6.72-11.53-3.27-17.48l3.3-5.69a1.15,1.15,0,0,1,1.67-.44,1.43,1.43,0,0,1,.35,1.86l-3.3,5.7c-2.71,4.68-1.55,10.85,2.58,13.76A1.42,1.42,0,0,1,104.53,479.18Z"/></g></g><path class="cls-19" d="M281.68,397.1l-34.19-5h0a71.85,71.85,0,0,0-3.14-8.57c-.75-1.72-1.57-3.39-2.44-5l19.46-29a19.79,19.79,0,0,0-6-28.27l-19.22-11.55c-9.77-5.88-23.09-2.78-29.58,6.88L190.23,341a81.23,81.23,0,0,0-15.4-1.53L162.69,311.8c-4.51-10.26-17.06-14.76-27.9-10l-21.31,9.36c-10.83,4.76-16,17.06-11.5,27.32l12,27.21a81,81,0,0,0-10.67,14.22l-27.07-7.07a22.42,22.42,0,0,0-26.72,14.54l-6.86,21.48a19.71,19.71,0,0,0,14,25.2l34.61,9a21.73,21.73,0,0,0,5.85.7c.47,1.25,1,2.5,1.52,3.73a71.52,71.52,0,0,0,7.15,12.64,20.45,20.45,0,0,0-1.19,2l-14.75,27.4A19.7,19.7,0,0,0,98.69,517l20.39,9.62a22.43,22.43,0,0,0,28.85-9.67l13.77-25.58a82,82,0,0,0,9.42.22A18.89,18.89,0,0,0,172,494l8.86,20.17c4.51,10.27,17.07,14.77,27.91,10l21.3-9.36c10.84-4.77,16-17.06,11.51-27.32l-8.87-20.18a18.8,18.8,0,0,0-2.13-3.68,81.37,81.37,0,0,0,6.64-8.59l32,4.71c11.52,1.69,22.77-6.08,25-17.27l4.36-22A19.78,19.78,0,0,0,281.68,397.1Z"/><path class="cls-20" d="M130.4,373.12c-.26-.57-.5-1.15-.73-1.73-18.38,17.15-25.18,43.74-15,66.95,13.09,29.79,49.19,42.73,80.65,28.91,28-12.32,42.92-41.78,36.52-69.13a72.57,72.57,0,0,1-12.38,6.94C184.74,420.33,144.85,406,130.4,373.12Z"/><path class="cls-21" d="M147.94,359.39a65.19,65.19,0,0,0-18.27,12c.23.58.47,1.16.73,1.73,14.45,32.91,54.34,47.21,89.08,31.94a72.57,72.57,0,0,0,12.38-6.94,56,56,0,0,0-3.27-9.82C215.5,358.51,179.4,345.57,147.94,359.39Z"/><ellipse class="cls-22" cx="172.96" cy="413.53" rx="46.75" ry="44.28" transform="translate(-151.74 104.51) rotate(-23.72)"/><path class="cls-21" d="M202.65,405a28.39,28.39,0,0,0-1.34-3.78c-6.52-14.83-24.49-21.27-40.15-14.39s-23.07,24.47-16.55,39.3a27.66,27.66,0,0,0,7.54,10.1c5.19-10.51,15.23-20.1,28.52-25.94A62.56,62.56,0,0,1,202.65,405Z"/><path class="cls-20" d="M184.75,440.47c14.35-6.3,21.77-21.6,17.9-35.52a62.56,62.56,0,0,0-22,5.29c-13.29,5.84-23.33,15.43-28.52,25.94A31.09,31.09,0,0,0,184.75,440.47Z"/><g class="cls-18"><path class="cls-2" d="M113.17,344.35a2.26,2.26,0,0,1-3-1.07c-4.57-10.41.65-22.79,11.63-27.62L132.32,311a2.19,2.19,0,1,1,1.77,4l-10.53,4.62c-8.65,3.8-12.75,13.56-9.15,21.74A2.26,2.26,0,0,1,113.17,344.35Z"/></g><g class="cls-18"><path class="cls-2" d="M105.64,510.63a1.47,1.47,0,0,1-1.85.77A12.2,12.2,0,0,1,97,494.83l2.83-6.27a1.49,1.49,0,0,1,1.86-.77,1.31,1.31,0,0,1,.72,1.77l-2.83,6.27a9.6,9.6,0,0,0,5.32,13A1.29,1.29,0,0,1,105.64,510.63Z"/></g><path class="cls-4" d="M263.32,328.45s-28,74.2-60.88,65.13c0,0-23.1,35.36,3.18,44.32,0,0,54.63-4.64,71.64-42S263.32,328.45,263.32,328.45Z"/><path class="cls-4" d="M96.33,336.9c12.3,20,35.89,62.92,61.9,60.06a10.32,10.32,0,0,1,9.76,4.5c6.77,10.23,17.54,31.51-2.17,41a9.94,9.94,0,0,1-4.74.93c-12-.5-54.4-8.37-74.75-42.5C72.19,377.18,69,358.62,76.82,345,80.71,338.23,92.26,330.26,96.33,336.9Z"/><path class="cls-3" d="M148.83,433c-2.05.58-3.75,3.3,2.85,7.65,6.44,4.27,16.61,7.71,15.88,6.67-.57-1-9.45-5.92-13.08-9.82C150.67,433.58,151.08,432.41,148.83,433Z"/><path class="cls-3" d="M156.73,418.11c-1.64-2.39-1.14-6.92,9.28-6.34,10.18.53,23.53,5.16,21.91,5.74-1.4.64-14.66-1.19-21.64.21C159.08,419,158.53,420.7,156.73,418.11Z"/><path class="cls-3" d="M159.21,424.11c-2.5,1.46-4,5.76,5.65,9.72,9.43,3.89,23.48,5.45,22.26,4.23-1-1.18-13.75-5.23-19.45-9.49C161.73,424.3,162,422.54,159.21,424.11Z"/><path class="cls-3" d="M219.56,423.2c2.05.59,3.75,3.3-2.85,7.66-6.44,4.27-16.61,7.7-15.88,6.66.57-1,9.45-5.92,13.08-9.82C217.72,423.76,217.31,422.58,219.56,423.2Z"/><path class="cls-3" d="M211.67,408.28c1.63-2.39,1.13-6.92-9.29-6.34-10.18.54-23.53,5.17-21.91,5.74,1.41.65,14.66-1.19,21.64.21C209.31,409.19,209.87,410.87,211.67,408.28Z"/><path class="cls-3" d="M209.18,414.29c2.5,1.45,4,5.75-5.65,9.71-9.43,3.89-23.48,5.45-22.26,4.24,1-1.19,13.75-5.23,19.45-9.49C206.66,414.48,206.44,412.72,209.18,414.29Z"/></g></svg>
