<svg xmlns="http://www.w3.org/2000/svg" width="750" height="760" viewBox="0 0 750 760"><defs><style>.cls-1{fill:#3b5972;}.cls-2{fill:#83adc4;}.cls-3{fill:#48aacc;}.cls-4{fill:#255e77;}.cls-5{opacity:0.58;}.cls-6{fill:#fff;}</style></defs><title>setting_knap</title><g id="setting"><g id="ui"><path class="cls-1" d="M710.39,476.11l-89.88-59.47h0a246,246,0,0,0,1.77-29.53q0-9.12-.66-18.07L712,308.48a66.25,66.25,0,0,0,18.14-91.64l-39.74-59.35a66.25,66.25,0,0,0-91.64-18.14l-76.07,50.93a244.61,244.61,0,0,0-41.4-24.61V67.9A66.26,66.26,0,0,0,415.26,1.84H343.83A66.26,66.26,0,0,0,277.77,67.9v96.32a244.05,244.05,0,0,0-47.54,28.3l-67.34-56.3a66.25,66.25,0,0,0-93,8.32L24,199.34a66.25,66.25,0,0,0,8.31,93l86.09,72A65.52,65.52,0,0,0,134,374q-.34,6.49-.35,13.06a245.64,245.64,0,0,0,4.49,46.82,66.28,66.28,0,0,0-5.77,4.25L57.09,500.26a66.25,66.25,0,0,0-8.94,93l45.44,55.11a66.26,66.26,0,0,0,93,8.94l70.3-58A245.49,245.49,0,0,0,283,612.28a66.43,66.43,0,0,0-.53,8.39V692.1a66.25,66.25,0,0,0,66.06,66.06H420a66.25,66.25,0,0,0,66.06-66.06V620.67A66,66,0,0,0,484.61,607a243.78,243.78,0,0,0,29.26-16.82l84.2,55.72a66.25,66.25,0,0,0,91.54-18.64L729,567.65A66.25,66.25,0,0,0,710.39,476.11Z"/><path class="cls-2" d="M314.85,207.75c0-2,0-4.07.09-6.1A191,191,0,0,0,190.2,380.79c0,105.44,85.48,190.92,190.92,190.92,94.05,0,172.21-68,188-157.52a212.19,212.19,0,0,1-43.37,4.47C409.28,418.66,314.85,324.23,314.85,207.75Z"/><path class="cls-3" d="M381.12,189.87a190.56,190.56,0,0,0-66.18,11.78c-.05,2-.09,4.06-.09,6.1,0,116.48,94.43,210.91,210.91,210.91a212.19,212.19,0,0,0,43.37-4.47,192.53,192.53,0,0,0,2.91-33.4C572,275.35,486.57,189.87,381.12,189.87Z"/><circle class="cls-4" cx="384.58" cy="383.15" r="143.5"/><path class="cls-3" d="M478.61,396.39a95.05,95.05,0,1,0-189.21-13,94.71,94.71,0,0,0,8.71,39.8c27.59-24.42,67.64-39.79,112.2-39.79A182.41,182.41,0,0,1,478.61,396.39Z"/><path class="cls-2" d="M384.44,478.46a95.07,95.07,0,0,0,94.17-82.07,182.41,182.41,0,0,0-68.3-13c-44.56,0-84.61,15.37-112.2,39.79A95.06,95.06,0,0,0,384.44,478.46Z"/><g class="cls-5"><path class="cls-6" d="M302,99.91a7.1,7.1,0,0,1-7.1-7.1A66.84,66.84,0,0,1,361.64,26h35.29a7.1,7.1,0,0,1,0,14.2H361.64a52.63,52.63,0,0,0-52.57,52.57A7.1,7.1,0,0,1,302,99.91Z"/></g><g class="cls-5"><path class="cls-6" d="M75.52,583.5a4.35,4.35,0,0,1-6.16-.16,41,41,0,0,1,1.47-58l15.7-14.92a4.36,4.36,0,0,1,6,6.32L76.83,531.7a32.3,32.3,0,0,0-1.15,45.63A4.38,4.38,0,0,1,75.52,583.5Z"/></g></g></g></svg>
