<svg xmlns="http://www.w3.org/2000/svg" width="240" height="270" viewBox="0 0 240 270"><defs><style>.cls-1{fill:#fff;}.cls-2{fill:gray;}</style></defs><title>stopur</title><g id="spil_skærm"><circle cx="120" cy="152.21" r="115.5"/><circle class="cls-1" cx="120.5" cy="152.71" r="98"/><circle class="cls-2" cx="120.5" cy="152.71" r="91"/><rect x="52.55" y="45.09" width="11.59" height="19.17" rx="5.8" ry="5.8" transform="translate(-21.46 49.61) rotate(-39.51)"/><rect x="31.08" y="24.02" width="27.93" height="29.89" rx="12" ry="12" transform="translate(-14.5 37.56) rotate(-39.51)"/><rect x="172.97" y="39.81" width="11.59" height="19.17" rx="5.8" ry="5.8" transform="translate(298.43 191.1) rotate(-145.62)"/><rect x="176.65" y="17.61" width="27.93" height="29.89" rx="12" ry="12" transform="translate(329.55 167.05) rotate(-145.62)"/><rect x="108.92" y="28.24" width="15.17" height="19.17" rx="5.8" ry="5.8" transform="translate(0.11 -0.33) rotate(0.16)"/><rect x="97.95" y="2.3" width="36.55" height="29.89" rx="12" ry="12" transform="translate(0.05 -0.33) rotate(0.16)"/><rect class="cls-1" x="46.5" y="118.71" width="147.55" height="63"/></g></svg>
