<svg xmlns="http://www.w3.org/2000/svg" width="200" height="200" viewBox="0 0 200 200"><defs><style>.cls-1{fill:#3b5972;}.cls-2{opacity:0.1;}.cls-3{fill:#1c2b35;}.cls-4{fill:#52b2e2;}.cls-5{opacity:0.36;}.cls-6{fill:#fff;}</style></defs><title>tilbage_knap</title><g id="game_over"><circle class="cls-1" cx="100" cy="100" r="95.5"/><g class="cls-2"><path class="cls-3" d="M173.41,117.63H58.08a5.09,5.09,0,1,1,0-10.18H173.41a5.09,5.09,0,1,1,0,10.18Z"/><polygon class="cls-3" points="79.6 145.04 50.93 128.96 22.26 112.87 50.53 96.09 78.79 79.3 79.19 112.17 79.6 145.04"/></g><path class="cls-4" d="M168.87,107.2h-105a4.64,4.64,0,0,1,0-9.27h105a4.64,4.64,0,0,1,0,9.27Z"/><polygon class="cls-4" points="83.46 132.15 57.36 117.51 31.26 102.86 56.99 87.58 82.73 72.3 83.09 102.23 83.46 132.15"/><g class="cls-5"><path class="cls-6" d="M74.81,28.15a4.5,4.5,0,0,1,2.39-5.9,72.59,72.59,0,0,1,95,38.6,4.5,4.5,0,1,1-8.29,3.5,63.57,63.57,0,0,0-83.2-33.8A4.5,4.5,0,0,1,74.81,28.15Z"/></g></g></svg>
