<svg id="title_skærm" xmlns="http://www.w3.org/2000/svg" width="1920" height="1080" viewBox="0 0 1920 1080"><defs><style>.cls-1{fill:#4a8ed1;}.cls-2{fill:#d6d6d9;}.cls-3{fill:#2aeeff;}.cls-4{fill:#3fbcff;}.cls-5{fill:#2ac0ff;}.cls-6{fill:#6ab2ff;}.cls-7{fill:#f4f4f4;}.cls-8{opacity:0.2;}.cls-9{fill:#500754;}.cls-10{fill:#e7e21a;}.cls-11{opacity:0.75;}.cls-12{fill:#20ee6a;}.cls-13{fill:#800983;}.cls-14{opacity:0.35;}.cls-15{fill:#9a0aa2;}.cls-16{fill:#fff;}.cls-17{fill:#edbaf1;}.cls-18{opacity:0.32;}.cls-19{opacity:0.33;}.cls-20{fill:#140c02;}.cls-21,.cls-22,.cls-47{fill:#ededed;}.cls-21,.cls-22{stroke:#fff;stroke-miterlimit:10;}.cls-21{stroke-width:4px;}.cls-22{stroke-width:2px;}.cls-23{fill:#ff3600;}.cls-24{fill:#fff63f;}.cls-25{fill:#ff7300;}.cls-26{fill:#cfffff;}.cls-27{fill:#ff2aa0;}.cls-28{fill:#ff2a3b;}.cls-29{fill:#ea2828;}.cls-30{fill:#f7f6f5;}.cls-31{fill:#ffe0bd;}.cls-32{fill:#ffcd94;}.cls-33{fill:#bfb5a8;}.cls-34{fill:#fff6f5;}.cls-35{fill:#0029ae;}.cls-36{fill:#352006;}.cls-37{fill:#d2ad84;}.cls-38{fill:#663d0c;}.cls-39{fill:#5e3908;}.cls-40{fill:#7a552d;}.cls-41{opacity:0.29;}.cls-42{opacity:0.38;}.cls-43{opacity:0.39;}.cls-44{opacity:0.7;}.cls-45{fill:#eee9e5;}.cls-46{opacity:0.54;}</style></defs><title>title_skaerm</title><rect class="cls-1" x="-0.5" y="-0.5" width="1923" height="1080"/><path class="cls-2" d="M1439.58,609.78c12.91,24.9.52,45.26-27.53,45.25h-5.89l-102-.06h-5.89c-28,0-40.41-20.39-27.47-45.28l7-13.39,47-90.49,7-13.39c12.94-24.89,34.09-24.87,47,0l6.94,13.4,46.93,90.56Z"/><rect class="cls-2" x="1324" y="437" width="63" height="93" rx="12" ry="12"/><path class="cls-3" d="M1417.58,593c-3.82-7.35-8.52-16.44-13.47-26h-97.29c-4.94,9.5-9.64,18.56-13.46,25.89l-5.58,10.73c-10.38,20-.46,36.31,22,36.32h4.73l81.8.06h4.72c22.5,0,32.43-16.31,22.08-36.29Z"/><circle class="cls-3" cx="1326.5" cy="549.5" r="7.5"/><circle class="cls-3" cx="1341.5" cy="544.5" r="4.5"/><circle class="cls-4" cx="1337.5" cy="589.5" r="7.5"/><circle class="cls-5" cx="1353" cy="567" r="6"/><circle class="cls-3" cx="1378.5" cy="569.5" r="7.5"/><circle class="cls-3" cx="1373.5" cy="547.5" r="5.5"/><circle class="cls-6" cx="1368.5" cy="536.5" r="3.5"/><circle class="cls-3" cx="1357.5" cy="518.5" r="7.5"/><circle class="cls-3" cx="1367.5" cy="492.5" r="3.5"/><path class="cls-2" d="M160,1063c-8.72-20-28.09-34-50.61-34s-41.9,14-50.62,34Z"/><path class="cls-7" d="M436.8,79.17a44.38,44.38,0,0,1,26.8,8.6q15.79,11.6,15.8,34t-15.8,34a44.38,44.38,0,0,1-26.8,8.6h-28q-4.2,0-4.2,4.2v60h84.2v10.6H394v-70.6a14,14,0,0,1,4.2-10.5,14.56,14.56,0,0,1,10.6-4.1h28a36.44,36.44,0,0,0,16.6-4.4q15.41-8,15.4-27.8T453.4,94a36.08,36.08,0,0,0-16.6-4.2H386v134.8a14,14,0,0,1-14.6,14.6H366v-10.6h5.2c2.8-.13,4.2-1.47,4.2-4V79.17Z"/><path class="cls-7" d="M611.4,228.57v10.6H594.6l-75.8-75.6V154h40.6a36.47,36.47,0,0,0,16.6-4.4q15.39-8,15.4-27.8T576,94a36.08,36.08,0,0,0-16.6-4.2H508.6v134.8a14,14,0,0,1-14.6,14.6h-5.4v-10.4l5.2-.2c2.8-.13,4.2-1.47,4.2-4V79.17h61.4a44.38,44.38,0,0,1,26.8,8.6q15.79,11.6,15.8,34t-15.8,34a44.38,44.38,0,0,1-26.8,8.6H534.6l64.2,64.2Z"/><path class="cls-7" d="M641.3,98.87q20.7-20.7,50.3-20.7,29.79,0,50.5,20.7t20.7,50.5a71.21,71.21,0,0,1-56.4,69.4v9.8h65.8v10.6H695.6v-29.4l4.61-.6a56.79,56.79,0,0,0,37.13-20.1,59.2,59.2,0,0,0,14.86-39.7q0-25.4-17.6-43t-43-17.6q-25.2,0-42.8,17.7t-17.6,42.9a59.29,59.29,0,0,0,14.8,39.7,56.52,56.52,0,0,0,37,20.1l4.6.6v29.4H611.2v-10.6H677v-9.8a71.21,71.21,0,0,1-56.4-69.4Q620.6,119.57,641.3,98.87Z"/><path class="cls-7" d="M880.4,79.17a14.58,14.58,0,0,1,10.6,4.1,14,14,0,0,1,4.2,10.5,14,14,0,0,1-4.2,10.5,14.58,14.58,0,0,1-10.6,4.1h-56a13.41,13.41,0,1,0,0,26.8h37.4a15,15,0,0,1,10.6,25.2q-4,4-10.6,4H824.4a12.7,12.7,0,0,0-13.4,13.4v50.8h93.4v10.6h-104V177.62q0-10.43,6.8-17.14t17.2-6.71h37.4c2.66,0,4-1.37,4-4.1s-1.34-3.9-4-3.9H824.4q-10.41,0-17.2-6.8t-6.8-17.2q0-10.39,6.8-17.2t17.2-6.8h56q4.2,0,4.2-4t-4.2-4h-88v134.8a14,14,0,0,1-14.6,14.6h-5.4v-10.6h5.2c2.8-.13,4.2-1.47,4.2-4V79.17Z"/><path class="cls-7" d="M1012.2,79.17a14.58,14.58,0,0,1,10.6,4.1,14,14,0,0,1,4.2,10.5,14,14,0,0,1-4.2,10.5,14.58,14.58,0,0,1-10.6,4.1h-56a13.41,13.41,0,1,0,0,26.8h37.4a15,15,0,0,1,10.6,25.2q-4,4-10.6,4H956.2a12.7,12.7,0,0,0-13.4,13.4q0,13.39,13.4,13.4h56A14.36,14.36,0,0,1,1027,206a14,14,0,0,1-4.3,10.4,14.47,14.47,0,0,1-10.5,4.2H947q-4.2,0-4.2,4t4.2,4h89.2v10.6H947a14.56,14.56,0,0,1-10.6-4.1,15.22,15.22,0,0,1,0-21A14.56,14.56,0,0,1,947,210h65.2q4.2,0,4.2-3.91,0-4.09-4.2-4.09h-56a23.2,23.2,0,0,1-17.2-6.86q-6.81-6.86-6.8-17.34t6.8-17.25q6.79-6.75,17.2-6.75h37.4c2.66,0,4-1.37,4-4.1s-1.34-3.9-4-3.9H956.2q-10.41,0-17.2-6.8t-6.8-17.2q0-10.39,6.8-17.2t17.2-6.8h56q4.2,0,4.2-4t-4.2-4h-88v134.8a14,14,0,0,1-14.6,14.6h-5.4v-10.6h5.2c2.8-.13,4.2-1.47,4.2-4V79.17Z"/><path class="cls-7" d="M1063,88.77a51.05,51.05,0,0,1,59.6,0q17.4,12.8,17.4,37.8v4.6a14.61,14.61,0,1,1-29.21,0v-4.6q0-11-8.4-15.6a19.24,19.24,0,0,0-9.6-2.6A19.6,19.6,0,0,0,1083,111q-8.41,4.61-8.4,15.6,0,10.8,8.4,15.4a20.36,20.36,0,0,0,9.79,2.6,49.46,49.46,0,0,1,29.81,9.6Q1140,167,1140,191.77q0,24-16.4,36.8h25.79v10.6h-56.6v-10.6a40.24,40.24,0,0,0,18.81-4.8q17.79-9.2,17.79-32,0-22.61-17.79-31.8-7-3.6-19.4-4.8-28.21-2.59-28.2-28.6,0-12.6,8.1-20.7t20.69-8.1q12.62,0,20.6,8.1t8,20.7v4.6c0,2.67,1.34,4,4,4s4-1.33,4-4v-4.6q0-22.8-17.79-32a39.63,39.63,0,0,0-37.81,0q-17.79,9.2-17.79,32,0,22.6,17.79,31.8a40.62,40.62,0,0,0,19,4.8q12.4,0,20.5,8.1t8.1,20.5q0,12.6-8,20.7t-20.6,8.1q-12.6,0-20.69-8.1t-8.1-20.7v-9.2c0-2.8-1.34-4.2-4-4.2s-4,1.4-4,4.2v42a14.36,14.36,0,0,1-14.61,14.6H1036v-10.4l5.2-.2c2.8-.13,4.19-1.47,4.19-4v-42a14.36,14.36,0,0,1,4-10.6q4-4,10.61-4t10.6,4a14.36,14.36,0,0,1,4,10.6v9.2q0,11,8.4,15.6a19.24,19.24,0,0,0,9.6,2.6,19.6,19.6,0,0,0,9.79-2.6q8.41-4.6,8.4-15.6,0-10.8-8.4-15.4a20,20,0,0,0-9.6-2.6,49.38,49.38,0,0,1-29.79-9.6q-17.61-12.79-17.61-37.6Q1045.39,101.57,1063,88.77Z"/><path class="cls-7" d="M1176.39,88.77a51.05,51.05,0,0,1,59.6,0q17.4,12.8,17.4,37.8v4.6a14.6,14.6,0,1,1-29.2,0v-4.6q0-11-8.4-15.6a19.3,19.3,0,0,0-9.6-2.6,19.64,19.64,0,0,0-9.8,2.6q-8.4,4.61-8.4,15.6,0,10.8,8.4,15.4a20.4,20.4,0,0,0,9.8,2.6,49.41,49.41,0,0,1,29.8,9.6q17.4,12.79,17.4,37.6,0,24-16.4,36.8h25.8v10.6h-56.6v-10.6a40.2,40.2,0,0,0,18.8-4.8q17.8-9.2,17.8-32,0-22.61-17.8-31.8-7-3.6-19.4-4.8-28.2-2.59-28.2-28.6,0-12.6,8.1-20.7t20.7-8.1q12.6,0,20.6,8.1t8,20.7v4.6q0,4,4,4t4-4v-4.6q0-22.8-17.8-32a39.61,39.61,0,0,0-37.8,0q-17.81,9.2-17.8,32,0,22.6,17.8,31.8a40.59,40.59,0,0,0,19,4.8q12.4,0,20.5,8.1t8.1,20.5q0,12.6-8,20.7t-20.6,8.1q-12.6,0-20.7-8.1t-8.1-20.7v-9.2q0-4.2-4-4.2t-4,4.2v42a14.35,14.35,0,0,1-14.6,14.6h-5.4v-10.4l5.2-.2c2.8-.13,4.2-1.47,4.2-4v-42q0-6.6,4-10.6t10.6-4q6.6,0,10.6,4t4,10.6v9.2q0,11,8.4,15.6a19.3,19.3,0,0,0,9.6,2.6,19.64,19.64,0,0,0,9.8-2.6q8.4-4.6,8.4-15.6,0-10.8-8.4-15.4a20,20,0,0,0-9.6-2.6,49.41,49.41,0,0,1-29.8-9.6q-17.6-12.79-17.6-37.6Q1158.79,101.57,1176.39,88.77Z"/><path class="cls-7" d="M1292.89,98.87q20.7-20.7,50.3-20.7,29.8,0,50.5,20.7t20.7,50.5a71.21,71.21,0,0,1-56.4,69.4v9.8h65.8v10.6h-76.6v-29.4l4.62-.6a56.82,56.82,0,0,0,37.13-20.1,59.19,59.19,0,0,0,14.85-39.7q0-25.4-17.6-43t-43-17.6q-25.2,0-42.8,17.7t-17.6,42.9a59.29,59.29,0,0,0,14.8,39.7,56.54,56.54,0,0,0,37,20.1l4.6.6v29.4h-76.4v-10.6h65.8v-9.8a71.21,71.21,0,0,1-56.4-69.4Q1272.19,119.57,1292.89,98.87Z"/><path class="cls-7" d="M1546.79,228.57v10.6H1530l-75.8-75.6V154h40.6a36.44,36.44,0,0,0,16.6-4.4q15.4-8,15.4-27.8T1511.39,94a36.08,36.08,0,0,0-16.6-4.2H1444v134.8a14,14,0,0,1-14.6,14.6H1424v-10.4l5.2-.2c2.8-.13,4.2-1.47,4.2-4V79.17h61.4a44.38,44.38,0,0,1,26.8,8.6q15.79,11.6,15.8,34t-15.8,34a44.38,44.38,0,0,1-26.8,8.6H1470l64.2,64.2Z"/><g id="skygge_mave" class="cls-8"><path class="cls-9" d="M865.82,991.9c2.67,3.28-41.39,186.56,71,195.64,142.68,11.53,87.44-198.41,87.44-198.41Z"/></g><g id="mave"><path class="cls-10" d="M872.06,991.79s-45.28,197.81,64.4,195.89c123.72-2.17,78.21-198.38,78.21-198.38Z"/></g><g class="cls-11"><path class="cls-12" d="M939.9,1041.45c-32.24,0-50.29-3.82-50.55-3.88l.85-3.91c.1,0,10.09,2.17,28.33,3.22,16.83,1,44.33,1.21,79.72-3.25l.5,4A470.75,470.75,0,0,1,939.9,1041.45Z"/></g><g class="cls-11"><path class="cls-12" d="M936.14,1052.58c-29.61,0-46.15-.75-46.39-.77l0-1c.36,0,37.54,1.71,100.6,0l0,1C969.29,1052.39,951.06,1052.58,936.14,1052.58Z"/></g><g class="cls-11"><path class="cls-12" d="M940.61,1067.5c-30.69,0-47.87-2.48-48.13-2.52l.74-4.94c.38,0,38.43,5.53,103,0l.43,5C974.86,1066.88,956,1067.5,940.61,1067.5Z"/></g><g class="cls-11"><path class="cls-12" d="M931.66,1079.52c-28.8,0-44.89-2.47-45.12-2.51l.31-2c.35,0,36.31,5.56,97.31,0l.19,2C963.84,1078.89,946.14,1079.52,931.66,1079.52Z"/></g><g id="striber" class="cls-11"><path class="cls-12" d="M941.09,1028.7c-34.91,0-54.43-4.13-54.72-4.19l.64-2.93c.43.09,43.85,9.26,117.52,0l.37,3A511.18,511.18,0,0,1,941.09,1028.7Z"/></g><path class="cls-13" d="M772.48,829c19.91-20.29,142.63-132.91,313.75-18.11,0,0,35.67,51.73,19,110.85,0,0,15.61,58.07-156.06,92.91,0,0-107-12.67-153.84-50.68,0,0-58-45.39-27.81-132.23C768.09,830,771.14,830.38,772.48,829Z"/><g class="cls-14"><path class="cls-13" d="M869.84,991.79s38.13,29.52,145.1,0c0,0-7.85,54.3-58,54.3C956.92,1046.09,870,1053.43,869.84,991.79Z"/></g><path class="cls-9" d="M759.68,895.9c-46.75-18.17-56.92-62.5-56.92-62.5S693.84,741.19,728.4,736s79.19,65.95,79.19,65.95l-17.47,24.57Z"/><path class="cls-9" d="M789.71,826.06l-11.42,27.4S702.76,833.4,728.4,736C728.4,736,771.87,764.25,789.71,826.06Z"/><path class="cls-15" d="M807.54,802l-17.83,24.1S740.66,728.62,728.4,736C728.4,736,787.48,737,807.54,802Z"/><path class="cls-9" d="M1043.89,790.63s62.14,16,62.14,81.54c0,0,56.27-16.41,50.41-87.84,0,0,3.52-21-24.62-55.68l-8.2-12.6s-10.56,23.11-18.76,23.11C1093.13,739.16,1042.72,761.22,1043.89,790.63Z"/><g class="cls-8"><path class="cls-9" d="M1116.29,732s24.54,62.91-37.92,77.58Z"/></g><path class="cls-15" d="M1043.87,786.25s0-36.67,71.36-54.74c0,0,10.24,49.24-36.8,77.79C1078.43,809.3,1062.82,790.44,1043.87,786.25Z"/><ellipse class="cls-16" cx="856.04" cy="853.83" rx="78.59" ry="73.87"/><ellipse cx="881.12" cy="823.97" rx="24.52" ry="23.05"/><ellipse class="cls-16" cx="1016.56" cy="853.83" rx="78.59" ry="73.87"/><ellipse cx="1041.64" cy="823.97" rx="24.52" ry="23.05"/><path class="cls-17" d="M947.69,985.23a248,248,0,0,1-60.56-7.67c-51.07-12.84-85.12-37.69-85.46-37.94l.6-.8c.33.25,34.26,25,85.14,37.78,29.87,7.51,59.65,9.49,88.53,5.88C1012,978,1046.79,964.7,1079.27,943l.55.83C1047.21,965.62,1012.29,979,976,983.48A228.46,228.46,0,0,1,947.69,985.23Z"/><g class="cls-18"><ellipse class="cls-9" cx="782.31" cy="958.92" rx="28.81" ry="56.61" transform="translate(-349.54 458.47) rotate(-26.94)"/></g><g class="cls-19"><ellipse class="cls-9" cx="1097.03" cy="944.17" rx="12.8" ry="6.2" transform="translate(-307.39 1294.23) rotate(-54.71)"/></g><path class="cls-13" d="M859.5,1023S740.26,906.69,754.66,847s115.54-131,115.54-131,9.84-43.58-14.05-40.93-143.29,33-154.53,158.44S755,1010.5,755,1010.5s21.65,141.59,122.51,142.76Z"/><path class="cls-13" d="M1027.38,1027s119.25-116.35,104.85-176-115.55-131-115.55-131-9.83-43.57,14.05-40.93,143.3,33,154.53,158.45-53.38,176.93-53.38,176.93-21.65,141.59-122.51,142.76Z"/><rect class="cls-20" x="100" y="116" width="22" height="956" rx="11" ry="11"/><rect class="cls-20" x="-20" y="1062" width="322" height="18" rx="9" ry="9"/><path class="cls-21" d="M1076.05,367.64a1.44,1.44,0,0,1,1.26-1.52,9.31,9.31,0,0,1,2.73-.2,3.49,3.49,0,0,0,2.72-1.21c.84-.85,1.26-2.28,1.26-4.27V271.67a1.61,1.61,0,0,1,.5-1.15,1.56,1.56,0,0,1,1.14-.49h55.9a1.69,1.69,0,0,1,1.64,1.64,1.44,1.44,0,0,1-.5,1.11,1.62,1.62,0,0,1-1.14.47h-54.32V318h31.18q3.91-8,10-8a8.55,8.55,0,0,1,5.83,2c1.54,1.35,2.31,2.72,2.31,4.13a4.54,4.54,0,0,1-.53,2,3.26,3.26,0,0,1-1.46,1.35,15,15,0,0,1-2,.82,13.75,13.75,0,0,1-2.7.47c-1.11.09-2.09.16-2.93.2s-1.94.07-3.31.09-2.44.05-3.22.09a38.21,38.21,0,0,0-2.87,15.06,36.37,36.37,0,0,0,2.11,12.62,27,27,0,0,0,5.56,9.44A25.86,25.86,0,0,0,1133,364a20.06,20.06,0,0,0,8.67,2,1.62,1.62,0,0,1,1.14.47,1.48,1.48,0,0,1,.5,1.11,1.51,1.51,0,0,1-.5,1.12,1.62,1.62,0,0,1-1.14.47,23.15,23.15,0,0,1-9.55-2.14,30.09,30.09,0,0,1-8.73-6,28.89,28.89,0,0,1-6.48-10.13,36.81,36.81,0,0,1-2.49-13.75,46.3,46.3,0,0,1,2.64-15.93h-29.77v39.2q0,4.86-2.37,6.82t-7.24,2a1.54,1.54,0,0,1-1.11-.47A1.56,1.56,0,0,1,1076.05,367.64ZM1122.11,318q.47,0,2.4.09c1.29.06,2.34.09,3.16.09q5.68,0,5.69-2.05c0-.62-.54-1.26-1.61-1.9a6.24,6.24,0,0,0-3.26-1Q1125,313.27,1122.11,318Z"/><path class="cls-21" d="M1188.32,270.91a1.64,1.64,0,0,1,1.52-1,1.59,1.59,0,0,1,1.53,1q5.27,13.53,13.65,35.21,13.47,35,17.63,44,5,11.08,9,14.07a9.57,9.57,0,0,0,6,1.87,1.62,1.62,0,0,1,1.14.47,1.48,1.48,0,0,1,.5,1.11,1.51,1.51,0,0,1-.5,1.12,1.62,1.62,0,0,1-1.14.47,16,16,0,0,1-3.78-.41,10.13,10.13,0,0,1-3.43-1.67,20.5,20.5,0,0,1-3.19-2.82,26.86,26.86,0,0,1-3.23-4.57q-1.79-3-3.34-6.18t-3.81-8.47q-2.25-5.3-4.33-10.57t-5.19-13.3H1173q-2.94,8-4.81,12.86t-4.07,10.34q-2.21,5.44-3.69,8.5t-3.4,6.27a25.48,25.48,0,0,1-3.43,4.77,24.8,24.8,0,0,1-3.48,2.93,11.58,11.58,0,0,1-4,1.85,20,20,0,0,1-4.48.47,1.61,1.61,0,0,1-1.58-1.59,1.48,1.48,0,0,1,.47-1.11,1.52,1.52,0,0,1,1.11-.47,12.27,12.27,0,0,0,9.14-3.63q4.15-4.15,9.67-17.46,2.68-6.63,14.94-39.67Q1182.29,286.61,1188.32,270.91ZM1174.2,318h31.87l-16.23-42.07Z"/><path class="cls-21" d="M1236,367.64a1.44,1.44,0,0,1,1.26-1.52,9.31,9.31,0,0,1,2.73-.2,3.49,3.49,0,0,0,2.72-1.21c.84-.85,1.26-2.28,1.26-4.27V271.67a1.61,1.61,0,0,1,.5-1.15,1.56,1.56,0,0,1,1.14-.49,1.5,1.5,0,0,1,1.12.49,1.66,1.66,0,0,1,.47,1.15v5.74a34.76,34.76,0,0,1,9.84-5.45,32.74,32.74,0,0,1,11.48-2.17,30.47,30.47,0,0,1,12.1,2.17,18.3,18.3,0,0,1,7.88,6.24,27.27,27.27,0,0,1,4.16,9.26,49.91,49.91,0,0,1,1.29,12,22.85,22.85,0,0,1-1.64,9,16.13,16.13,0,0,1-4.48,6.27,25.12,25.12,0,0,1-5.8,3.72,29.6,29.6,0,0,1-6.42,2.06,14.38,14.38,0,0,1,5.48,4.3,19.72,19.72,0,0,1,3.19,7.62,56.69,56.69,0,0,1,1.12,12.39q0,11.31,4.33,16.29t13.77,5a1.56,1.56,0,0,1,1.12.47,1.52,1.52,0,0,1,.47,1.11,1.6,1.6,0,0,1-1.59,1.59q-10.6,0-15.93-5.78t-5.34-18.66q0-12.54-3.72-18t-11.39-5.51q-4.58,0-7.3-.15a34.63,34.63,0,0,1-6.41-1.08,18.2,18.2,0,0,1-6.21-2.76v43.19c0,3.24-.8,5.51-2.38,6.82s-4,2-7.23,2a1.54,1.54,0,0,1-1.12-.47A1.56,1.56,0,0,1,1236,367.64Zm11.2-85.78V313a13.5,13.5,0,0,0,7.73,4.16,79,79,0,0,0,13.42.87,36.12,36.12,0,0,0,5.83-.46,27.15,27.15,0,0,0,5.92-1.76,19.94,19.94,0,0,0,5.36-3.28,15.24,15.24,0,0,0,3.78-5.36,19,19,0,0,0,1.49-7.71,46.59,46.59,0,0,0-1.11-10.78,24.81,24.81,0,0,0-3-7.59,15.43,15.43,0,0,0-4.78-4.77,19.38,19.38,0,0,0-6.06-2.55,32.38,32.38,0,0,0-7.24-.74,29.82,29.82,0,0,0-12.3,2.73A25.6,25.6,0,0,0,1247.21,281.86Z"/><path class="cls-21" d="M1381,270a1.49,1.49,0,0,1,1.15.47,1.57,1.57,0,0,1,.44,1.11,1.87,1.87,0,0,1-.12.58l-24,62.76a30.67,30.67,0,0,0-1.41,7.73,20,20,0,0,0,4,12,26.61,26.61,0,0,0,10.14,8.43,29.16,29.16,0,0,0,12.83,3,1.6,1.6,0,0,1,1.35.53,1.56,1.56,0,0,1,0,2.11,1.6,1.6,0,0,1-1.35.53,32,32,0,0,1-19.51-6.57q-8.85-6.56-10.37-16.52l-8.44,22.09a1.45,1.45,0,0,1-1.52,1,1.43,1.43,0,0,1-1.47-1l-8.49-22.15q-1.47,10-10.34,16.55a32,32,0,0,1-19.54,6.6,1.6,1.6,0,0,1-1.35-.53,1.56,1.56,0,0,1,0-2.11,1.6,1.6,0,0,1,1.35-.53,29.16,29.16,0,0,0,12.83-3,26.51,26.51,0,0,0,10.13-8.43,20,20,0,0,0,4-12,25.29,25.29,0,0,0-1.35-7.79l-24-62.46a1.85,1.85,0,0,1-.12-.53,1.49,1.49,0,0,1,.47-1.14,1.57,1.57,0,0,1,1.11-.44,1.47,1.47,0,0,1,1.47,1l35.33,91.87L1379.45,271A1.45,1.45,0,0,1,1381,270Z"/><path class="cls-21" d="M1382.21,367.64a1.43,1.43,0,0,1,1.25-1.52,9.31,9.31,0,0,1,2.73-.2,3.48,3.48,0,0,0,2.72-1.21c.84-.85,1.26-2.28,1.26-4.27V271.67a1.61,1.61,0,0,1,.5-1.15,1.56,1.56,0,0,1,1.14-.49h55.73a1.56,1.56,0,0,1,1.14.49,1.61,1.61,0,0,1,.5,1.15,1.48,1.48,0,0,1-.5,1.11,1.62,1.62,0,0,1-1.14.47H1393.4V318h49.74a1.51,1.51,0,0,1,1.12.5,1.63,1.63,0,0,1,.46,1.15,1.51,1.51,0,0,1-.46,1.11,1.56,1.56,0,0,1-1.12.47H1393.4v39.37c0,3.56,2.07,5.37,6.21,5.45h48a1.62,1.62,0,0,1,1.14.47,1.48,1.48,0,0,1,.5,1.11,1.51,1.51,0,0,1-.5,1.12,1.62,1.62,0,0,1-1.14.47h-48q-5.22-.06-7.62-3.05-2.12,3-8.2,3.05a1.09,1.09,0,0,1-.79-.39,3.47,3.47,0,0,1-.62-.79Z"/><path class="cls-22" d="M399.26,281.42a17.48,17.48,0,0,1-.18,2.66,8.3,8.3,0,0,1-.4,1.72c-.15.38-.28.75-.4,1.12a3.31,3.31,0,0,0-.18,1,3,3,0,0,0,1.19,2.29,4.49,4.49,0,0,0,3,1,.53.53,0,0,1,.39.16.53.53,0,0,1,0,.76.53.53,0,0,1-.39.16,5.78,5.78,0,0,1-3.41-1,4.17,4.17,0,0,1-1.79-2.6q-3.21,3.64-11.81,3.64-7.51,0-11.17-3.76a4.23,4.23,0,0,1-1.76,2.67,5.65,5.65,0,0,1-3.45,1.09.52.52,0,0,1-.38-.16.53.53,0,0,1,0-.76.52.52,0,0,1,.38-.16,4.52,4.52,0,0,0,3-1,3,3,0,0,0,1.19-2.29,3.35,3.35,0,0,0-.18-.89,10.12,10.12,0,0,1-1.63-5.6.5.5,0,0,1,.17-.4.64.64,0,0,1,.39-.14c.3,0,.48.2.55.6s.18,1.07.36,2a9.2,9.2,0,0,0,1,2.74c.33.46.59.79.78,1s.48.55.89,1a7,7,0,0,0,1.14,1A16.14,16.14,0,0,0,378,290a9.28,9.28,0,0,0,1.89.68c.66.15,1.45.28,2.39.4a25.78,25.78,0,0,0,3,.17,26.85,26.85,0,0,0,5.33-.46,13.22,13.22,0,0,0,3.72-1.26,6.71,6.71,0,0,0,2.31-2.07,7.94,7.94,0,0,0,1.21-2.69,14.22,14.22,0,0,0,.34-3.31q-.07-5.26-13.21-5.61c-1,0-1.92-.08-2.85-.18s-1.92-.23-3-.42a15.2,15.2,0,0,1-3-.78,13.37,13.37,0,0,1-2.46-1.2,5.2,5.2,0,0,1-1.77-1.75,4.4,4.4,0,0,1-.65-2.35,13.93,13.93,0,0,1,.78-4.58,8.31,8.31,0,0,1,2.3-3.33,10,10,0,0,1,4.3-2.12,26.75,26.75,0,0,1,6.62-.7,23.33,23.33,0,0,1,5.44.56,12.91,12.91,0,0,1,3.86,1.49,8.62,8.62,0,0,1,2.5,2.35,10.62,10.62,0,0,1,1.48,2.9,18.69,18.69,0,0,1,.69,3.37v.1a.43.43,0,0,1-.16.35.62.62,0,0,1-.38.13.45.45,0,0,1-.52-.48,18.05,18.05,0,0,0-.66-3.16,9.08,9.08,0,0,0-1.37-2.63,7.85,7.85,0,0,0-2.32-2.08,12.53,12.53,0,0,0-3.56-1.31,22.58,22.58,0,0,0-5-.49A27.11,27.11,0,0,0,380,260a13.3,13.3,0,0,0-3.68,1.23,6.61,6.61,0,0,0-2.32,2,7.7,7.7,0,0,0-1.23,2.65,14.32,14.32,0,0,0-.39,3.28,3.23,3.23,0,0,0,.55,1.83,4.81,4.81,0,0,0,1.39,1.38,9.56,9.56,0,0,0,2.05,1,18.21,18.21,0,0,0,2.34.67c.76.16,1.57.3,2.44.41s1.6.19,2.17.23,1.13.07,1.71.08a44,44,0,0,1,6.5.58q7.16,1.35,7.69,5.53A4,4,0,0,1,399.26,281.42Z"/><path class="cls-22" d="M409.13,287.91a1.65,1.65,0,0,0-1.11.45,6.24,6.24,0,0,0-1,1.1c-.31.43-.65.86-1,1.3a4.59,4.59,0,0,1-1.52,1.1,5.25,5.25,0,0,1-2.25.45.57.57,0,0,1-.39-.17.54.54,0,0,1-.17-.39.52.52,0,0,1,.17-.38.56.56,0,0,1,.39-.16,3.8,3.8,0,0,0,2.21-.58A6.11,6.11,0,0,0,406,289q1.44-2.19,3.12-2.19c1,0,2,.68,2.88,2a4.7,4.7,0,0,0,1.07,1.15,5.57,5.57,0,0,0,1.19.7,6.85,6.85,0,0,0,1.41.36,13.37,13.37,0,0,0,1.37.15l1.43,0a8.51,8.51,0,0,0,4.1-1,10.18,10.18,0,0,0,3.38-3,15.22,15.22,0,0,0,2.32-5.17,28,28,0,0,0,.85-7.24V259.5H415.26a.53.53,0,0,1-.38-.16.52.52,0,0,1-.16-.38.53.53,0,0,1,.16-.39.47.47,0,0,1,.38-.17h17.41a.47.47,0,0,1,.38.17.53.53,0,0,1,.16.39.52.52,0,0,1-.16.38.53.53,0,0,1-.38.16h-2.44v15.27q0,7.65-2.88,12.29a2.66,2.66,0,0,0-.14.85,3,3,0,0,0,1.22,2.29,4.59,4.59,0,0,0,3,1,.53.53,0,0,1,.39.16.51.51,0,0,1,0,.76.53.53,0,0,1-.39.16,5.71,5.71,0,0,1-3.42-1.06,4.15,4.15,0,0,1-1.78-2.64,9.74,9.74,0,0,1-7.77,3.72h-.14l-1.46,0a10.61,10.61,0,0,1-1.5-.18,7.18,7.18,0,0,1-1.6-.44,6.85,6.85,0,0,1-1.41-.85,5.87,5.87,0,0,1-1.28-1.39C410.43,288.41,409.77,287.91,409.13,287.91Z"/><path class="cls-22" d="M462.06,275.31c0,2.2-.06,4.07-.2,5.61a19.09,19.09,0,0,1-.49,3.33,9.16,9.16,0,0,1-.59,1.63c-.2.4-.37.75-.5,1a2.41,2.41,0,0,0-.2,1,3,3,0,0,0,1.18,2.29,4.45,4.45,0,0,0,3,1,.56.56,0,0,1,.39.16.51.51,0,0,1,0,.76.56.56,0,0,1-.39.16,5.76,5.76,0,0,1-3.41-1,4.19,4.19,0,0,1-1.78-2.6q-3.33,3.64-11.21,3.64t-11.19-3.66a4.23,4.23,0,0,1-1.79,2.61,5.73,5.73,0,0,1-3.42,1.05.52.52,0,0,1-.38-.16.53.53,0,0,1,0-.76.52.52,0,0,1,.38-.16,4.52,4.52,0,0,0,3-1,3,3,0,0,0,1.19-2.29,2.26,2.26,0,0,0-.21-1c-.14-.28-.31-.63-.5-1a9.25,9.25,0,0,1-.58-1.65,20,20,0,0,1-.5-3.34c-.14-1.54-.21-3.4-.21-5.61A48.59,48.59,0,0,1,434,268c.56-3.31,1.92-5.73,4.1-7.25s5.48-2.34,9.73-2.34q8.76,0,11.95,4.56c1.26,1.83,2,4.48,2.18,8C462,271.88,462.06,273.35,462.06,275.31Zm-14.21,15.9q7.86,0,10.81-3.83c1.25-1.62,2-4.05,2.22-7.26.07-1,.1-2.64.1-4.81a47.54,47.54,0,0,0-.38-7.16,9.48,9.48,0,0,0-3.64-6.49c-2.06-1.44-5.09-2.16-9.11-2.16q-7.87,0-10.81,3.78c-1.24,1.6-2,4-2.2,7.17-.07,1-.1,2.63-.1,4.82a46.87,46.87,0,0,0,.4,7.33,9.33,9.33,0,0,0,3.68,6.47Q441.88,291.22,447.85,291.21Z"/><path class="cls-22" d="M490.71,258.4a.5.5,0,0,1,.39.16.52.52,0,0,1,.15.38.58.58,0,0,1,0,.2L483,280.58a10.44,10.44,0,0,0-.48,2.64,6.83,6.83,0,0,0,1.36,4.09,9.19,9.19,0,0,0,3.47,2.89,10,10,0,0,0,4.38,1,.53.53,0,0,1,.46.18.53.53,0,0,1,0,.72.53.53,0,0,1-.46.18,10.93,10.93,0,0,1-6.66-2.24,8.47,8.47,0,0,1-3.55-5.65L478.64,292a.49.49,0,0,1-.52.34.47.47,0,0,1-.5-.34l-2.9-7.57a8.44,8.44,0,0,1-3.54,5.66,11,11,0,0,1-6.67,2.25.57.57,0,0,1-.47-.18.53.53,0,0,1,0-.72.57.57,0,0,1,.47-.18,10,10,0,0,0,4.38-1,9.08,9.08,0,0,0,3.46-2.89,6.77,6.77,0,0,0,1.36-4.09,8.56,8.56,0,0,0-.46-2.66l-8.2-21.34a.54.54,0,0,1,0-.18.5.5,0,0,1,.16-.39.52.52,0,0,1,.38-.15.5.5,0,0,1,.5.34l12.07,31.39,12.07-31.49A.49.49,0,0,1,490.71,258.4Z"/><path class="cls-22" d="M536.26,258.4a.5.5,0,0,1,.39.16.52.52,0,0,1,.15.38,1,1,0,0,1,0,.2l-8.21,21.44a10.44,10.44,0,0,0-.48,2.64,6.77,6.77,0,0,0,1.36,4.09,9.15,9.15,0,0,0,3.46,2.89,10,10,0,0,0,4.39,1,.56.56,0,0,1,.46.18.53.53,0,0,1,0,.72.56.56,0,0,1-.46.18,11,11,0,0,1-6.67-2.24,8.42,8.42,0,0,1-3.54-5.65L524.18,292a.49.49,0,0,1-.52.34.48.48,0,0,1-.5-.34l-2.9-7.57a8.39,8.39,0,0,1-3.53,5.66,11,11,0,0,1-6.68,2.25.55.55,0,0,1-.46-.18.53.53,0,0,1,0-.72.55.55,0,0,1,.46-.18,10,10,0,0,0,4.38-1,9.11,9.11,0,0,0,3.47-2.89,6.83,6.83,0,0,0,1.36-4.09,8.86,8.86,0,0,0-.46-2.66l-8.21-21.34a.54.54,0,0,1,0-.18.5.5,0,0,1,.16-.39.54.54,0,0,1,.38-.15.5.5,0,0,1,.5.34l12.07,31.39,12.07-31.49A.5.5,0,0,1,536.26,258.4Z"/><path class="cls-22" d="M536.68,291.75a.49.49,0,0,1,.43-.52,3.09,3.09,0,0,1,.93-.07,1.2,1.2,0,0,0,.93-.41,2.07,2.07,0,0,0,.43-1.46V259a.54.54,0,0,1,.17-.39.5.5,0,0,1,.39-.17h19a.53.53,0,0,1,.39.17.52.52,0,0,1,0,.77.61.61,0,0,1-.39.16H540.5v15.29h17a.53.53,0,0,1,.38.17.61.61,0,0,1,.16.39.53.53,0,0,1-.16.38.52.52,0,0,1-.38.16h-17v13.46c0,1.21.71,1.83,2.12,1.86H559a.56.56,0,0,1,.39.16.51.51,0,0,1,0,.76.56.56,0,0,1-.39.16h-16.4a3.18,3.18,0,0,1-2.6-1,3.21,3.21,0,0,1-2.8,1,.35.35,0,0,1-.27-.13,1.24,1.24,0,0,1-.21-.27Z"/><path class="cls-22" d="M587.45,275.31c0,2.19-.07,4.06-.21,5.6a20.71,20.71,0,0,1-.51,3.34,9.4,9.4,0,0,1-.58,1.64c-.19.41-.36.76-.5,1a2.21,2.21,0,0,0-.21,1,3,3,0,0,0,1.19,2.29,4.52,4.52,0,0,0,3,1,.52.52,0,0,1,.38.16.53.53,0,0,1,0,.76.52.52,0,0,1-.38.16,5.7,5.7,0,0,1-3.41-1.05,4.25,4.25,0,0,1-1.78-2.61q-3.35,3.66-11.21,3.66-7.59,0-10.93-3.38v.38a2.89,2.89,0,0,1-.81,2.33,3.81,3.81,0,0,1-2.47.67.49.49,0,0,1-.38-.16.51.51,0,0,1-.16-.38.49.49,0,0,1,.43-.52,3.09,3.09,0,0,1,.93-.07,1.2,1.2,0,0,0,.93-.41,2,2,0,0,0,.43-1.46V259a.54.54,0,0,1,.17-.39.5.5,0,0,1,.39-.17.48.48,0,0,1,.38.17.53.53,0,0,1,.16.39v2.78q3.39-3.35,10.93-3.34,8.78,0,11.95,4.56,1.89,2.75,2.19,8C587.42,271.88,587.45,273.35,587.45,275.31ZM562.3,263.44v23.78q2.88,4,10.93,4,7.88,0,10.81-3.83c1.26-1.62,2-4,2.2-7.24.07-1,.1-2.65.1-4.83a49.54,49.54,0,0,0-.36-7.14,9.39,9.39,0,0,0-3.62-6.49q-3.06-2.18-9.13-2.18Q565.2,259.5,562.3,263.44Z"/><path class="cls-22" d="M607.2,291.75a.5.5,0,0,1,.43-.52,3.18,3.18,0,0,1,.94-.07,1.2,1.2,0,0,0,.93-.41,2.07,2.07,0,0,0,.43-1.46V259a.58.58,0,0,1,.56-.56h19.1a.53.53,0,0,1,.39.17.52.52,0,0,1,0,.77.61.61,0,0,1-.39.16H611v15.29h10.65q1.34-2.71,3.42-2.72a2.9,2.9,0,0,1,2,.69,1.91,1.91,0,0,1,.79,1.41,1.47,1.47,0,0,1-.18.69,1,1,0,0,1-.5.46,3.44,3.44,0,0,1-.69.28,3.84,3.84,0,0,1-.92.16c-.38,0-.71.06-1,.07s-.66,0-1.13,0l-1.1,0a13.2,13.2,0,0,0-1,5.15,12.45,12.45,0,0,0,.72,4.31,9.24,9.24,0,0,0,1.9,3.23,8.91,8.91,0,0,0,2.64,1.94,6.93,6.93,0,0,0,3,.69.56.56,0,0,1,.39.16.51.51,0,0,1,0,.76.56.56,0,0,1-.39.16,7.84,7.84,0,0,1-3.27-.73,10.55,10.55,0,0,1-3-2.06,9.86,9.86,0,0,1-2.21-3.47,12.47,12.47,0,0,1-.85-4.69,15.9,15.9,0,0,1,.9-5.45H611v13.4a2.89,2.89,0,0,1-.81,2.33,3.81,3.81,0,0,1-2.47.67.53.53,0,0,1-.39-.16A.55.55,0,0,1,607.2,291.75Zm15.74-17,.82,0,1.08,0c1.3,0,1.94-.23,1.94-.7,0-.21-.18-.43-.55-.65a2.1,2.1,0,0,0-1.11-.33C624.33,273.17,623.61,273.71,622.94,274.79Z"/><path class="cls-22" d="M645.56,258.7a.56.56,0,0,1,.52-.34.53.53,0,0,1,.52.34q1.8,4.62,4.67,12,4.61,12,6,15,1.73,3.8,3.07,4.81a3.25,3.25,0,0,0,2,.64.54.54,0,0,1,.39.16.51.51,0,0,1,0,.76.54.54,0,0,1-.39.16,5.6,5.6,0,0,1-1.29-.14,3.32,3.32,0,0,1-1.17-.57,7.8,7.8,0,0,1-1.1-1,10.81,10.81,0,0,1-1.1-1.56c-.4-.69-.78-1.39-1.14-2.12s-.79-1.68-1.3-2.89-1-2.41-1.48-3.61l-1.77-4.55H640.32c-.67,1.82-1.22,3.28-1.64,4.4s-.9,2.29-1.4,3.53-.92,2.21-1.26,2.9-.73,1.41-1.16,2.15a8.78,8.78,0,0,1-1.17,1.63,8.49,8.49,0,0,1-1.19,1,4.06,4.06,0,0,1-1.36.63,6.59,6.59,0,0,1-1.53.16.49.49,0,0,1-.38-.16.53.53,0,0,1,0-.76.49.49,0,0,1,.38-.16,4.22,4.22,0,0,0,3.12-1.24q1.42-1.43,3.3-6,.93-2.26,5.11-13.55Q643.5,264.06,645.56,258.7Zm-4.82,16.09h10.89l-5.55-14.37Z"/><path class="cls-22" d="M661.86,291.75a.49.49,0,0,1,.43-.52,3.14,3.14,0,0,1,.93-.07,1.2,1.2,0,0,0,.93-.41,2,2,0,0,0,.43-1.46V259a.54.54,0,0,1,.17-.39.5.5,0,0,1,.39-.17.48.48,0,0,1,.38.17.53.53,0,0,1,.16.39v2a11.73,11.73,0,0,1,3.36-1.86,11.06,11.06,0,0,1,3.93-.74,10.27,10.27,0,0,1,4.13.74,6.25,6.25,0,0,1,2.7,2.13,9.56,9.56,0,0,1,1.42,3.16,17.29,17.29,0,0,1,.44,4.1,7.93,7.93,0,0,1-.56,3.07,5.63,5.63,0,0,1-1.53,2.14,8.54,8.54,0,0,1-2,1.27,9.85,9.85,0,0,1-2.19.7,4.83,4.83,0,0,1,1.87,1.47,6.66,6.66,0,0,1,1.09,2.61,19.09,19.09,0,0,1,.38,4.23c0,2.58.5,4.43,1.49,5.57s2.55,1.7,4.7,1.7a.54.54,0,0,1,0,1.08,7,7,0,0,1-5.44-2c-1.22-1.32-1.83-3.44-1.83-6.38s-.42-4.91-1.27-6.16a4.36,4.36,0,0,0-3.89-1.89c-1,0-1.87,0-2.49-.05a11,11,0,0,1-2.2-.37,6.07,6.07,0,0,1-2.12-.94v14.76a2.89,2.89,0,0,1-.81,2.33,3.79,3.79,0,0,1-2.47.67.49.49,0,0,1-.38-.16A.51.51,0,0,1,661.86,291.75Zm3.82-29.31v10.63a4.57,4.57,0,0,0,2.64,1.42,26.87,26.87,0,0,0,4.59.3,11.88,11.88,0,0,0,2-.16,8.36,8.36,0,0,0,2-.6,6.7,6.7,0,0,0,1.83-1.12,5.11,5.11,0,0,0,1.3-1.83,6.46,6.46,0,0,0,.51-2.63,16.11,16.11,0,0,0-.38-3.69,8.42,8.42,0,0,0-1-2.59,5.18,5.18,0,0,0-1.63-1.63,6.26,6.26,0,0,0-2.07-.87,10.92,10.92,0,0,0-2.47-.25,10.24,10.24,0,0,0-4.21.93A8.84,8.84,0,0,0,665.68,262.44Z"/><path class="cls-22" d="M711.39,258.4a.5.5,0,0,1,.39.16.52.52,0,0,1,.15.38,1,1,0,0,1,0,.2l-8.21,21.44a10.44,10.44,0,0,0-.48,2.64,6.77,6.77,0,0,0,1.36,4.09A9.15,9.15,0,0,0,708,290.2a10.08,10.08,0,0,0,4.39,1,.56.56,0,0,1,.46.18.53.53,0,0,1,0,.72.56.56,0,0,1-.46.18,11,11,0,0,1-6.67-2.24,8.46,8.46,0,0,1-3.54-5.65L699.31,292a.49.49,0,0,1-.52.34.48.48,0,0,1-.5-.34l-2.9-7.57a8.39,8.39,0,0,1-3.53,5.66,11,11,0,0,1-6.68,2.25.55.55,0,0,1-.46-.18.53.53,0,0,1,0-.72.55.55,0,0,1,.46-.18,10,10,0,0,0,4.38-1,9.11,9.11,0,0,0,3.47-2.89,6.77,6.77,0,0,0,1.36-4.09,8.56,8.56,0,0,0-.46-2.66l-8.21-21.34a.54.54,0,0,1,0-.18.5.5,0,0,1,.16-.39.54.54,0,0,1,.38-.15.5.5,0,0,1,.5.34l12.07,31.39,12.08-31.49A.49.49,0,0,1,711.39,258.4Z"/><path class="cls-22" d="M711.81,291.75a.49.49,0,0,1,.43-.52,3.09,3.09,0,0,1,.93-.07,1.2,1.2,0,0,0,.93-.41,2,2,0,0,0,.43-1.46V259a.54.54,0,0,1,.17-.39.5.5,0,0,1,.39-.17h19a.52.52,0,0,1,.39.17.52.52,0,0,1,0,.77.59.59,0,0,1-.39.16h-18.5v15.29h17a.53.53,0,0,1,.38.17.61.61,0,0,1,.16.39.53.53,0,0,1-.16.38.52.52,0,0,1-.38.16h-17v13.46c0,1.21.71,1.83,2.12,1.86h16.4a.54.54,0,0,1,.39.16.51.51,0,0,1,0,.76.54.54,0,0,1-.39.16h-16.4a3.18,3.18,0,0,1-2.6-1,3.21,3.21,0,0,1-2.8,1,.35.35,0,0,1-.27-.13,1.24,1.24,0,0,1-.21-.27Z"/><path class="cls-22" d="M751.73,291.75a.49.49,0,0,1,.43-.52,3.09,3.09,0,0,1,.93-.07,1.2,1.2,0,0,0,.93-.41,2.07,2.07,0,0,0,.43-1.46V259a.58.58,0,0,1,.56-.56h19.1a.53.53,0,0,1,.39.17.52.52,0,0,1,0,.77.61.61,0,0,1-.39.16H755.55v15.29H766.2q1.34-2.71,3.42-2.72a2.9,2.9,0,0,1,2,.69,1.93,1.93,0,0,1,.8,1.41,1.75,1.75,0,0,1-.18.69,1.12,1.12,0,0,1-.5.46,3.79,3.79,0,0,1-.7.28,3.84,3.84,0,0,1-.92.16c-.38,0-.71.06-1,.07s-.66,0-1.13,0l-1.1,0a13.2,13.2,0,0,0-1,5.15,12.45,12.45,0,0,0,.72,4.31,9.24,9.24,0,0,0,1.9,3.23,8.91,8.91,0,0,0,2.64,1.94,6.93,6.93,0,0,0,3,.69.56.56,0,0,1,.39.16.51.51,0,0,1,0,.76.56.56,0,0,1-.39.16,7.88,7.88,0,0,1-3.27-.73,10.55,10.55,0,0,1-3-2.06,9.86,9.86,0,0,1-2.21-3.47,12.47,12.47,0,0,1-.85-4.69,15.9,15.9,0,0,1,.9-5.45H755.55v13.4a2.89,2.89,0,0,1-.81,2.33,3.81,3.81,0,0,1-2.47.67.49.49,0,0,1-.38-.16A.51.51,0,0,1,751.73,291.75Zm15.73-17,.82,0,1.08,0c1.3,0,1.94-.23,1.94-.7,0-.21-.18-.43-.55-.65a2.1,2.1,0,0,0-1.11-.33C768.86,273.17,768.13,273.71,767.46,274.79Z"/><path class="cls-22" d="M784.08,289.23a1.58,1.58,0,0,0,1,1.51,5,5,0,0,0,2.22.47h5.45a.56.56,0,0,1,.39.16.51.51,0,0,1,0,.76.56.56,0,0,1-.39.16h-5.35q-2.8,0-3.84-1.38c-.76.92-2.13,1.38-4.09,1.38h-5.3a.49.49,0,0,1-.38-.16.53.53,0,0,1,0-.76.49.49,0,0,1,.38-.16h5.3a6.15,6.15,0,0,0,2.53-.46,1.54,1.54,0,0,0,1-1.46V274.53l-9.23-15.29a.52.52,0,0,1,0-.55.48.48,0,0,1,.47-.29.5.5,0,0,1,.46.26l8.89,14.73,8.89-14.73a.49.49,0,0,1,.46-.26.5.5,0,0,1,.38.17.57.57,0,0,1,.16.39.47.47,0,0,1-.08.28l-9.29,15.39Z"/><path class="cls-22" d="M823.08,281.42a17.48,17.48,0,0,1-.18,2.66,8.87,8.87,0,0,1-.41,1.72c-.14.38-.28.75-.4,1.12a3.31,3.31,0,0,0-.18,1,3,3,0,0,0,1.19,2.29,4.52,4.52,0,0,0,3,1,.52.52,0,0,1,.38.16.53.53,0,0,1,0,.76.52.52,0,0,1-.38.16,5.76,5.76,0,0,1-3.41-1,4.18,4.18,0,0,1-1.8-2.6q-3.2,3.64-11.81,3.64-7.5,0-11.17-3.76a4.19,4.19,0,0,1-1.76,2.67,5.64,5.64,0,0,1-3.44,1.09.49.49,0,0,1-.38-.16.53.53,0,0,1,0-.76.49.49,0,0,1,.38-.16,4.49,4.49,0,0,0,3-1,3,3,0,0,0,1.19-2.29,3.35,3.35,0,0,0-.18-.89,10.2,10.2,0,0,1-1.62-5.6.47.47,0,0,1,.17-.4.6.6,0,0,1,.39-.14q.44,0,.54.6c.07.4.19,1.07.36,2a9.2,9.2,0,0,0,1,2.74c.33.46.59.79.78,1s.48.55.89,1a7,7,0,0,0,1.14,1c.36.22.84.49,1.44.79a9.16,9.16,0,0,0,1.9.68c.65.15,1.44.28,2.38.4a25.78,25.78,0,0,0,3,.17,27,27,0,0,0,5.34-.46,13.26,13.26,0,0,0,3.71-1.26,6.71,6.71,0,0,0,2.31-2.07,7.75,7.75,0,0,0,1.21-2.69,14.22,14.22,0,0,0,.34-3.31q-.07-5.26-13.21-5.61c-1,0-1.92-.08-2.84-.18s-1.93-.23-3-.42a15.31,15.31,0,0,1-3-.78,13.37,13.37,0,0,1-2.46-1.2,5.39,5.39,0,0,1-1.77-1.75,4.39,4.39,0,0,1-.64-2.35,14,14,0,0,1,.77-4.58,8.31,8.31,0,0,1,2.3-3.33,10.07,10.07,0,0,1,4.31-2.12,26.61,26.61,0,0,1,6.61-.7,23.42,23.42,0,0,1,5.45.56,12.84,12.84,0,0,1,3.85,1.49,8.62,8.62,0,0,1,2.5,2.35,10.35,10.35,0,0,1,1.48,2.9,17.84,17.84,0,0,1,.7,3.37v.1a.46.46,0,0,1-.16.35.65.65,0,0,1-.39.13.46.46,0,0,1-.52-.48,16.39,16.39,0,0,0-.66-3.16,9.08,9.08,0,0,0-1.37-2.63,7.73,7.73,0,0,0-2.32-2.08,12.46,12.46,0,0,0-3.55-1.31,22.61,22.61,0,0,0-5-.49,27,27,0,0,0-5.26.45,13.26,13.26,0,0,0-3.69,1.23,6.7,6.7,0,0,0-2.32,2,7.7,7.7,0,0,0-1.23,2.65,15.52,15.52,0,0,0-.39,3.28,3.23,3.23,0,0,0,.55,1.83,4.94,4.94,0,0,0,1.39,1.38,9.79,9.79,0,0,0,2,1,18.21,18.21,0,0,0,2.34.67c.76.16,1.57.3,2.45.41s1.59.19,2.16.23,1.14.07,1.71.08a44.33,44.33,0,0,1,6.51.58q7.14,1.35,7.69,5.53C823.06,281,823.08,281.22,823.08,281.42Z"/><path class="cls-22" d="M834,291.21a.52.52,0,0,1,.38.16.53.53,0,0,1,0,.76.52.52,0,0,1-.38.16c-1.83,0-3.11-.47-3.85-1.4-.77.93-2.13,1.4-4.08,1.4a.49.49,0,0,1-.38-.16.53.53,0,0,1,0-.76.49.49,0,0,1,.38-.16,6.07,6.07,0,0,0,2.52-.46,1.54,1.54,0,0,0,1-1.46V259.5h-2.28a.57.57,0,0,1-.39-.16.52.52,0,0,1,0-.77.5.5,0,0,1,.39-.17h5.46a.5.5,0,0,1,.39.17.55.55,0,0,1-.39.93h-2.08v29.73a1.54,1.54,0,0,0,.54,1.21,2.78,2.78,0,0,0,1.22.62A7.22,7.22,0,0,0,834,291.21Z"/><path class="cls-22" d="M833.45,291.75a.49.49,0,0,1,.43-.52,3.09,3.09,0,0,1,.93-.07,1.2,1.2,0,0,0,.93-.41,2.07,2.07,0,0,0,.43-1.46V259a.58.58,0,0,1,.56-.56.48.48,0,0,1,.38.17.53.53,0,0,1,.16.39v15.21l16.8-15.61a.48.48,0,0,1,.36-.14.53.53,0,0,1,.39.17.51.51,0,0,1,0,.77l-17.18,15.95L851.12,289c.43.48.77.84,1,1.09a5.86,5.86,0,0,0,1,.76,2.5,2.5,0,0,0,1.28.39.56.56,0,0,1,.39.16.51.51,0,0,1,0,.76.56.56,0,0,1-.39.16,3.51,3.51,0,0,1-2-.64,12.79,12.79,0,0,1-2.06-1.92l-13.05-13.24v12.8a2.89,2.89,0,0,1-.81,2.33,3.81,3.81,0,0,1-2.47.67.49.49,0,0,1-.38-.16A.51.51,0,0,1,833.45,291.75Z"/><path class="cls-23" d="M1045,725c-.86,5.61-8.15,12-23.76-1.26-15.31-12.92-29.73-35.87-26.34-34.83,3.15.67,21.43,19.22,34.46,25.35C1042.55,720.76,1045.85,718.83,1045,725Z"/><path class="cls-23" d="M1060.7,695.72c2.52,3.13,8.25,3.95,10.28-11.05,2-14.65-.18-35.18-1.31-33.07-1.17,1.78-2.4,21.23-6,30.68C1060.2,692.07,1058,692.29,1060.7,695.72Z"/><path class="cls-23" d="M833,725c.38,5.65,7.1,12.56,23.79.52C873.11,713.81,889.43,692,886,692.8c-3.2.43-23,17.55-36.51,22.68C835.71,721,832.59,718.83,833,725Z"/><path class="cls-23" d="M822.77,695.78c-2.52,3.12-8.24,4-10.27-11-2-14.65.17-35.16,1.31-33,1.17,1.77,2.4,21.21,6,30.65C823.28,692.13,825.5,692.35,822.77,695.78Z"/><rect class="cls-20" x="1291" y="512.69" width="603" height="10.29" rx="4.5" ry="4.5" transform="translate(3185 1035.68) rotate(180)"/><ellipse class="cls-2" cx="1815.83" cy="517.27" rx="36.29" ry="29.73"/><ellipse class="cls-20" cx="1815.83" cy="517.27" rx="18.15" ry="14.87"/><path class="cls-2" d="M348.58,385.78c12.91,24.9.52,45.26-27.53,45.25h-5.89l-102-.06h-5.89c-28.05,0-40.41-20.39-27.47-45.28l7-13.39,47.05-90.49,7-13.39c12.94-24.89,34.09-24.87,47,0l6.94,13.4,46.93,90.56Z"/><rect class="cls-2" x="233" y="213" width="63" height="93" rx="12" ry="12"/><path class="cls-24" d="M327.41,368.33,313.76,342H215.14L201.5,368.24l-5.66,10.89c-10.52,20.23-.47,36.79,22.33,36.81H223l82.92.06h4.79c22.8,0,32.88-16.54,22.38-36.78Z"/><circle class="cls-24" cx="242" cy="335" r="18"/><circle class="cls-24" cx="279" cy="306" r="9"/><circle class="cls-24" cx="252" cy="240" r="10"/><circle class="cls-24" cx="265" cy="254" r="7"/><rect class="cls-20" x="55" y="263" width="252" height="9" rx="4.5" ry="4.5"/><circle class="cls-2" cx="111" cy="267" r="26"/><circle class="cls-20" cx="111" cy="267" r="13"/><path class="cls-2" d="M398,635V826a32.09,32.09,0,0,0,32,32h0a32.09,32.09,0,0,0,32-32V635Z"/><path class="cls-25" d="M407,678V812.47A22.6,22.6,0,0,0,429.53,835h0a22.6,22.6,0,0,0,22.53-22.53V678Z"/><circle class="cls-25" cx="426.5" cy="675.5" r="8.5"/><circle class="cls-25" cx="448.5" cy="650.5" r="8.5"/><rect class="cls-20" x="55" y="661" width="432" height="9" rx="4.5" ry="4.5"/><circle class="cls-2" cx="111" cy="665" r="26"/><circle class="cls-20" cx="111" cy="665" r="13"/><circle class="cls-2" cx="111" cy="505" r="26"/><circle class="cls-20" cx="111" cy="505" r="13"/><rect class="cls-2" x="560" y="446" width="60" height="113" rx="12" ry="12"/><ellipse class="cls-2" cx="590.5" cy="605.5" rx="84.5" ry="78.5"/><path class="cls-26" d="M524.33,622a71,71,0,0,0,131.34,0Z"/><circle class="cls-26" cx="552.5" cy="614.5" r="14.5"/><circle class="cls-26" cx="605.5" cy="562.5" r="14.5"/><circle class="cls-26" cx="580" cy="530" r="10"/><circle class="cls-26" cx="598" cy="507" r="8"/><rect class="cls-20" x="55" y="501" width="585" height="9" rx="4.5" ry="4.5"/><path class="cls-2" d="M1762,1062c8.72-20,28.09-34,50.61-34s41.9,14,50.62,34Z"/><rect class="cls-20" x="1800" y="115" width="22" height="956" rx="11" ry="11" transform="translate(3622 1186) rotate(-180)"/><rect class="cls-20" x="1620" y="1061" width="322" height="18" rx="9" ry="9" transform="translate(3562 2140) rotate(-180)"/><path class="cls-2" d="M1737,140V304.14a27.57,27.57,0,0,1-27.5,27.5h0a27.57,27.57,0,0,1-27.5-27.5V140Z"/><path class="cls-27" d="M1729.27,177V292.51a19.42,19.42,0,0,1-19.37,19.36h0a19.42,19.42,0,0,1-19.36-19.36V177Z"/><circle class="cls-27" cx="1697.9" cy="153.32" r="7.3"/><rect class="cls-20" x="1610" y="183" width="236" height="9" rx="4.5" ry="4.5" transform="translate(3456 375) rotate(-180)"/><ellipse class="cls-2" cx="1815.41" cy="187" rx="14.2" ry="26"/><ellipse class="cls-20" cx="1815.41" cy="187" rx="7.1" ry="13"/><circle class="cls-2" cx="1811" cy="504" r="26"/><circle class="cls-20" cx="1811" cy="504" r="13"/><rect class="cls-2" x="1656.28" y="869.7" width="47.22" height="88.93" rx="12" ry="12" transform="translate(3359.79 1828.33) rotate(-180)"/><ellipse class="cls-2" cx="1679.5" cy="995.22" rx="66.5" ry="61.78"/><path class="cls-28" d="M1731.58,995c-8.37,28.07-28.35,47.83-51.69,47.83s-43.32-19.76-51.68-47.83Z"/><circle class="cls-28" cx="1709.41" cy="1002.3" r="11.41"/><circle class="cls-28" cx="1667.7" cy="961.38" r="11.41"/><circle class="cls-28" cx="1687.76" cy="935.8" r="7.87"/><circle class="cls-28" cx="1673.6" cy="917.7" r="6.3"/><circle class="cls-25" cx="1721.5" cy="168.5" r="8.5"/><path class="cls-20" d="M1919.09,732.26h179.34a0,0,0,0,1,0,0v40.47A26.48,26.48,0,0,1,2072,799.21H1950.3A31.21,31.21,0,0,1,1919.09,768V732.26a0,0,0,0,1,0,0Z" transform="translate(-68.27 1320.18) rotate(-35.81)"/><rect class="cls-29" x="1842.38" y="558.63" width="200.8" height="232.18" rx="19.92" ry="19.92" transform="translate(-27.49 1264.36) rotate(-35.81)"/><rect class="cls-30" x="1805" y="623.24" width="44.88" height="149.57" rx="14.3" ry="14.3" transform="translate(3775.92 871.91) rotate(164.19)"/><rect class="cls-30" x="1768.75" y="662.05" width="42.24" height="133.12" rx="5.41" ry="5.41" transform="translate(430.13 2101.78) rotate(-67.43)"/><rect class="cls-31" x="1716.22" y="682.25" width="19.53" height="42.96" rx="2.5" ry="2.5" transform="translate(3061.05 -596.99) rotate(113.56)"/><rect class="cls-31" x="1681.57" y="664.69" width="35.15" height="54.67" rx="4.5" ry="4.5" transform="translate(3012.74 -588.77) rotate(113.56)"/><rect class="cls-32" x="1698.86" y="660.93" width="15.62" height="31.24" rx="2" ry="2" transform="translate(3537.72 543.32) rotate(154.21)"/><path class="cls-30" d="M1805.57,661.51c-2.61-3.07-7.9-10.61-7.34-10.17,0,0-.22-5.61-.21-5.66,3-11.53,6.06-24.26,38.13-41.92a12.19,12.19,0,0,1,14.61,2.41c16.1,16.7,58.79,65.21,91.75,140.75,32,73.23,123.85,162.59,164.27,199.69,7.43,6.82,4.23,19-5.49,21.07-21.34,4.41-49.28,13.82-53.68,33.14-7,30.69-133.24-185.7-142.74-202a12,12,0,0,0-1.3-1.84Z"/><path class="cls-30" d="M1914.31,555.35s-12.92,5.2,17.7,65.26,85.07,86.76,85.07,86.76,55.24,46.52,75.54,69.61c0,0,78.6,124.14,69.66,146.22s41.11-43.33,41.11-43.33,7.6-24.53-13.12-52.29c0,0-102.64-142.05-118.5-157.55-2-1.93-3.68-4-6.09-5.35-26.86-15.41-90.37-130.42-117.18-130C1926.23,535,1916.29,553.08,1914.31,555.35Z"/><g class="cls-14"><path class="cls-33" d="M1923.18,553.79s14.71,20.4,41.5,14.55c0,0-28.79,66.61-11.06,78.09,0,0-46.37-47.44-41.08-85"/></g><path class="cls-34" d="M1919.34,548.47s14.71,20.4,41.5,14.55c0,0-28.78,66.61-11.06,78.09,0,0-46.37-47.44-41.08-85"/><g class="cls-14"><path class="cls-33" d="M1833.48,613.2s11.17,19.14-3.11,38.64c0,0,63.94.61,66.86,19,0,0-21.65-54.31-53.76-63.45"/></g><path class="cls-34" d="M1830.57,608.21s11.17,19.14-3.12,38.63c0,0,64,.61,66.87,19,0,0-21.65-54.3-53.77-63.45"/><rect class="cls-32" x="1842.74" y="503.24" width="31.38" height="114.52" rx="10" ry="10" transform="translate(23.39 1193.41) rotate(-35.81)"/><ellipse class="cls-31" cx="1692.85" cy="574.13" rx="24.18" ry="32.09" transform="translate(1025.1 2232.28) rotate(-86.8)"/><ellipse class="cls-32" cx="1692.9" cy="574.13" rx="14.72" ry="19.53" transform="translate(1025.14 2232.34) rotate(-86.8)"/><ellipse class="cls-31" cx="1891.24" cy="384.15" rx="25.98" ry="32.7" transform="translate(-1.36 6.76) rotate(-0.2)"/><ellipse class="cls-32" cx="1891.24" cy="384.1" rx="15.81" ry="19.91" transform="translate(-1.36 6.76) rotate(-0.2)"/><g id="hovede"><path class="cls-31" d="M1681.93,567.1s57,43.09,95,36.43,43.49,1,117.11-58.58c0,0,44.42-60.56,24.19-126.3s-74.83-91.13-74.83-91.13-63.91-56.25-146,27.57C1697.4,355.09,1559.73,480.35,1681.93,567.1Z"/></g><circle class="cls-16" cx="1843.79" cy="420.54" r="38.35"/><ellipse class="cls-35" cx="1844.33" cy="422.14" rx="25.74" ry="30.47" transform="translate(101.69 1159) rotate(-35.81)"/><ellipse cx="1847.36" cy="424.5" rx="18.39" ry="22.59" transform="translate(100.88 1161.22) rotate(-35.81)"/><circle class="cls-16" cx="1832.47" cy="419.05" r="6.3"/><circle class="cls-16" cx="1735.45" cy="520.08" r="38.35"/><ellipse class="cls-35" cx="1738.19" cy="523.98" rx="25.74" ry="30.47" transform="translate(85.56 1275.41) rotate(-41.23)"/><ellipse cx="1741.44" cy="526.04" rx="18.39" ry="22.59" transform="translate(85 1278.06) rotate(-41.23)"/><circle class="cls-16" cx="1726.6" cy="520.21" r="6.3"/><g id="øjenbryn"><path class="cls-36" d="M1672.11,500.72h-.28a2.5,2.5,0,0,1-2.2-2.77c0-.36,4.44-36.13,35.75-37.85a2.5,2.5,0,1,1,.28,5c-27.14,1.5-31,33.11-31.06,33.43A2.51,2.51,0,0,1,1672.11,500.72Z"/></g><g id="øjenbryn-2" data-name="øjenbryn"><path class="cls-36" d="M1782.65,398.23h-.11a2.5,2.5,0,0,1-2.39-2.61c1.34-31.33,37-36.17,37.41-36.21a2.5,2.5,0,0,1,.62,5h0a51.35,51.35,0,0,0-16.37,5.61c-10.58,5.87-16.19,14.57-16.67,25.86A2.49,2.49,0,0,1,1782.65,398.23Z"/></g><path class="cls-37" d="M1807.91,505.62a53.54,53.54,0,0,1-14.48-2.17l1.19-3.82c.18.06,18.08,5.52,26.31-1.92,4-3.65,5.15-10,3.32-19l3.92-.8c2.13,10.44.6,18.1-4.57,22.76C1819.37,504.5,1813.42,505.62,1807.91,505.62Z"/><circle cx="1850.18" cy="531.64" r="21.18"/><circle class="cls-38" cx="1861.93" cy="320.03" r="30.59"/><circle class="cls-38" cx="1626.85" cy="509" r="30.59"/><polygon class="cls-38" points="1780.26 311.04 1743.59 325.98 1706.91 340.93 1702.32 277.19 1697.72 213.45 1738.99 262.24 1780.26 311.04"/><rect class="cls-39" x="1648.17" y="274.13" width="42.36" height="131.78" rx="12" ry="12" transform="translate(189.73 1184.44) rotate(-41.23)"/><rect class="cls-39" x="1680.83" y="238.96" width="42.36" height="131.78" rx="12" ry="12" transform="translate(143.42 1053.54) rotate(-35.81)"/><rect class="cls-39" x="1625.69" y="301.95" width="42.36" height="131.78" rx="12" ry="12" transform="translate(47.27 905.22) rotate(-31.16)"/><rect class="cls-39" x="1726.64" y="243.36" width="37.65" height="106.68" rx="12" ry="12" transform="translate(33.11 746.72) rotate(-24.37)"/><rect class="cls-39" x="1588.59" y="322.92" width="42.36" height="131.78" rx="12" ry="12" transform="translate(245.04 1326.92) rotate(-48.08)"/><rect class="cls-39" x="1585.09" y="392.17" width="37.65" height="95.02" rx="12" ry="12" transform="translate(481.84 1667.2) rotate(-62.9)"/><rect class="cls-39" x="1756.37" y="209.6" width="42.36" height="131.78" rx="12" ry="12" transform="translate(-21.21 270.32) rotate(-8.65)"/><polygon class="cls-38" points="1671.23 408.3 1651.24 442.49 1631.24 476.68 1588.79 428.91 1546.33 381.14 1608.78 394.72 1671.23 408.3"/><polygon class="cls-38" points="1724.32 337.11 1708.93 349.84 1693.54 362.58 1662.71 309.66 1631.88 256.74 1678.1 296.92 1724.32 337.11"/><polygon class="cls-38" points="1712.84 374.96 1688.66 406.34 1664.49 437.71 1612.38 372.56 1560.26 307.41 1636.55 341.18 1712.84 374.96"/><polygon class="cls-38" points="1662.45 449.67 1657.17 478.73 1651.88 507.79 1594.74 482.39 1537.61 456.99 1600.03 453.33 1662.45 449.67"/><polygon class="cls-38" points="1803.66 322.98 1775.11 332.06 1746.57 341.13 1742.43 278.69 1738.29 216.25 1770.97 269.61 1803.66 322.98"/><polygon class="cls-38" points="1851.38 340.45 1831.47 336.6 1811.55 332.74 1833.5 272.69 1855.45 212.64 1853.42 276.54 1851.38 340.45"/><rect class="cls-39" x="1798.93" y="220.22" width="37.65" height="106.68" rx="12" ry="12" transform="translate(-18.36 185.5) rotate(-5.81)"/><rect class="cls-39" x="1775.1" y="264.36" width="37.65" height="87.53" rx="12" ry="12" transform="translate(-25.93 273.15) rotate(-8.65)"/><rect class="cls-39" x="1823.8" y="283.85" width="37.65" height="67.54" rx="12" ry="12" transform="translate(291.9 -727.08) rotate(24.19)"/><rect class="cls-39" x="1725.67" y="279.59" width="37.65" height="76.68" rx="12" ry="12" transform="translate(3464.72 -112.35) rotate(155.63)"/><rect class="cls-39" x="1701.52" y="299.99" width="18.83" height="80.01" rx="6" ry="6" transform="translate(124.53 1065.41) rotate(-35.81)"/><rect class="cls-39" x="1683.35" y="315.04" width="18.83" height="80.01" rx="6" ry="6" transform="translate(222.23 1265.55) rotate(-43.61)"/><rect class="cls-39" x="1614.29" y="350.01" width="21.64" height="117.82" rx="6" ry="6" transform="translate(453.19 1606.76) rotate(-59.75)"/><rect class="cls-39" x="1621" y="394.85" width="18.83" height="80.01" rx="6" ry="6" transform="translate(565.72 1743.97) rotate(-65.81)"/><rect class="cls-39" x="1625.88" y="437.05" width="18.83" height="55.87" rx="6" ry="6" transform="translate(629.87 1835.93) rotate(-69.62)"/><rect class="cls-39" x="1601.82" y="464.79" width="18.83" height="80.01" rx="6" ry="6" transform="matrix(0.13, -0.99, 0.99, 0.13, 896.83, 2034.67)"/><rect class="cls-39" x="1619.41" y="496.8" width="18.83" height="48.63" rx="6" ry="6" transform="translate(1419.08 2218.36) rotate(-100.7)"/><rect class="cls-39" x="1612.71" y="467.18" width="18.83" height="51.77" rx="6" ry="6" transform="translate(876.39 2015.66) rotate(-80.81)"/><rect class="cls-38" x="1613.51" y="458.28" width="11.51" height="80.01" rx="3.67" ry="3.67" transform="translate(972.14 2064.03) rotate(-84.65)"/><rect class="cls-38" x="1748.09" y="276.06" width="18.83" height="80.01" rx="6" ry="6" transform="translate(-9.13 576.29) rotate(-18.57)"/><rect class="cls-38" x="1728.05" y="310.99" width="18.83" height="56.48" rx="6" ry="6" transform="translate(14.84 747.2) rotate(-24.37)"/><rect class="cls-39" x="1661.58" y="338.48" width="18.83" height="80.01" rx="6" ry="6" transform="translate(200.05 1257) rotate(-43.61)"/><rect class="cls-38" x="1843.22" y="293.66" width="18.83" height="56.48" rx="6" ry="6" transform="translate(75.16 -291.67) rotate(9.19)"/><rect class="cls-38" x="1859.46" y="297.35" width="17.25" height="56.25" rx="5.5" ry="5.5" transform="translate(418.32 -896.76) rotate(30.25)"/><rect class="cls-38" x="1793.45" y="266.54" width="18.83" height="80.01" rx="6" ry="6" transform="translate(-3.74 590.25) rotate(-18.57)"/><rect class="cls-39" x="1766.11" y="268.86" width="18.83" height="80.01" rx="6" ry="6" transform="translate(-26.25 270.39) rotate(-8.65)"/><path class="cls-40" d="M1671.34,447.85s7.52-64.16-10.42-73,28.79-9.18,32.86,28c0,0,18.13-62.18-4.1-62.7,0,0,40.68,20.38,43.72,35.52,0,0-16-92.25-34.42-86.6,0,0,58.59,3.71,56.86,41.63,0,0,11.83-47-9.9-62,0,0,58.59,3.7,52.31,44.41S1671.34,447.85,1671.34,447.85Z"/><g class="cls-41"><path class="cls-20" d="M1687.92,431.26s10.07-42-2.45-44.83,21.75-10.24,22.1,12.79c0,0,17.7-42.32,1.44-39.25,0,0,28.38,6.73,29.54,15.89,0,0-5.18-56.22-19.1-49.8,0,0,42.7-6.62,38.74,17.76,0,0,12-31.67-2.87-37.89,0,0,42.7-6.62,35.21,20.24S1687.92,431.26,1687.92,431.26Z"/></g><g class="cls-42"><rect x="1755.79" y="433.97" width="34.83" height="0.75"/><rect x="1755.58" y="428.32" width="34.83" height="0.75"/><rect x="1755.73" y="420.48" width="34.83" height="0.75"/><rect x="1756.79" y="413.91" width="34.83" height="0.75"/></g><g class="cls-43"><rect x="1764.43" y="428.37" width="34.83" height="0.75" transform="translate(834.79 1997.78) rotate(-72.41)"/><rect x="1758.98" y="426.86" width="34.83" height="0.75" transform="translate(832.43 1991.53) rotate(-72.41)"/><rect x="1751.55" y="424.35" width="34.83" height="0.75" transform="translate(829.63 1982.7) rotate(-72.41)"/><rect x="1745.6" y="421.35" width="34.83" height="0.75" transform="translate(828.35 1974.94) rotate(-72.41)"/></g><g class="cls-42"><rect x="1668.91" y="521.44" width="0.75" height="29.37" transform="translate(-22.84 995.08) rotate(-32.98)"/><rect x="1672.78" y="518.72" width="0.75" height="29.37" transform="translate(-20.74 996.74) rotate(-32.98)"/><rect x="1678.35" y="515.26" width="0.75" height="29.37" transform="translate(-17.95 999.25) rotate(-32.98)"/><rect x="1683.44" y="513.02" width="0.75" height="29.37" transform="translate(-15.91 1001.66) rotate(-32.98)"/></g><g class="cls-43"><rect x="1662.62" y="539.31" width="29.14" height="0.75" transform="translate(-82.87 459.51) rotate(-15.23)"/><rect x="1661.17" y="534.77" width="29.14" height="0.75" transform="translate(-81.72 458.97) rotate(-15.23)"/><rect x="1659.52" y="528.37" width="29.14" height="0.75" transform="translate(-80.1 458.31) rotate(-15.23)"/><rect x="1658.89" y="522.81" width="29.14" height="0.75" transform="translate(-78.66 457.95) rotate(-15.23)"/></g><g class="cls-42"><polygon points="1793.58 542.66 1776.75 532.02 1777.15 531.39 1793.98 542.03 1793.58 542.66"/><polygon points="1796.05 539.59 1779.22 528.95 1779.62 528.31 1796.45 538.95 1796.05 539.59"/><polygon points="1799.69 535.45 1782.86 524.81 1783.26 524.18 1800.09 534.82 1799.69 535.45"/><polygon points="1803.19 532.27 1786.36 521.63 1786.76 521 1803.59 531.64 1803.19 532.27"/></g><g class="cls-43"><rect x="1779.67" y="536.3" width="24.85" height="0.75" transform="translate(23.34 1145.88) rotate(-35.68)"/><rect x="1777.72" y="533.83" width="24.85" height="0.75" transform="translate(24.41 1144.28) rotate(-35.68)"/><rect x="1775.27" y="530.23" width="24.85" height="0.75" transform="translate(26.06 1142.18) rotate(-35.68)"/><rect x="1773.76" y="526.81" width="24.85" height="0.75" transform="translate(27.76 1140.66) rotate(-35.68)"/></g><g class="cls-42"><polygon points="1943.98 581.45 1911.39 569.16 1911.66 568.46 1944.25 580.75 1943.98 581.45"/><polygon points="1945.78 576.09 1913.19 563.79 1913.45 563.09 1946.05 575.39 1945.78 576.09"/><polygon points="1948.68 568.8 1916.09 556.51 1916.36 555.81 1948.95 568.1 1948.68 568.8"/><polygon points="1951.99 563.03 1919.4 550.73 1919.67 550.03 1952.26 562.33 1951.99 563.03"/></g><g class="cls-43"><polygon points="1916.75 578.36 1916.16 577.89 1937.73 550.54 1938.32 551.01 1916.75 578.36"/><polygon points="1912.25 573.46 1911.66 572.99 1933.23 545.64 1933.82 546.11 1912.25 573.46"/></g><g class="cls-42"><rect x="1838.2" y="695.64" width="34.83" height="0.75"/><rect x="1837.99" y="689.99" width="34.83" height="0.75"/><rect x="1838.14" y="682.15" width="34.83" height="0.75"/><rect x="1839.2" y="675.58" width="34.83" height="0.75"/></g><g class="cls-43"><rect x="1846.84" y="690.04" width="34.83" height="0.75" transform="translate(642.87 2258.95) rotate(-72.41)"/><rect x="1841.39" y="688.53" width="34.83" height="0.75" transform="translate(640.5 2252.7) rotate(-72.41)"/><rect x="1833.96" y="686.02" width="34.83" height="0.75" transform="translate(637.71 2243.87) rotate(-72.41)"/><rect x="1828.02" y="683.02" width="34.83" height="0.75" transform="translate(636.42 2236.11) rotate(-72.41)"/></g><g id="briller"><g class="cls-44"><path class="cls-20" d="M1758.2,434.12c-.12-.27-2.72-6.72.23-11.91,1.76-3.09,5-5,9.76-5.69l.43,3c-3.74.55-6.29,2-7.58,4.2-2.23,3.89-.09,9.23-.07,9.29Z"/></g><g class="cls-14"><ellipse class="cls-45" cx="1802.6" cy="352.7" rx="73.55" ry="74.08" transform="translate(513.73 1661.35) rotate(-56.51)"/><path d="M1802.93,427.93a76,76,0,0,1-74.18-60.46,74.69,74.69,0,0,1,58.58-88.53,76,76,0,0,1,89.13,59,74.71,74.71,0,0,1-58.58,88.53A76.62,76.62,0,0,1,1802.93,427.93Zm-.66-147.47a72.92,72.92,0,0,0-14.36,1.43,71.68,71.68,0,0,0-56.22,85,72.94,72.94,0,0,0,85.6,56.65,71.69,71.69,0,0,0,56.23-85,72.36,72.36,0,0,0-31.15-45.92h0A72.47,72.47,0,0,0,1802.27,280.46Z"/></g><g class="cls-14"><ellipse class="cls-45" cx="1718.58" cy="494.91" rx="73.55" ry="74.08" transform="translate(357.47 1655.01) rotate(-56.51)"/><path d="M1718.94,570.11a75.53,75.53,0,0,1-41.78-12.6c-34.76-23-44.45-69.79-21.61-104.3s69.69-43.89,104.44-20.89a75.32,75.32,0,0,1,32.44,47.82,74.7,74.7,0,0,1-73.49,90Zm-.74-147.39a71.92,71.92,0,0,0-60.15,32.14c-21.93,33.14-12.61,78.06,20.76,100.14s78.37,13.1,100.29-20a71.34,71.34,0,0,0,10.39-54.22,72.91,72.91,0,0,0-71.29-58Z"/></g><g class="cls-46"><path class="cls-16" d="M1675.21,486.45c-.45,13.26.21,25,9.7,36.83,2.93,3.68,3.77,8.06-.94,9.25h0c-4.67,1.17-13-1.32-15.42-4.86-8-11.37-6.31-22.26-3.21-35.41a23.24,23.24,0,0,1,6.84-10.42h0C1674.4,480.25,1675.3,482.4,1675.21,486.45Z"/></g><g class="cls-46"><path class="cls-16" d="M1754.71,343.67c-.78,12.44-.46,23.47,8.21,34.91,2.68,3.57,3.36,7.71-1.13,8.66h0c-4.45.94-12.29-1.69-14.47-5.09-7.28-11-5.39-21.13-2.11-33.37a21.62,21.62,0,0,1,6.75-9.55h0C1754.1,337.82,1754.9,339.87,1754.71,343.67Z"/></g></g><path class="cls-47" d="M373,239l-27.4-.11A12.34,12.34,0,0,1,332,226.69L331.54,143a2.41,2.41,0,0,0-.72-1.72,2.35,2.35,0,0,0-1.72-.7l-59,.41.94,80-11,.12-.94-80.26A10.72,10.72,0,0,1,269.7,130l59.32-.41a13.46,13.46,0,0,1,9.53,3.88,13.31,13.31,0,0,1,4,9.48l.42,83.72a1.31,1.31,0,0,0,.46,1,1.35,1.35,0,0,0,1.06.31l.4-.06L373,228Z"/><path class="cls-16" d="M1541.12,239.12l-.24-10,40.87-1a2.29,2.29,0,0,0,2.25-2.3V96.54a12.3,12.3,0,0,1,12.7-12.29l107.63,3.53a12.31,12.31,0,0,1,11.88,11.9l2,56.14-10,.35-2-56.16a2.31,2.31,0,0,0-2.22-2.24l-107.63-3.53a2.25,2.25,0,0,0-1.67.65,2.28,2.28,0,0,0-.7,1.65V225.87a12.38,12.38,0,0,1-12,12.3Z"/><path class="cls-16" d="M589,462l-.5-62.93v-.36a12.24,12.24,0,0,0-.32-3.72l-215.84,0a4.42,4.42,0,0,1-4.36-4.36l-.59-98.53,3,0,.59,98.53a1.4,1.4,0,0,0,1.38,1.38l216.14,0c3,0,3,4.39,3,6.74v.33L592,462Z"/><path class="cls-16" d="M1356,472.74h-7V425.49a8.5,8.5,0,0,1,8.49-8.49h129.78a4.78,4.78,0,0,0,4.77-4.75l.21-39.65a1.59,1.59,0,0,0-1.59-1.6H1444.5v-7h46.16a8.59,8.59,0,0,1,8.59,8.64l-.21,39.65A11.79,11.79,0,0,1,1487.27,424H1357.49a1.49,1.49,0,0,0-1.49,1.49Z"/><path class="cls-16" d="M438.5,650h-7V369.6a10,10,0,0,1,3-7.14,9.78,9.78,0,0,1,7.15-2.91l636,4.45-.05,7-636-4.45h0a3,3,0,0,0-3.05,3.05Z"/><path class="cls-16" d="M975,364.53l-1.44-69.79a1.78,1.78,0,0,0-1.77-1.74H853v-3H971.79a4.8,4.8,0,0,1,4.77,4.68L978,364.47Z"/><path class="cls-16" d="M1675.5,887.53l-1.9-244a9.13,9.13,0,0,0-9.1-9H1483.6a17.12,17.12,0,0,1-17.1-17.1V421.72h8V617.4a9.11,9.11,0,0,0,9.1,9.1h180.9a17.14,17.14,0,0,1,17.1,17l1.9,244Z"/></svg>
