<svg xmlns="http://www.w3.org/2000/svg" width="150" height="150" viewBox="0 0 150 150"><defs><style>.cls-1{fill:#3b5972;}.cls-2{opacity:0.51;}.cls-3{fill:#333;}.cls-4{fill:#52b2e2;}.cls-5{fill:#fff;opacity:0.76;}</style></defs><title>try_again</title><g id="game_over"><circle class="cls-1" cx="75" cy="75" r="71.94"/><g class="cls-2"><path class="cls-3" d="M135.74,62.13l-1.6-.09a54.18,54.18,0,1,0-53.49,67.07,9.35,9.35,0,0,0,.3-18.7,35.48,35.48,0,1,1,33.14-49.53l-1-.05a8.31,8.31,0,0,0-8,11.88l5.3,11.09L115.25,94a8.31,8.31,0,0,0,14.54.83l6-9.52,6.53-10.41A8.31,8.31,0,0,0,135.74,62.13Z"/></g><path class="cls-4" d="M132.83,62.7l-1.69-.1a57.18,57.18,0,1,0-56.45,70.78A9.87,9.87,0,0,0,75,113.65a37.44,37.44,0,1,1,35-52.27l-1-.06a8.78,8.78,0,0,0-8.42,12.54l5.59,11.71,5.12,10.7a8.77,8.77,0,0,0,15.34.89l6.31-10,6.9-11A8.77,8.77,0,0,0,132.83,62.7Z"/><path class="cls-5" d="M123.48,67.53c.29.45.68.39,1.2.53,3.26.88,5.14,3.46,5.5,7a8.16,8.16,0,0,1-.05,2.1,2.2,2.2,0,0,0,.32,1.54h0a2.24,2.24,0,0,0,4.07-.89,12.71,12.71,0,0,0,.08-3.21,11.46,11.46,0,0,0-6.45-9.74,3.65,3.65,0,0,0-4.66.89c-.19.25,1,.52.57,1.06Z"/></g></svg>
